<svg id="Layer_1" data-name="Layer 1" xmlns="http://www.w3.org/2000/svg" width="1920" height="1080" viewBox="0 0 1920 1080"><defs><style>.cls-1{fill:blue;opacity:0.28;}.cls-10,.cls-11,.cls-2{fill:none;}.cls-10,.cls-11,.cls-19,.cls-2,.cls-9{stroke:#000;stroke-miterlimit:10;}.cls-3{fill:#603813;}.cls-4{fill:#a67c52;}.cls-5{fill:#754c24;}.cls-6,.cls-8{fill:#f7931e;}.cls-6{stroke:#fbb03b;stroke-linejoin:round;stroke-width:10px;}.cls-11,.cls-6{stroke-linecap:round;}.cls-7{fill:#fbb03b;}.cls-10,.cls-11{stroke-width:5px;}.cls-12,.cls-19{fill:#fff;}.cls-13{fill:#ccc;}.cls-14{fill:#e6e6e6;}.cls-15{fill:#8c6239;}.cls-16{fill:#42210b;}.cls-17{opacity:0.4;}.cls-18{fill:#ffff95;}.cls-20{fill:#ed1c24;}.cls-21{fill:#c1272d;}.cls-22{fill:#666;}.cls-23{fill:#b3b3b3;}</style></defs><title>Baggrund</title><rect class="cls-1" x="1" y="3" width="1920" height="1080"/><path class="cls-2" d="M875.28,150.53C889.35,134,905.16,116.66,922.82,99c16.06-16,31.84-30.5,47-43.53a547.1,547.1,0,0,1,95,94.55"/><rect class="cls-3" x="833.02" y="138.99" width="274.6" height="185.18"/><rect class="cls-4" x="849.62" y="150.86" width="240.57" height="162.23"/><polygon class="cls-5" points="1108 324.56 1090.59 313.48 1090.59 151.25 1108 139.38 1108 324.56"/><polygon class="cls-3" points="849.23 313.48 833.4 324.56 1108 324.56 1090.59 313.48 849.23 313.48"/><polygon class="cls-5" points="833.4 139.38 849.23 151.25 849.23 313.48 833.4 324.56 833.4 139.38"/><path class="cls-6" d="M897.93,281.64c-3.51-7.05,2.09-28,17.15-53.72,17-29.13,34.55-47.81,40.54-52.33a11,11,0,0,1,13.3-.18,96,96,0,0,1,25.77,13.2A140.41,140.41,0,0,1,1008.06,200s6.42,6,12.64,12.94c8.39,9.36,21.43,27.22,35.38,51.52a102.32,102.32,0,0,1-29.16,21.69c-3.71,1.83-19.91,9.55-49,10.56C945.32,297.8,917.58,289.77,897.93,281.64Z"/><path class="cls-7" d="M970.26,175.51a79.41,79.41,0,0,1,20.26-15.25,84.19,84.19,0,0,1,24.15-8.34,3.2,3.2,0,0,1,3.26.24,3.15,3.15,0,0,1,1.42,2.94,106.07,106.07,0,0,1,1.55,24.81,101.06,101.06,0,0,1-5.26,27.13c-6.23-5.25-13.21-10.69-21-16.13C986.16,184.94,977.94,179.85,970.26,175.51Z"/><path class="cls-8" d="M975.61,177.33A62.57,62.57,0,0,1,991.26,165a66.31,66.31,0,0,1,18.84-7,2.51,2.51,0,0,1,2.56.13,2.47,2.47,0,0,1,1.17,2.29,83.91,83.91,0,0,1,1.66,19.46,80.18,80.18,0,0,1-3.66,21.42c-5-4-10.57-8.17-16.77-12.31C988.27,184.46,981.72,180.6,975.61,177.33Z"/><ellipse class="cls-9" cx="983.25" cy="225.47" rx="6.65" ry="9.42" transform="translate(-22.35 145.51) rotate(-8.37)"/><path class="cls-10" d="M979.32,241.3c-8.08,3.28-18,3-22.42.46"/><path class="cls-10" d="M978.65,255c-5.55,6.73-8.47-2.49-9.81-11.11"/><path class="cls-10" d="M959.92,257.11c6.33,6,9.42-4.52,8.25-13.16"/><path class="cls-11" d="M1025.4,246.21c-2.23-3.47-6-7.05-13-8.79-8.07-2-13.7.63-15.91,1.12"/><path class="cls-11" d="M1020.39,250.25c-1.87-3-5.06-6.1-11-7.67-6.88-1.82-11.74.39-13.64.79"/><path class="cls-11" d="M1008.41,248.06c-6.91-1.73-11.74.54-13.63,1"/><path class="cls-11" d="M1019.52,255.59c-1.91-3-5.14-6-11.11-7.53"/><path class="cls-11" d="M939.31,244.72c-3.89-1.36-9.07-1.85-15.63,1.06-7.6,3.38-10.4,8.94-11.84,10.69"/><path class="cls-11" d="M937.85,251c-3.32-1.21-7.75-1.69-13.4.74-6.55,2.81-9,7.55-10.26,9"/><path class="cls-11" d="M927.07,256.65c-6.51,2.89-8.92,7.66-10.15,9.16"/><path class="cls-11" d="M940.46,255.73c-3.34-1.16-7.77-1.58-13.39.92"/><path class="cls-11" d="M992.61,216.5c-3-3.24-7.58-6.32-15.23-6.9"/><path class="cls-11" d="M949.17,211.84c-4.33.78-9.4,3-14,9.2"/><path class="cls-7" d="M920.67,218.29a83.9,83.9,0,0,1-14.54-22.43,88.71,88.71,0,0,1-7-26,3.35,3.35,0,0,1,.49-3.41,3.31,3.31,0,0,1,3.19-1.27,111.77,111.77,0,0,1,26.19.2,107,107,0,0,1,28.13,7.54c-6,6.16-12.22,13.1-18.51,20.85C931.76,202.28,925.8,210.53,920.67,218.29Z"/><path class="cls-8" d="M924.79,210.85a59.53,59.53,0,0,1-10.33-15.94,62.92,62.92,0,0,1-5-18.47,2.4,2.4,0,0,1,.35-2.42,2.37,2.37,0,0,1,2.27-.91,79.68,79.68,0,0,1,18.61.15,75.53,75.53,0,0,1,20,5.36c-4.25,4.37-8.68,9.3-13.15,14.81C932.67,199.47,928.44,205.34,924.79,210.85Z"/><circle class="cls-12" cx="979.69" cy="219.47" r="2"/><ellipse class="cls-9" cx="949.22" cy="227.84" rx="6.65" ry="9.42" transform="translate(-24.74 162.08) rotate(-9.63)"/><circle class="cls-12" cx="945.55" cy="222.63" r="2"/><rect class="cls-13" x="7.5" y="681.5" width="1927" height="57"/><rect class="cls-14" x="1" y="689" width="1927" height="57"/><rect class="cls-12" x="1.5" y="746.5" width="1920" height="336"/><path d="M1921,747v335H2V747H1921m1-1H1v337H1922V746Z"/><path class="cls-15" d="M2094.77,1082.87H1867.83L1728.38,747.13H1920Z"/><path class="cls-16" d="M2098.5,1083.5H1864.69l-139.45-337H1922.5ZM1871,1082.24H2091L1917.41,747.76h-185.9Q1801.25,915,1871,1082.24Z"/><g class="cls-17"><path class="cls-16" d="M1799.51,769.94a179.07,179.07,0,0,1,12.37,28.88c1.81,4.81,3.09,9.61,4.65,14.42a96.5,96.5,0,0,0,5.12,14.36,54.39,54.39,0,0,0,3.73,7.15,40.92,40.92,0,0,0,2.48,3.56c.83,1.19,1.89,2.38,2.84,3.56s2.11,2.37,3.15,3.56,2.37,2.36,3.62,3.55,2.6,2.36,4.07,3.53,2.79,2.36,4.36,3.53c15.11,11.32,31.83,19.71,48.83,27.74-20.49-7.32-41.27-15.15-59.5-27.28a97.46,97.46,0,0,1-17.72-14.37,54,54,0,0,1-9.86-14.53c-3.75-8.88-5.49-19.35-6.52-28.88A148.25,148.25,0,0,1,1799.51,769.94Z"/><path class="cls-16" d="M1864.12,758.46c9.48,5.34,18.88,10.66,26.92,18.11,6.84,6.14,11.46,12.35,14.07,18.55a26.79,26.79,0,0,1,1.25,18.5c-1.77,6.1-5.75,12.14-12.84,18a75.29,75.29,0,0,0,1.94-18.26,56,56,0,0,0-4.14-18.26,82,82,0,0,0-10.72-18.27A198.23,198.23,0,0,0,1864.12,758.46Z"/><path class="cls-16" d="M1915.58,915.23c7.94,6.95,16.55,14,21.6,23.51,4.17,7.9,3.78,15.92-4.49,23.6-4.18,3.81-9.91,7.47-14.75,11.12s-8.39,7.35-10.5,11.13c-4.07,7.58-2.24,15.39,5.07,23.22-7.26-5.19-19.56-12.26-16.92-23.59a16.13,16.13,0,0,1,1-3,20.66,20.66,0,0,1,1.82-2.93,31.9,31.9,0,0,1,5.54-5.76c4.47-3.78,10-7.43,14-11.11s6.4-7.42,7.5-11.23a23.4,23.4,0,0,0,.19-11.55C1923.88,930.93,1919.06,923.09,1915.58,915.23Z"/></g><path class="cls-15" d="M1867.83,1082.87H1640.88q-52-167.86-104.09-335.74h191.59Z"/><path class="cls-16" d="M1871.5,1083.5H1637.67l-104-337H1731Q1801.24,915,1871.5,1083.5Zm-227.41-1.26h220.07L1725.77,747.76H1539.86Z"/><g class="cls-17"><path class="cls-16" d="M1605.52,769.94a161.64,161.64,0,0,1,9.33,28.88c1.31,4.81,2.08,9.61,3.13,14.42a87.51,87.51,0,0,0,3.61,14.36,48.22,48.22,0,0,0,3,7.15,37.61,37.61,0,0,0,2.1,3.56c.7,1.19,1.65,2.38,2.47,3.56s1.86,2.37,2.78,3.56,2.12,2.36,3.24,3.55,2.35,2.36,3.7,3.53,2.53,2.36,4,3.53c14.49,11,29.65,19.57,45.91,27.74-19.75-7.4-39.15-15.28-56.63-27.28a83.21,83.21,0,0,1-16.21-14.37,47,47,0,0,1-8.33-14.53c-2.84-9-3.45-19.48-3.48-28.88A148.93,148.93,0,0,1,1605.52,769.94Z"/><path class="cls-16" d="M1709.74,1071.35a23.8,23.8,0,0,1-8.58-8.06,13,13,0,0,1-1.92-8.09,15.21,15.21,0,0,1,3.62-8,31.31,31.31,0,0,1,10.16-7.76,18.82,18.82,0,0,1,2.12,8.07,46.77,46.77,0,0,1-.19,7.94,50,50,0,0,1-1.44,7.92A22,22,0,0,1,1709.74,1071.35Z"/><path class="cls-16" d="M1671.34,758.46c8.9,5.33,17.72,10.62,25,18.11,6.19,6.14,10.16,12.35,12.11,18.55a26.67,26.67,0,0,1-.69,18.5c-2.42,6.1-7,12.14-14.74,18a78.15,78.15,0,0,0,3.86-18.26,52.8,52.8,0,0,0-2.21-18.26,72,72,0,0,0-8.79-18.27A169.32,169.32,0,0,0,1671.34,758.46Z"/><path class="cls-16" d="M1706.3,915.23c7.2,6.94,15.11,14.06,19.12,23.51,3.34,7.9,2.1,15.92-7,23.6-4.58,3.81-10.7,7.47-15.92,11.12s-9.17,7.35-11.68,11.13c-4.86,7.58-3.85,15.39,2.63,23.22-6.86-5.3-18.42-12.68-14.43-23.59a17.82,17.82,0,0,1,1.32-3,24.91,24.91,0,0,1,2.13-2.93,37.15,37.15,0,0,1,6.16-5.76c4.86-3.78,10.76-7.43,15.15-11.11s7.17-7.42,8.68-11.23a23.92,23.92,0,0,0,1.4-11.55C1712.94,930.93,1708.94,923.09,1706.3,915.23Z"/></g><path class="cls-15" d="M1640.88,1082.87h-227L1345.2,747.13h191.59Q1588.84,915,1640.88,1082.87Z"/><path class="cls-16" d="M1644.48,1083.5H1410.65l-68.46-337h197.28Zm-227.28-1.26h220.08L1534.11,747.76H1348.2Z"/><g class="cls-17"><path class="cls-16" d="M1411.53,769.94a149.86,149.86,0,0,1,6.29,28.88c.79,4.81,1.06,9.61,1.61,14.42a82.5,82.5,0,0,0,2.09,14.36,43.6,43.6,0,0,0,2.23,7.15,31.43,31.43,0,0,0,1.73,3.56c.57,1.19,1.39,2.38,2.08,3.56s1.62,2.37,2.41,3.56,1.87,2.36,2.87,3.55,2.1,2.36,3.33,3.53,2.28,2.36,3.62,3.53c12.86,11.54,27.82,19.69,43,27.74-18.86-7.36-37.39-15.17-53.76-27.28a71.19,71.19,0,0,1-14.7-14.37,41.2,41.2,0,0,1-6.79-14.53c-1.91-9.19-1.4-19.61-.45-28.88A153.74,153.74,0,0,1,1411.53,769.94Z"/><path class="cls-16" d="M1484,1071.35a20.54,20.54,0,0,1-7.74-8.06,12.37,12.37,0,0,1-1.06-8.09,17.32,17.32,0,0,1,4.46-8,36.49,36.49,0,0,1,11-7.76,17.59,17.59,0,0,1,1.27,8.07,48.75,48.75,0,0,1-1,7.94,54.86,54.86,0,0,1-2.28,7.92A24.86,24.86,0,0,1,1484,1071.35Z"/><path class="cls-16" d="M1478.56,758.46a87.12,87.12,0,0,1,23.11,18.11c5.54,6.14,8.86,12.35,10.16,18.55a27.34,27.34,0,0,1-2.65,18.5c-3,6.1-8.3,12.14-16.62,18a84.59,84.59,0,0,0,5.78-18.26,51.88,51.88,0,0,0-.28-18.26,64.62,64.62,0,0,0-6.87-18.27A146.25,146.25,0,0,0,1478.56,758.46Z"/><path class="cls-16" d="M1497,915.23c6.57,6,13.9,14.83,16.65,23.51,2.51,7.9.43,15.92-9.46,23.6-5,3.81-11.49,7.47-17.1,11.12a50.16,50.16,0,0,0-12.85,11.13c-5.66,7.58-5.48,15.39.18,23.22-6.51-5.48-17.2-13.18-11.94-23.59a19.21,19.21,0,0,1,1.63-3,28.9,28.9,0,0,1,2.44-2.93,43.49,43.49,0,0,1,6.76-5.76c5.26-3.78,11.55-7.43,16.32-11.11s8-7.42,9.86-11.23a25.11,25.11,0,0,0,2.62-11.55C1502,930.93,1498.82,923.09,1497,915.23Z"/></g><path class="cls-15" d="M1413.93,1082.87H1187Q1170.27,915,1153.6,747.13h191.6Z"/><path class="cls-16" d="M1417.46,1083.5H1183.62q-16.47-168.5-33-337h197.28Q1382.69,915,1417.46,1083.5Zm-227.15-1.26H1410.4l-68-334.48H1156.54Q1173.42,915,1190.31,1082.24Z"/><g class="cls-17"><path class="cls-16" d="M1217.53,769.94a143,143,0,0,1,3.25,28.88c.29,4.81,0,9.61.09,14.42a80.25,80.25,0,0,0,.58,14.36,39.5,39.5,0,0,0,1.47,7.15,28.22,28.22,0,0,0,1.36,3.56c.45,1.19,1.14,2.38,1.71,3.56s1.36,2.37,2,3.56,1.62,2.36,2.5,3.55,1.85,2.36,3,3.53,2,2.36,3.25,3.53c11.72,11.61,25.8,19.72,40.07,27.74-18-7.31-35.64-15-50.89-27.28a60.84,60.84,0,0,1-13.18-14.37,37,37,0,0,1-5.27-14.53c-.93-9.38.69-19.73,2.6-28.88A163,163,0,0,1,1217.53,769.94Z"/><path class="cls-16" d="M1258.25,1071.35a17.57,17.57,0,0,1-6.88-8.06,12,12,0,0,1-.21-8.09,19.7,19.7,0,0,1,5.3-8,42.08,42.08,0,0,1,11.8-7.76,17.19,17.19,0,0,1,.42,8.07,50.19,50.19,0,0,1-1.87,7.94,58.91,58.91,0,0,1-3.1,7.92A28.72,28.72,0,0,1,1258.25,1071.35Z"/><path class="cls-16" d="M1285.77,758.46c7.65,4.43,15.79,11,21.21,18.11,4.89,6.14,7.55,12.35,8.2,18.55a29,29,0,0,1-4.59,18.5c-3.71,6.1-9.59,12.14-18.52,18a93.9,93.9,0,0,0,7.71-18.26,52.67,52.67,0,0,0,1.63-18.26,59,59,0,0,0-4.94-18.27A127.36,127.36,0,0,0,1285.77,758.46Z"/><path class="cls-16" d="M1287.7,915.23c7,7.77,12.62,15.6,14.17,23.51,2.74,10.37-5.42,17.42-11.95,23.6-5.38,3.81-12.27,7.47-18.26,11.12a58.48,58.48,0,0,0-14,11.13c-6.46,7.58-7.1,15.39-2.26,23.22-6.21-5.74-15.89-13.75-9.46-23.59a23,23,0,0,1,1.94-3,33.66,33.66,0,0,1,2.75-2.93,50.93,50.93,0,0,1,7.37-5.76c5.66-3.78,12.33-7.43,17.49-11.11s8.74-7.42,11-11.23a27.1,27.1,0,0,0,3.84-11.55C1291,930.93,1288.69,923.09,1287.7,915.23Z"/></g><path class="cls-15" d="M1187,1082.87H960q1-167.86,2-335.74h191.6Q1170.28,915,1187,1082.87Z"/><path class="cls-16" d="M1190.44,1083.5H956.59q1.27-168.5,2.54-337h197.28Q1173.42,915,1190.44,1083.5Zm-227-1.26H1183.5Q1167.15,915,1150.79,747.76H964.87Q964.14,915,963.41,1082.24Z"/><g class="cls-17"><path class="cls-16" d="M1023.52,769.94a139.38,139.38,0,0,1,.21,28.88c-.22,4.81-1,9.61-1.42,14.42a80.66,80.66,0,0,0-.94,14.36,39.4,39.4,0,0,0,.72,7.15,25.82,25.82,0,0,0,1,3.56c.33,1.19.89,2.38,1.34,3.56a35.49,35.49,0,0,0,1.66,3.56c.65,1.18,1.37,2.36,2.12,3.55s1.6,2.36,2.58,3.53a45.07,45.07,0,0,0,2.88,3.53c10.56,11.68,23.76,19.74,37.14,27.74-17.08-7.26-33.91-14.94-48-27.28a52.16,52.16,0,0,1-11.67-14.37,33.88,33.88,0,0,1-3.73-14.53c.07-9.57,2.79-19.82,5.64-28.88A177.23,177.23,0,0,1,1023.52,769.94Z"/><path class="cls-16" d="M1032.51,1071.35a15.14,15.14,0,0,1-6-8.06,12.12,12.12,0,0,1,.64-8.09,22.78,22.78,0,0,1,6.15-8,48.44,48.44,0,0,1,12.61-7.76c.67,2.74.18,5.41-.43,8.07a55.5,55.5,0,0,1-2.7,7.94,66.27,66.27,0,0,1-3.94,7.92A33.35,33.35,0,0,1,1032.51,1071.35Z"/><path class="cls-16" d="M1093,758.46c9,5.89,15.15,12,19.31,18.11s6.25,12.35,6.25,18.55-2.12,12.39-6.55,18.5-10.86,12.14-20.4,18a106.24,106.24,0,0,0,9.63-18.26,52.51,52.51,0,0,0,.54-36.53A111.54,111.54,0,0,0,1093,758.46Z"/><path class="cls-16" d="M1078.39,915.23c6.2,7.77,11,15.6,11.7,23.51,1.52,10.74-7.43,17.57-14.43,23.6-5.79,3.81-13.06,7.47-19.44,11.12a68.16,68.16,0,0,0-15.2,11.13c-7.26,7.58-8.72,15.39-4.71,23.22-10.32-7.63-12.31-15.7-7-23.59a27.94,27.94,0,0,1,2.26-3,37.54,37.54,0,0,1,3.06-2.93,58.7,58.7,0,0,1,8-5.76c6.06-3.78,13.12-7.43,18.66-11.11s9.53-7.42,12.23-11.23a30.07,30.07,0,0,0,5-11.55C1080.08,930.93,1078.55,923.09,1078.39,915.23Z"/></g><path class="cls-15" d="M960,1082.87H733Q751.72,915,770.4,747.13H962Q961,915,960,1082.87Z"/><path class="cls-16" d="M963.41,1083.5H729.56q19-168.5,38-337H964.87Q964.14,915,963.41,1083.5Zm-226.9-1.26H956.6l2.52-334.48H773.2Z"/><g class="cls-17"><path class="cls-16" d="M829.52,769.94a142.19,142.19,0,0,1-2.83,28.88c-.73,4.81-2,9.61-3,14.42a82.77,82.77,0,0,0-2.44,14.36,37.13,37.13,0,0,0,0,7.15,23,23,0,0,0,.6,3.56c.2,1.19.64,2.38,1,3.56a33.82,33.82,0,0,0,1.28,3.56c.53,1.18,1.13,2.36,1.75,3.55s1.35,2.36,2.21,3.53a40.87,40.87,0,0,0,2.5,3.53c9.38,11.73,21.72,19.76,34.23,27.74-16.21-7.21-32.22-14.82-45.14-27.28a44.76,44.76,0,0,1-10.16-14.37,32.05,32.05,0,0,1-2.2-14.53c1.12-9.75,4.91-19.89,8.68-28.88A198.18,198.18,0,0,1,829.52,769.94Z"/><path class="cls-16" d="M806.75,1071.35a13.22,13.22,0,0,1-5.19-8.06,12.61,12.61,0,0,1,1.5-8.09,26.59,26.59,0,0,1,7-8,55.65,55.65,0,0,1,13.43-7.76c.38,2.74-.39,5.41-1.28,8.07a60.17,60.17,0,0,1-3.54,7.94,75.64,75.64,0,0,1-4.77,7.92A38.78,38.78,0,0,1,806.75,1071.35Z"/><path class="cls-16" d="M900.18,758.46c8.32,5.89,13.88,12,17.4,18.11a29.77,29.77,0,0,1,4.29,18.55c-.69,6.2-3.42,12.39-8.49,18.5-5.71,7.14-14.32,13.69-22.3,18a121.19,121.19,0,0,0,11.55-18.26,58.76,58.76,0,0,0,5.48-18.26A53.16,53.16,0,0,0,907,776.79,99.24,99.24,0,0,0,900.18,758.46Z"/><path class="cls-16" d="M869.09,915.23c5.37,7.77,9.34,15.6,9.21,23.51.25,11-9.38,17.66-16.91,23.6-6.19,3.81-13.85,7.47-20.61,11.12a78.63,78.63,0,0,0-16.37,11.13c-8.06,7.58-10.34,15.39-7.15,23.22-9.53-7.63-10.66-15.7-4.5-23.59a31,31,0,0,1,2.57-3,42,42,0,0,1,3.37-2.93,67.58,67.58,0,0,1,8.58-5.76c6.45-3.78,13.89-7.43,19.82-11.11a54.28,54.28,0,0,0,13.42-11.23,34.39,34.39,0,0,0,6.27-11.55C869.12,930.93,868.42,923.09,869.09,915.23Z"/></g><path class="cls-15" d="M733,1082.87h-227L578.8,747.13H770.4Q751.71,915,733,1082.87Z"/><path class="cls-16" d="M736.38,1083.5H502.54q36.76-168.5,73.52-337H773.34Zm-226.76-1.26H729.71l37.74-334.48H581.53Z"/><g class="cls-17"><path class="cls-16" d="M635.51,769.94a148.13,148.13,0,0,1-5.87,28.88c-1.23,4.81-3,9.61-4.46,14.42a88.61,88.61,0,0,0-4,14.36,37.79,37.79,0,0,0-.78,7.15,24.93,24.93,0,0,0,.22,3.56c.08,1.19.39,2.38.59,3.56a31,31,0,0,0,.91,3.56c.4,1.18.87,2.36,1.37,3.55s1.11,2.36,1.84,3.53A35.59,35.59,0,0,0,627.5,856c8.17,11.77,19.65,19.78,31.31,27.74-15.33-7.29-30.57-14.6-42.27-27.28a38.82,38.82,0,0,1-8.64-14.37,30.86,30.86,0,0,1-.67-14.53c2.2-9.93,7-19.94,11.72-28.88A290.15,290.15,0,0,1,635.51,769.94Z"/><path class="cls-16" d="M581,1071.35a11.61,11.61,0,0,1-4.35-8.06,13.48,13.48,0,0,1,2.35-8.09,31.14,31.14,0,0,1,7.83-8,64.12,64.12,0,0,1,14.25-7.76c.1,2.74-1,5.41-2.13,8.07a69.35,69.35,0,0,1-4.37,7.94,87.49,87.49,0,0,1-5.61,7.92A45.73,45.73,0,0,1,581,1071.35Z"/><path class="cls-16" d="M707.39,758.46c7.7,5.89,12.62,12,15.48,18.11a28.25,28.25,0,0,1,2.35,18.55c-1.35,6.2-4.73,12.39-10.44,18.5-6.87,7.59-15.51,12.75-24.19,18a140.6,140.6,0,0,0,13.47-18.26,64.71,64.71,0,0,0,7.4-18.26,53.29,53.29,0,0,0,.84-18.27A91,91,0,0,0,707.39,758.46Z"/><path class="cls-16" d="M659.78,915.23c4.56,7.77,7.7,15.6,6.74,23.51-1,11.25-11.3,17.7-19.4,23.6-6.59,3.81-14.63,7.47-21.78,11.12a91,91,0,0,0-17.54,11.13c-8.86,7.58-12,15.39-9.6,23.22-8.72-7.63-9-15.7-2-23.59a36,36,0,0,1,2.88-3c1.16-1,2.3-2,3.67-2.93a78.33,78.33,0,0,1,9.19-5.76c6.86-3.78,14.68-7.43,21-11.11a63.07,63.07,0,0,0,14.59-11.23A39.1,39.1,0,0,0,655,938.69C658.16,930.93,658.28,923.09,659.78,915.23Z"/></g><path class="cls-15" d="M506.08,1082.87h-227Q333.17,915,387.2,747.13H578.8Z"/><path class="cls-16" d="M509.35,1083.5H275.52q54.5-168.5,109-337H581.81Q545.57,915,509.35,1083.5Zm-226.62-1.26H502.81q36.49-167.23,73-334.48H389.87Q336.31,915,282.73,1082.24Z"/><g class="cls-17"><path class="cls-16" d="M441.52,769.94a160.29,160.29,0,0,1-8.92,28.88c-1.73,4.81-4,9.61-6,14.42a97.37,97.37,0,0,0-5.47,14.36,40.61,40.61,0,0,0-1.54,7.15,25,25,0,0,0-.15,3.56c0,1.19.15,2.38.21,3.56a31.25,31.25,0,0,0,.54,3.56c.28,1.18.63,2.36,1,3.55s.85,2.36,1.47,3.53a31.25,31.25,0,0,0,1.75,3.53c8.5,11.76,16.74,18.93,28.39,27.74-14.48-7.25-28.94-14.49-39.39-27.28a34.1,34.1,0,0,1-7.13-14.37,31.06,31.06,0,0,1,.85-14.53c3.31-10.08,9.14-20,14.77-28.88C428.13,788.78,434.52,779.35,441.52,769.94Z"/><path class="cls-16" d="M355.26,1071.35a10.35,10.35,0,0,1-3.49-8.06,14.79,14.79,0,0,1,3.2-8.09,36.5,36.5,0,0,1,8.67-8,72.8,72.8,0,0,1,15.07-7.76c-.2,2.74-1.53,5.41-3,8.07a79.4,79.4,0,0,1-5.21,7.94,101.76,101.76,0,0,1-6.44,7.92A53.32,53.32,0,0,1,355.26,1071.35Z"/><path class="cls-16" d="M514.6,758.46c7.08,5.89,11.36,12,13.58,18.11a27.67,27.67,0,0,1,.38,18.55c-2,6.2-6,12.39-12.39,18.5-7.62,7.55-16.82,12.73-26.08,18a163.23,163.23,0,0,0,15.4-18.26,73.13,73.13,0,0,0,9.33-18.26,55.19,55.19,0,0,0,2.76-18.27A85.66,85.66,0,0,0,514.6,758.46Z"/><path class="cls-16" d="M450.48,915.23c3.74,7.77,6,15.6,4.26,23.51-2.34,11.4-13.17,17.71-21.88,23.6-7,3.81-15.42,7.47-22.95,11.12a104.68,104.68,0,0,0-18.72,11.13c-9.65,7.58-13.58,15.39-12,23.22-7.92-7.63-7.35-15.7.47-23.59.89-1,2.1-2,3.19-3,1.26-1,2.51-2,4-2.93a89.28,89.28,0,0,1,9.79-5.76c7.25-3.78,15.46-7.43,22.17-11.11a73.41,73.41,0,0,0,15.77-11.23,45.35,45.35,0,0,0,8.71-11.55C447.2,930.93,448.15,923.09,450.48,915.23Z"/></g><path class="cls-15" d="M279.12,1082.87H52.18L195.61,747.13H387.2Q333.17,915,279.12,1082.87Z"/><path class="cls-16" d="M282.33,1083.5H48.5L193,746.5H390.28Q336.3,915,282.33,1083.5Zm-226.48-1.26H275.92Q330,915,384.12,747.76H198.22Q127,915,55.85,1082.24Z"/><g class="cls-17"><path class="cls-16" d="M247.52,769.94a175.7,175.7,0,0,1-12,28.88c-2.24,4.81-5,9.61-7.5,14.42a108.07,108.07,0,0,0-7,14.36,42.05,42.05,0,0,0-2.29,7.15,23.19,23.19,0,0,0-.53,3.56,32.73,32.73,0,0,0-.16,3.56,26.51,26.51,0,0,0,.16,3.56c.15,1.18.37,2.36.62,3.55s.61,2.36,1.1,3.53a26.54,26.54,0,0,0,1.38,3.53c5.42,11.74,15.79,19.79,25.47,27.74-13.64-7.21-27.35-14.4-36.52-27.28a30.56,30.56,0,0,1-5.62-14.37,32.15,32.15,0,0,1,2.39-14.53c4.51-10.38,11.38-19.66,17.81-28.88C232.15,788.78,239.56,779.32,247.52,769.94Z"/><path class="cls-16" d="M129.53,1071.35a9.38,9.38,0,0,1-2.65-8.06,16.64,16.64,0,0,1,4.05-8.09,42.38,42.38,0,0,1,9.52-8,82.8,82.8,0,0,1,15.88-7.76c-.48,2.74-2.1,5.41-3.83,8.07a93.66,93.66,0,0,1-6,7.94c-2.22,2.64-4.62,5.28-7.28,7.92A62.34,62.34,0,0,1,129.53,1071.35Z"/><path class="cls-16" d="M321.81,758.46c6.46,5.89,10.1,12,11.67,18.11a28,28,0,0,1-1.56,18.55c-2.65,6.2-7.34,12.39-14.34,18.5-8.36,7.51-18.13,12.71-28,18a192.53,192.53,0,0,0,17.32-18.26,83.51,83.51,0,0,0,11.25-18.26,58.36,58.36,0,0,0,4.68-18.27A82.54,82.54,0,0,0,321.81,758.46Z"/><path class="cls-16" d="M241.18,915.23c2.92,7.77,4.41,15.6,1.79,23.51-3.62,11.49-15,17.68-24.37,23.6-7.4,3.81-16.21,7.47-24.12,11.12a120.2,120.2,0,0,0-19.89,11.13c-6.7,6-15.47,12.89-14.49,23.22-7.11-7.63-5.7-15.7,3-23.59,1-1,2.3-2,3.5-3,1.37-1,2.72-2,4.29-2.93a103.74,103.74,0,0,1,10.4-5.76c7.66-3.78,16.25-7.43,23.34-11.11a85,85,0,0,0,17-11.23,52.87,52.87,0,0,0,9.92-11.55C236.25,930.93,238,923.09,241.18,915.23Z"/></g><path class="cls-15" d="M52.18,1082.87H-174.76L4,747.13H195.61Z"/><path class="cls-16" d="M55.31,1083.5H-178.5l180-337H198.76Q127,915,55.31,1083.5ZM-171,1082.24H49L192.47,747.76H6.58Z"/><g class="cls-17"><path class="cls-16" d="M53.54,769.94a198.59,198.59,0,0,1-15,28.88c-2.75,4.81-6,9.61-9,14.42A123.49,123.49,0,0,0,21,827.6a47.6,47.6,0,0,0-3,7.15,24.76,24.76,0,0,0-.9,3.56,34,34,0,0,0-.54,3.56,28.35,28.35,0,0,0-.22,3.56c0,1.18.13,2.36.26,3.55a33.46,33.46,0,0,0,.72,3.53,24.27,24.27,0,0,0,1,3.53C22.45,867.7,32,875.82,40.86,883.78c-12.81-7.17-25.79-14.33-33.64-27.28a27.86,27.86,0,0,1-4.11-14.37A34.15,34.15,0,0,1,7,827.6a280.59,280.59,0,0,1,20.85-28.88C36.18,788.79,44.61,779.3,53.54,769.94Z"/><path class="cls-16" d="M129,758.46c5.84,5.89,8.84,12,9.77,18.11s-.25,12.35-3.52,18.55-8.64,12.39-16.29,18.5c-9.08,7.46-19.43,12.69-29.86,18a222.88,222.88,0,0,0,19.24-18.26,96,96,0,0,0,13.17-18.26,63.74,63.74,0,0,0,6.61-18.27A81.58,81.58,0,0,0,129,758.46Z"/><path class="cls-16" d="M31.89,915.23c2.11,7.77,2.77,15.6-.68,23.51-4.88,11.54-16.8,17.64-26.86,23.6-7.8,3.81-17,7.47-25.29,11.12A137.46,137.46,0,0,0-42,984.59c-7.24,5.91-16.7,12.62-16.93,23.22-6.31-7.63-4-15.7,5.44-23.59,1.1-1,2.51-2,3.81-3,1.47-1,2.92-2,4.6-2.93a118.78,118.78,0,0,1,11-5.76c8.05-3.78,17-7.43,24.5-11.11A98.65,98.65,0,0,0,8.58,950.24a61.84,61.84,0,0,0,11.13-11.55C25.31,930.93,27.91,923.09,31.89,915.23Z"/></g><path class="cls-9" d="M313,615.5h0A47.5,47.5,0,0,1,360.5,663v83.5a0,0,0,0,1,0,0h-95a0,0,0,0,1,0,0V663A47.5,47.5,0,0,1,313,615.5Z"/><path class="cls-14" d="M201.09,752.31c-2.54-2.71-9.28-15.12-11.14-17.91l-3.73-406.48-22,.17,3.23,406.44a95.36,95.36,0,0,1-11.37,16.14c-20.88,23.78-45.43,25-51.25,25.47l63-.18v.12l22-.18,62.11-.17C243.88,775.63,221,773.61,201.09,752.31Z"/><path class="cls-14" d="M251.75,776.33h-1.68C250.79,776.34,251.37,776.34,251.75,776.33Z"/><path class="cls-18" d="M249,381.25H107.5a186.83,186.83,0,0,0,35.38-70.75A186.62,186.62,0,0,0,147,239.75H204.1A177.27,177.27,0,0,0,249,381.25Z"/><rect class="cls-19" x="202.5" y="381.5" height="42"/><circle cx="202.5" cy="425.5" r="2"/><path class="cls-20" d="M1469,608H448V485.37A98.37,98.37,0,0,1,546.37,387h824.26A98.37,98.37,0,0,1,1469,485.37Z"/><path class="cls-20" d="M1436.47,769H479.53A32.52,32.52,0,0,1,447,736.47V608H1469V736.47A32.52,32.52,0,0,1,1436.47,769Z"/><path class="cls-21" d="M447,608H958V557a35,35,0,0,0-35-35H500.69A53.69,53.69,0,0,0,447,575.69Z"/><path class="cls-21" d="M1469,608H958V557a35,35,0,0,1,35-35h422.31A53.69,53.69,0,0,1,1469,575.69Z"/><rect class="cls-21" x="421" y="518" width="72" height="252"/><circle class="cls-21" cx="427.5" cy="512.5" r="66.5"/><rect class="cls-21" x="1411" y="518" width="72" height="252"/><circle class="cls-21" cx="1476.5" cy="512.5" r="66.5"/><rect class="cls-22" x="1627.5" y="579.5" width="242" height="209"/><circle cx="1748.5" cy="688.5" r="73"/><rect class="cls-22" x="1585.5" y="158.5" width="130.5" height="112.7"/><circle cx="1650.75" cy="217.28" r="39.37"/><rect class="cls-23" x="1680.5" y="387.5" width="18" height="192"/><rect class="cls-23" x="1641.5" y="271.5" width="18" height="108"/><rect class="cls-23" x="1765.5" y="218.5" width="18" height="161"/><rect class="cls-23" x="1790.5" y="387.5" width="18" height="192"/><rect x="1627.5" y="379.5" width="242" height="8"/><rect x="1725.5" y="210.5" width="98" height="8"/></svg>
