<svg id="Layer_1" data-name="Layer 1" xmlns="http://www.w3.org/2000/svg" width="1400" height="800" viewBox="0 0 1400 800"><defs><style>.cls-1{fill:#ed1c24;}.cls-2{fill:#c1272d;}.cls-3{opacity:0.78;}.cls-4{fill:#fcee21;stroke-width:13px;}.cls-10,.cls-11,.cls-12,.cls-4,.cls-8,.cls-9{stroke:#000;stroke-miterlimit:10;}.cls-5,.cls-7{fill:#f7931e;}.cls-5{stroke:#fbb03b;stroke-linejoin:round;}.cls-10,.cls-11,.cls-5,.cls-9{stroke-linecap:round;}.cls-12,.cls-5,.cls-9{stroke-width:10px;}.cls-6{fill:#fbb03b;}.cls-10,.cls-11,.cls-12,.cls-9{fill:none;}.cls-10{stroke-width:11px;}.cls-11{stroke-width:14px;}.cls-13{fill:#b3b3b3;}.cls-14{opacity:0.62;}</style></defs><title>Game over skærm</title><path class="cls-1" d="M1208,495.53H187V372a98.37,98.37,0,0,1,98.37-98.37h824.26A98.37,98.37,0,0,1,1208,372Z"/><path class="cls-1" d="M1175.49,657.21H218.55A32.54,32.54,0,0,1,186,624.68V495.53H1208V624.68A32.53,32.53,0,0,1,1175.49,657.21Z"/><path class="cls-2" d="M186,495.53H697V444.17a35,35,0,0,0-35-35H239.72A53.69,53.69,0,0,0,186,462.86Z"/><path class="cls-2" d="M1208,495.53H697V444.17a35,35,0,0,1,35-35h422.31A53.69,53.69,0,0,1,1208,462.86Z"/><rect class="cls-2" x="160.02" y="405.15" width="72" height="253.06"/><ellipse class="cls-2" cx="166.52" cy="399.63" rx="66.5" ry="66.78"/><rect class="cls-2" x="1150.02" y="405.15" width="72" height="253.06"/><ellipse class="cls-2" cx="1215.52" cy="399.63" rx="66.5" ry="66.78"/><g class="cls-3"><rect class="cls-4" x="40.74" y="42.61" width="1312.53" height="741.79" rx="137.07"/></g><path class="cls-5" d="M448.59,697c-17.92-25.61-8.47-111.17,35.17-221.28,49.38-124.6,106.73-208.43,127.45-229.76a44.48,44.48,0,0,1,26.68-13.38,44,44,0,0,1,25.23,4.72c48.93,8.78,85.11,24.22,108.69,36.47s43.84,26.15,59,36.56c0,0,28.69,19.7,57.17,43.28,38.36,31.77,100,94.14,169,181.25A405.52,405.52,0,0,1,955.85,637.45c-13.43,9.42-72.21,49.38-185.34,70.73C643.61,732.12,530.3,717.17,448.59,697Z"/><path class="cls-6" d="M754.77,257.82a405.71,405.71,0,0,1,107.54-72.08A427.3,427.3,0,0,1,987.66,150.2a16.65,16.65,0,0,1,22.88,17.61,545.4,545.4,0,0,1,.71,127.24,520.38,520.38,0,0,1-34.66,137.14c-30.19-28.65-64.13-58.51-102-88.55C832.94,310.65,792.61,282.24,754.77,257.82Z"/><path class="cls-7" d="M773,261.07a318.67,318.67,0,0,1,84.55-56.68,335.81,335.81,0,0,1,98.57-27.94,13.08,13.08,0,0,1,18,13.84,429.09,429.09,0,0,1,.56,100,409,409,0,0,1-27.26,107.83c-23.74-22.52-50.43-46-80.23-69.62C834.46,302.61,802.74,280.27,773,261.07Z"/><ellipse class="cls-8" cx="610.67" cy="465.65" rx="25.23" ry="37.42" transform="translate(-108.68 196.79) rotate(-16.83)"/><ellipse class="cls-8" cx="716.3" cy="439.87" rx="26.32" ry="37.42" transform="translate(-96.61 226) rotate(-16.81)"/><path class="cls-9" d="M905.27,556.48c-10.13-12.84-26.38-25.48-54.5-29.64-32.53-4.82-53.68,7.9-62.18,10.72"/><path class="cls-9" d="M887.14,574.43c-8.54-11.12-22.34-22.12-46.39-26-27.83-4.47-46.09,6.21-53.41,8.53"/><path class="cls-9" d="M839.11,570.51c-27.89-4.12-46,6.79-53.3,9.2"/><path class="cls-9" d="M885.82,595.9c-8.68-11-22.62-21.83-46.71-25.39"/><path class="cls-10" d="M583,553.5c-16-3-36.56-1.87-60.5,13.5-27.71,17.79-35.38,41.32-40,49"/><path class="cls-10" d="M581,579c-13.71-2.76-31.31-2-52,10.94-23.94,15-30.75,35-34.75,41.61"/><path class="cls-10" d="M542.19,607.66c-23.75,15.25-30.31,35.42-34.23,42"/><path class="cls-10" d="M594,596.07c-13.74-2.59-31.33-1.59-51.85,11.59"/><path class="cls-11" d="M724.15,381.11c-17.28,2.17-37.77,10.07-57.13,33.54"/><path class="cls-11" d="M632.56,419.84c-15.13-8.68-36.24-14.71-65.75-7.59"/><path class="cls-6" d="M474.08,479A406.65,406.65,0,0,1,388.25,382,431.16,431.16,0,0,1,336,262.13a16.39,16.39,0,0,1-.14-16.72A16.06,16.06,0,0,1,350.25,237a539.75,539.75,0,0,1,125.41-18.15,514.6,514.6,0,0,1,140,15.69c-24.12,34-48.92,71.81-73.37,113.64C515.49,394.05,493,438.06,474.08,479Z"/><path class="cls-7" d="M485.74,447.45a310.57,310.57,0,0,1-65.55-74.15,329.35,329.35,0,0,1-39.89-91.5,12.51,12.51,0,0,1-.1-12.76,12.28,12.28,0,0,1,11-6.46,412.3,412.3,0,0,1,95.77-13.86,393.27,393.27,0,0,1,106.93,12c-18.42,25.94-37.36,54.85-56,86.78C517.36,382.54,500.17,416.16,485.74,447.45Z"/><path class="cls-12" d="M730.88,515.81c-34.65,22.62-81.13,30.45-103.92,22.34"/><path class="cls-12" d="M740,580.23c-19.77,36.45-41.63-4-55.55-43.06"/><path class="cls-12" d="M654.76,607.13c34.83,22.35,39.77-29.56,26.59-68.89"/><path class="cls-13" d="M691.65,595.37c-.9,24.53,22.61,39.64,44.28,42.94,25.17,3.83,54.34-4.48,77.28,9.3,10.68,6.41,16.3,16,21.33,27,4.77,10.45,11.27,18.91,21.87,23.92s22.24,6.64,33.77,7.74a209.59,209.59,0,0,0,44.51-.52c6.68-.78,13.37-2.36,20.11-2.46,7.06-.1,11.49,2.55,15,8.7,7.47,13.08,12.61,27.74,16.56,42.23,2,7.44,13.61,4.28,11.57-3.19a224.37,224.37,0,0,0-14-37.7c-5.08-10.63-11.15-20.08-23.77-21.71-5.48-.71-10.89,0-16.31.82-7.55,1.12-15.06,2.07-22.69,2.47a190.94,190.94,0,0,1-41.51-2c-10.33-1.73-21.79-4.74-28.62-13.31-3.28-4.14-5.27-9.23-7.44-14a69,69,0,0,0-9.67-15.95c-17-20.4-43-22.39-67.77-22.07-14.41.19-30.23.9-43.58-5.49-10.45-5-19.36-14.62-18.92-26.77.28-7.73-11.72-7.71-12,0Z"/><path class="cls-14" d="M344.57,188.49a44.24,44.24,0,0,1-10.93,9.75,71.36,71.36,0,0,1-13.95,6.91,87.5,87.5,0,0,1-15.26,4.11,85.86,85.86,0,0,1-14.89,1.38,63.27,63.27,0,0,1-25.16-4.93,59.65,59.65,0,0,1-19.84-13.58,62.73,62.73,0,0,1-13-20.39,67.17,67.17,0,0,1-4.71-25.27,86.9,86.9,0,0,1,2.35-20.2,86,86,0,0,1,6.74-18.64,78.08,78.08,0,0,1,10.7-16.09A69.17,69.17,0,0,1,260.89,78.9a67.9,67.9,0,0,1,17.53-8.23,68.9,68.9,0,0,1,20.35-2.93q4.05,0,8.67.33a89,89,0,0,1,9.19,1.14,63.07,63.07,0,0,1,8.91,2.22,41.33,41.33,0,0,1,7.91,3.5l-2.64,36.15a48.27,48.27,0,0,0-10.88-2.7,88,88,0,0,0-11-.71A42.07,42.07,0,0,0,294.86,110a33.82,33.82,0,0,0-11.4,6.67,31.47,31.47,0,0,0-7.68,10.6,33.94,33.94,0,0,0-2.83,14.1,34.36,34.36,0,0,0,1.32,9.52,24.53,24.53,0,0,0,4,8.13,20.58,20.58,0,0,0,6.69,5.73,19.13,19.13,0,0,0,9.28,2.18,30.79,30.79,0,0,0,7.4-.95,16.17,16.17,0,0,0,6.55-3.22l.37-7.38L286,155l1.13-28.39q14-.46,28.08-.8t28.27-.9Z"/><path class="cls-14" d="M470.57,199.66l-46.74,6.05-5.66-21.38H396.69L392,205.71,343.91,201l37.51-126,52.4-2.65Zm-55.79-44.29-7.16-32.93-7,32.93Z"/><path class="cls-14" d="M618.24,69.82l-8.67,138.92-43,1.9.38-73.25-19.42,59.05H531l-14.89-52.81L515.9,205l-43.54,1.32L474.24,75.5l48.44-1.89,19.23,62.64,25.63-66.43Z"/><path class="cls-14" d="M714.36,71.33q-.55,8.91-1,17.61t-1.23,17.6l-40,2.08-.95,11.92h28.09l-2.08,29.34-28.27,1L668,164.64h40q-.57,10.41-1.18,20.68t-1.09,20.58l-81.23,1.9,3-136.47Z"/><path class="cls-14" d="M871.74,141a68.81,68.81,0,0,1-2,16.61,65,65,0,0,1-5.7,15,62,62,0,0,1-9,12.83,57.38,57.38,0,0,1-12,10A58,58,0,0,1,812,204.2,59,59,0,0,1,795.83,202a61.55,61.55,0,0,1-14.37-6.11,57.86,57.86,0,0,1-12.11-9.46,58.53,58.53,0,0,1-9.23-12.31,63.1,63.1,0,0,1-5.94-14.52,61.26,61.26,0,0,1-2.12-16.18,66.36,66.36,0,0,1,7.68-31,64.08,64.08,0,0,1,9-12.87,59.46,59.46,0,0,1,11.83-10.13,56.2,56.2,0,0,1,14.18-6.62,54,54,0,0,1,16.11-2.37,70,70,0,0,1,24.93,4.26A52.94,52.94,0,0,1,867.36,116,68.26,68.26,0,0,1,871.74,141Zm-41.84,2.47a26.64,26.64,0,0,0-1.18-7.91,21.63,21.63,0,0,0-3.44-6.81,17.66,17.66,0,0,0-5.61-4.83,15.64,15.64,0,0,0-7.68-1.84,18.69,18.69,0,0,0-7.91,1.61,18.11,18.11,0,0,0-6,4.4,19.4,19.4,0,0,0-3.81,6.53,23.52,23.52,0,0,0-1.32,7.9,28.7,28.7,0,0,0,1.13,7.95,23.44,23.44,0,0,0,3.39,7.19,18.12,18.12,0,0,0,5.61,5.21,15,15,0,0,0,7.77,2,17.68,17.68,0,0,0,8-1.75,17.86,17.86,0,0,0,6-4.73,21.76,21.76,0,0,0,3.77-6.86A24.82,24.82,0,0,0,829.9,143.45Z"/><path class="cls-14" d="M988,75.12,953.54,206.85,906.8,209.5l-42.41-133,44.67-4.17,18.09,77.6,17.53-77.6Z"/><path class="cls-14" d="M1080.29,71.33q-.57,8.91-1,17.61t-1.22,17.6l-40,2.08-.94,11.92h28.08l-2.07,29.34-28.27,1-.94,13.81h40q-.56,10.41-1.18,20.68t-1.08,20.58l-81.23,1.9,3-136.47Z"/><path class="cls-14" d="M1193.94,116.57a64.66,64.66,0,0,1-1.27,13.39,40.06,40.06,0,0,1-4,11,39.53,39.53,0,0,1-7.06,9.28,63.14,63.14,0,0,1-10.46,8.14l22.42,40.12-42.4,8.33-14.52-40.31-11.68.38-1.7,39.36h-40.52q.46-21.57.9-43t1-43q.2-10.89.38-21.58t.76-21.58a124.13,124.13,0,0,1,13-4.07,120,120,0,0,1,12.86-2.5q6.47-.9,13.1-1.24t13.62-.33a72.86,72.86,0,0,1,20.78,3A53.82,53.82,0,0,1,1176.88,81a44.83,44.83,0,0,1,12.4,14.85A44,44,0,0,1,1193.94,116.57Zm-42.22,3a23.43,23.43,0,0,0-1.08-7.29,16.16,16.16,0,0,0-3.2-5.72,14.77,14.77,0,0,0-5.28-3.79,18.54,18.54,0,0,0-7.4-1.37,29.56,29.56,0,0,0-3.68.23,25,25,0,0,0-3.48.72l-1.51,35.2h2.26a34.41,34.41,0,0,0,8.25-1,24.79,24.79,0,0,0,7.54-3.22,17.74,17.74,0,0,0,5.46-5.58A15.07,15.07,0,0,0,1151.72,119.6Z"/></svg>