<svg id="Layer_1" data-name="Layer 1" xmlns="http://www.w3.org/2000/svg" width="840" height="500" viewBox="0 0 840 500"><defs><style>.cls-1{opacity:0.78;}.cls-2{fill:#fcee21;stroke:#000;stroke-miterlimit:10;stroke-width:13px;}</style></defs><title>Intro 2</title><g class="cls-1"><rect class="cls-2" x="46.31" y="43.53" width="737.98" height="417.08" rx="137.07"/></g><path d="M232.63,189.51h6.21v19.25h11.44V189.51h6.22v44.55h-6.22V213.22H238.84v20.84h-6.21Z"/><path d="M267.69,232.69a9.53,9.53,0,0,1-3.6-5.23,30.19,30.19,0,0,1-1-8.41V189.51H269v29.81a19.51,19.51,0,0,0,1.18,7.7c.79,1.76,2.37,2.64,4.76,2.64s4-.88,4.75-2.64a19.48,19.48,0,0,0,1.19-7.7V189.51h5.88v29.54a30.19,30.19,0,0,1-1,8.41,9.59,9.59,0,0,1-3.57,5.23,15.09,15.09,0,0,1-14.55,0Z"/><path d="M295.3,231.09q-2.94-3.47-3.27-9.51l5.5-1.49A17.2,17.2,0,0,0,299.2,227a4.87,4.87,0,0,0,4.65,2.64,4.77,4.77,0,0,0,3.66-1.34,5.58,5.58,0,0,0,1.24-3.88,8.35,8.35,0,0,0-1.16-4.57,19.55,19.55,0,0,0-3.68-4l-7.48-6.6a12.48,12.48,0,0,1-3.28-4.26,13.73,13.73,0,0,1-1-5.59q0-4.89,2.8-7.59a10.61,10.61,0,0,1,7.65-2.69c3.52,0,6.17.93,8,2.8s2.88,4.77,3.25,8.69l-5.28,1.43a14.06,14.06,0,0,0-1.52-6c-.82-1.41-2.3-2.12-4.42-2.12a5,5,0,0,0-3.63,1.24,4.86,4.86,0,0,0-1.27,3.66,7.47,7.47,0,0,0,.66,3.32,8.88,8.88,0,0,0,2.26,2.73l7.53,6.6a22.48,22.48,0,0,1,4.65,5.61,13.61,13.61,0,0,1,1.73,6.87,10.27,10.27,0,0,1-3,7.76,10.67,10.67,0,0,1-7.7,2.86Q298.24,234.56,295.3,231.09Z"/><path d="M319.36,189.51h6.22v21l10.23-21h5.77l-8.8,19.64L343,234.06H337l-8.52-20.9-2.86,5.17v15.73h-6.22Z"/><path d="M366.22,189.51h6l9.52,44.55h-5.89l-2-11.22h-9.08l-2.14,11.22h-5.83ZM373,218.39l-3.73-20.08-3.69,20.08Z"/><path d="M389.38,194.13h-7.54v-4.62H402.9v4.62h-7.31v39.93h-6.21Z"/><path d="M421.74,231.09q-2.94-3.47-3.27-9.51l5.5-1.49a17,17,0,0,0,1.68,6.93,4.84,4.84,0,0,0,4.64,2.64,4.74,4.74,0,0,0,3.66-1.34,5.53,5.53,0,0,0,1.24-3.88,8.35,8.35,0,0,0-1.16-4.57,19.27,19.27,0,0,0-3.68-4l-7.48-6.6A12.44,12.44,0,0,1,419.6,205a13.72,13.72,0,0,1-1-5.59q0-4.89,2.8-7.59a10.61,10.61,0,0,1,7.65-2.69q5.28,0,8,2.8t3.25,8.69L435,202.05a14.08,14.08,0,0,0-1.51-6c-.83-1.41-2.3-2.12-4.43-2.12a5,5,0,0,0-3.63,1.24,4.9,4.9,0,0,0-1.27,3.66,7.47,7.47,0,0,0,.66,3.32,9,9,0,0,0,2.26,2.73l7.53,6.6a22.05,22.05,0,0,1,4.65,5.61,13.51,13.51,0,0,1,1.73,6.87,10.27,10.27,0,0,1-3,7.76,10.66,10.66,0,0,1-7.7,2.86Q424.68,234.56,421.74,231.09Z"/><path d="M445.8,189.51h11.06c3.85,0,6.64,1.05,8.39,3.14s2.61,5.15,2.61,9.18c0,3.63-.94,6.46-2.81,8.47s-4.58,3-8.14,3H452v20.73H445.8Zm9.08,19.36a12,12,0,0,0,4.26-.6,3.87,3.87,0,0,0,2.17-2.09,10.94,10.94,0,0,0,.66-4.29,18.44,18.44,0,0,0-.49-5,3.49,3.49,0,0,0-2-2.25,11.91,11.91,0,0,0-4.6-.66H452v14.9Z"/><path d="M472.53,189.51h6.11v44.55h-6.11Z"/><path d="M487.8,231.09q-3-3.47-3.28-9.51l5.5-1.49A17.36,17.36,0,0,0,491.7,227a4.86,4.86,0,0,0,4.65,2.64,4.77,4.77,0,0,0,3.66-1.34,5.58,5.58,0,0,0,1.23-3.88,8.35,8.35,0,0,0-1.15-4.57,19.35,19.35,0,0,0-3.69-4l-7.48-6.6a12.57,12.57,0,0,1-3.27-4.26,13.72,13.72,0,0,1-1-5.59q0-4.89,2.81-7.59a10.6,10.6,0,0,1,7.64-2.69q5.28,0,8,2.8c1.79,1.87,2.88,4.77,3.24,8.69L501,202.05a14.08,14.08,0,0,0-1.51-6q-1.23-2.11-4.43-2.12a5,5,0,0,0-3.63,1.24,4.9,4.9,0,0,0-1.26,3.66,7.47,7.47,0,0,0,.66,3.32,9,9,0,0,0,2.25,2.73l7.54,6.6a22.48,22.48,0,0,1,4.65,5.61,13.61,13.61,0,0,1,1.73,6.87,10.27,10.27,0,0,1-3,7.76,10.67,10.67,0,0,1-7.7,2.86Q490.74,234.56,487.8,231.09Z"/><path d="M526.46,230.84q-2.84-3.71-2.83-10.75V203.21q0-6.93,2.86-10.51t9.35-3.57q6.48,0,9.32,3.6T548,203.21v16.94q0,6.93-2.86,10.67t-9.29,3.74Q529.29,234.56,526.46,230.84Zm14-3.21a12.31,12.31,0,0,0,1.21-6.16V201.94q0-4.06-1.21-6T535.84,194q-3.52,0-4.73,1.95t-1.21,6v19.53a12.31,12.31,0,0,0,1.21,6.16q1.2,2,4.73,2T540.51,227.63Z"/><path d="M556.05,231.09q-2.94-3.47-3.27-9.51l5.5-1.49A17.2,17.2,0,0,0,560,227a4.87,4.87,0,0,0,4.65,2.64,4.77,4.77,0,0,0,3.66-1.34,5.58,5.58,0,0,0,1.24-3.88,8.35,8.35,0,0,0-1.16-4.57,19.55,19.55,0,0,0-3.68-4l-7.48-6.6A12.48,12.48,0,0,1,553.9,205a13.89,13.89,0,0,1-1-5.59q0-4.89,2.8-7.59a10.61,10.61,0,0,1,7.65-2.69c3.52,0,6.17.93,8,2.8s2.88,4.77,3.25,8.69l-5.28,1.43a14.06,14.06,0,0,0-1.52-6c-.82-1.41-2.3-2.12-4.42-2.12a5,5,0,0,0-3.63,1.24,4.86,4.86,0,0,0-1.27,3.66,7.47,7.47,0,0,0,.66,3.32,8.88,8.88,0,0,0,2.26,2.73l7.53,6.6a22.48,22.48,0,0,1,4.65,5.61,13.61,13.61,0,0,1,1.73,6.87,10.27,10.27,0,0,1-3,7.76,10.67,10.67,0,0,1-7.7,2.86Q559,234.56,556.05,231.09Z"/><path d="M585,194.13h-7.54v-4.62h21.07v4.62h-7.32v39.93H585Z"/><path d="M602.11,189.51h5.94l-2,35H604Zm0,38.5h5.94v6.05h-5.94Z"/><path d="M174.74,255.51H192v4.62H181v14.74h9v4.4h-9v16.34h11.17v4.45H174.74Z"/><path d="M197.12,255.51h6.22v40.1h11.38v4.45h-17.6Z"/><path d="M219,255.51h6.21v40.1h11.39v4.45H219Z"/><path d="M240.79,255.51h17.27v4.62H247v14.74h9v4.4h-9v16.34h11.16v4.45H240.79Z"/><path d="M263.18,255.51h9q6.76,0,9.93,2.78t3.16,9q0,8.58-5.5,10.39l6.33,22.33h-6l-5.83-20.9h-4.84v20.9h-6.21Zm8.58,19.2c2.67,0,4.59-.53,5.74-1.6s1.74-3,1.74-5.77a12.2,12.2,0,0,0-.61-4.32,4.14,4.14,0,0,0-2.14-2.31,10.2,10.2,0,0,0-4.35-.74h-2.75v14.74Z"/><path d="M293.67,297.09q-2.94-3.46-3.27-9.51l5.5-1.49a17,17,0,0,0,1.68,6.93,4.85,4.85,0,0,0,4.65,2.64,4.73,4.73,0,0,0,3.65-1.34,5.53,5.53,0,0,0,1.24-3.88,8.35,8.35,0,0,0-1.15-4.57,19.35,19.35,0,0,0-3.69-4l-7.48-6.6a12.57,12.57,0,0,1-3.27-4.26,13.72,13.72,0,0,1-1-5.59q0-4.89,2.81-7.59a10.6,10.6,0,0,1,7.64-2.69q5.28,0,8,2.8t3.24,8.69l-5.28,1.43a14.08,14.08,0,0,0-1.51-6c-.83-1.41-2.3-2.12-4.43-2.12a5,5,0,0,0-3.63,1.24,4.9,4.9,0,0,0-1.26,3.66,7.47,7.47,0,0,0,.66,3.32,9,9,0,0,0,2.25,2.73l7.54,6.6a22.22,22.22,0,0,1,4.64,5.61,13.52,13.52,0,0,1,1.74,6.87,10.27,10.27,0,0,1-3,7.76,10.67,10.67,0,0,1-7.7,2.86Q296.62,300.56,293.67,297.09Z"/><path d="M330.33,255.51h10.23q6,0,9,2.73t2.91,8.44q0,8.52-6.38,9.4a9,9,0,0,1,5.78,3.71,13.74,13.74,0,0,1,1.81,7.57q0,6-2.83,9.35t-8.61,3.35H330.33Zm9.9,18.59q3.86,0,5.34-1.68c1-1.11,1.48-3,1.48-5.74a8.22,8.22,0,0,0-.91-4.38,4.07,4.07,0,0,0-2.72-1.78,27.67,27.67,0,0,0-5.39-.39h-1.48v14Zm.5,21.51a8.75,8.75,0,0,0,4.26-.86,4.56,4.56,0,0,0,2.12-2.61,15.29,15.29,0,0,0,.6-4.78q0-4.29-1.76-6.41t-5.72-2.12h-3.68v16.78Z"/><path d="M359.15,255.51h6.22v40.1h11.38v4.45h-17.6Z"/><path d="M381.31,255.51h6.11v44.55h-6.11Z"/><path d="M392.42,255.51h5.83l7,32.84L412,255.51h5.67l-9.85,44.55h-5.44Z"/><path d="M422.4,255.51h17.27v4.62H428.61v14.74h9v4.4h-9v16.34h11.17v4.45H422.4Z"/><path d="M444.78,255.51h9q6.76,0,9.93,2.78t3.16,9q0,8.58-5.5,10.39l6.32,22.33h-6l-5.83-20.9H451v20.9h-6.22Zm8.58,19.2q4,0,5.75-1.6c1.16-1.06,1.73-3,1.73-5.77a12.46,12.46,0,0,0-.6-4.32,4.16,4.16,0,0,0-2.15-2.31,10.12,10.12,0,0,0-4.34-.74H451v14.74Z"/><path d="M485.92,255.51h9.68q7.22,0,10.21,3.3t3,10.29v16.39q0,7.36-2.94,11t-9.76,3.6H485.92Zm9.74,40.1c2.16,0,3.73-.42,4.7-1.27a5.59,5.59,0,0,0,1.82-3.43,45.6,45.6,0,0,0,.35-6.58V269.87a27.38,27.38,0,0,0-.46-5.8,4.68,4.68,0,0,0-2-3,8.7,8.7,0,0,0-4.62-1h-3.35v35.48Z"/><path d="M519.12,298.69a9.49,9.49,0,0,1-3.61-5.23,30.19,30.19,0,0,1-1-8.41V255.51h5.94v29.81a19.69,19.69,0,0,0,1.18,7.7q1.18,2.64,4.76,2.64c2.39,0,4-.88,4.76-2.64a19.51,19.51,0,0,0,1.18-7.7V255.51h5.89v29.54a30.19,30.19,0,0,1-1,8.41,9.55,9.55,0,0,1-3.58,5.23,12.25,12.25,0,0,1-7.26,1.87A12.38,12.38,0,0,1,519.12,298.69Z"/><path d="M559.32,297.09q-2.94-3.46-3.27-9.51l5.5-1.49a17.2,17.2,0,0,0,1.67,6.93,4.87,4.87,0,0,0,4.65,2.64,4.74,4.74,0,0,0,3.66-1.34,5.58,5.58,0,0,0,1.24-3.88,8.35,8.35,0,0,0-1.16-4.57,19.55,19.55,0,0,0-3.68-4l-7.48-6.6a12.48,12.48,0,0,1-3.28-4.26,13.89,13.89,0,0,1-1-5.59q0-4.89,2.8-7.59a10.61,10.61,0,0,1,7.65-2.69q5.28,0,8,2.8t3.25,8.69l-5.28,1.43a14.22,14.22,0,0,0-1.51-6q-1.24-2.11-4.43-2.12a5,5,0,0,0-3.63,1.24,4.86,4.86,0,0,0-1.27,3.66,7.47,7.47,0,0,0,.66,3.32,8.88,8.88,0,0,0,2.26,2.73l7.53,6.6a22.05,22.05,0,0,1,4.65,5.61,13.61,13.61,0,0,1,1.73,6.87,10.27,10.27,0,0,1-3,7.76,10.66,10.66,0,0,1-7.7,2.86Q562.26,300.56,559.32,297.09Z"/><path d="M583.38,255.51h11.06q5.77,0,8.38,3.14t2.62,9.18c0,3.63-.94,6.46-2.81,8.47s-4.58,3-8.14,3H589.6v20.73h-6.22Zm9.08,19.36a12,12,0,0,0,4.26-.6,3.87,3.87,0,0,0,2.17-2.09,10.94,10.94,0,0,0,.66-4.29,18.44,18.44,0,0,0-.49-5,3.48,3.48,0,0,0-2-2.25,11.82,11.82,0,0,0-4.59-.66H589.6v14.9Z"/><path d="M610.11,255.51h6.11v44.55h-6.11Z"/><path d="M625.37,297.09q-2.94-3.46-3.27-9.51l5.5-1.49a17,17,0,0,0,1.68,6.93,4.85,4.85,0,0,0,4.65,2.64,4.73,4.73,0,0,0,3.65-1.34,5.53,5.53,0,0,0,1.24-3.88,8.35,8.35,0,0,0-1.15-4.57,19.35,19.35,0,0,0-3.69-4l-7.48-6.6a12.57,12.57,0,0,1-3.27-4.26,13.72,13.72,0,0,1-1-5.59q0-4.89,2.81-7.59a10.58,10.58,0,0,1,7.64-2.69q5.28,0,8,2.8t3.24,8.69l-5.28,1.43a14.08,14.08,0,0,0-1.51-6c-.83-1.41-2.3-2.12-4.43-2.12a5,5,0,0,0-3.63,1.24,4.9,4.9,0,0,0-1.26,3.66,7.47,7.47,0,0,0,.66,3.32,9,9,0,0,0,2.25,2.73l7.54,6.6a22.22,22.22,0,0,1,4.64,5.61,13.52,13.52,0,0,1,1.74,6.87,10.27,10.27,0,0,1-3,7.76,10.67,10.67,0,0,1-7.7,2.86Q628.32,300.56,625.37,297.09Z"/><path d="M654.33,260.13H646.8v-4.62h21.06v4.62h-7.31v39.93h-6.22Z"/></svg>