<svg id="Layer_1" data-name="Layer 1" xmlns="http://www.w3.org/2000/svg" width="840" height="605" viewBox="0 0 840 605"><defs><style>.cls-1,.cls-3{fill:#f7931e;}.cls-2{fill:#fbb03b;}.cls-3{stroke:#fbb03b;stroke-linejoin:round;stroke-width:10px;}.cls-3,.cls-5{stroke-linecap:round;}.cls-10,.cls-4,.cls-5,.cls-9{stroke:#000;stroke-miterlimit:10;}.cls-10,.cls-5,.cls-9{fill:none;}.cls-5,.cls-9{stroke-width:5px;}.cls-6{fill:#0067ff;}.cls-7{fill:#fff;}.cls-8{fill:#ff7bac;}</style></defs><title>Kat våd - mod højre</title><ellipse class="cls-1" cx="574.73" cy="426.92" rx="54.96" ry="53.12"/><path class="cls-1" d="M340.71,495.45a337.79,337.79,0,0,0-92.26,27c-34.2,15.59-25,22.54-42.35,37.28-3.81,1.71-14-2.53-15.14-4s-15.26-7.11-12.23-10.43C190,528,193.17,524.62,215.84,498.47a838.75,838.75,0,0,1,73.13-74,187.25,187.25,0,0,0,51.74,71Z"/><path class="cls-1" d="M556.07,336.71a438.56,438.56,0,0,0,124.11-.56c48.13-7.1,39.44-18.94,66.42-31,5.35-.76,56.6-1.86,57.46.42s-1.09,5.23-6.09,8.24c-20.39,17.32-48.74,39.23-86.64,63.46A1109.73,1109.73,0,0,1,593,442.63a235.65,235.65,0,0,0-36.91-105.92Z"/><path class="cls-1" d="M578,346.57c3.06-23.85,20.46-49.59,42.24-73.83,29-34.79,57.65-49.36,106.71-28.88,21.79.49,14.3-47.58,12.44-48.38s-54-14.85-56.64-11.53c-64.59,9.16-75.06,26.92-102.38,57.32-24.13,28.84-42.06,59.29-55.79,81.34A233.15,233.15,0,0,1,568,335.05C584.33,341.52,565.55,338.18,578,346.57Z"/><path class="cls-1" d="M596.22,355.5a412.61,412.61,0,0,0,77.24,93.9c35.55,32.15,39.79,18.22,66.28,31.26,3.92,3.59,36.52,41.83,35.21,43.89S770,527,764.48,525A816.39,816.39,0,0,1,659.29,498.5,1122.05,1122.05,0,0,1,533,449.06a248.17,248.17,0,0,0,36-41.27A238.56,238.56,0,0,0,596.22,355.5Z"/><path class="cls-1" d="M221.51,331,393.4,251.19C429.31,261.35,479.29,279,531,309.87c51.07,30.51,85.41,63,107.08,87,5.5,3.29,8.06,8.76,6.59,14.09-1.38,5-6.12,9.5-13.53,11.06a785,785,0,0,1-139.5,49.5,847.53,847.53,0,0,1-169.58,24.88Z"/><path class="cls-1" d="M274.22,406.74A338.63,338.63,0,0,0,180.61,429c-35,13.82-26.22,21.23-44.34,35.06-3.89,1.51-13.82-3.25-14.9-4.81s-14.84-7.88-11.63-11c12.14-16.66,15.55-19.85,39.62-44.8a841.77,841.77,0,0,1,77.08-70.13,186.58,186.58,0,0,0,47.78,73.51Z"/><ellipse class="cls-2" cx="573.08" cy="419.73" rx="54.96" ry="53.12"/><path class="cls-2" d="M339.06,488.26a337.94,337.94,0,0,0-92.27,27c-34.2,15.59-25,22.54-42.34,37.28-3.81,1.71-14-2.53-15.15-4s-15.25-7.11-12.22-10.43c11.21-17.26,14.44-20.62,37.11-46.77a838.75,838.75,0,0,1,73.13-74,187.25,187.25,0,0,0,51.74,71Z"/><path class="cls-2" d="M553.6,329.52A438.48,438.48,0,0,0,677.7,329c48.13-7.1,39.44-18.94,66.42-31,5.35-.76,56.6-1.86,57.46.42s-1.09,5.23-6.09,8.24C775.1,324,746.75,345.87,708.85,370.1A1108,1108,0,0,1,590.5,435.44a235.79,235.79,0,0,0-36.9-105.92Z"/><path class="cls-2" d="M576.37,339.38c3.06-23.85,20.45-49.59,42.24-73.83,29-34.79,57.65-49.36,106.71-28.88,21.79.49,14.3-47.58,12.44-48.38s-54-14.85-56.64-11.53c-64.59,9.16-75.06,26.92-102.38,57.32-24.14,28.84-42.06,59.29-55.79,81.34a233.15,233.15,0,0,1,43.38,12.44C582.68,334.33,563.9,331,576.37,339.38Z"/><path class="cls-2" d="M594.57,348.31a412.34,412.34,0,0,0,77.24,93.9c35.55,32.15,39.79,18.22,66.28,31.26,3.92,3.6,36.52,41.83,35.2,43.89s-4.92,2.41-10.46.47a816.39,816.39,0,0,1-105.19-26.52A1123.06,1123.06,0,0,1,531.3,441.87a247.75,247.75,0,0,0,36-41.27A238.56,238.56,0,0,0,594.57,348.31Z"/><path class="cls-2" d="M219.86,323.78,391.74,244c35.92,10.16,85.9,27.79,137.59,58.68,51.07,30.51,85.42,63,107.09,87,5.49,3.29,8.05,8.76,6.58,14.09-1.38,5-6.11,9.5-13.52,11.06A784.88,784.88,0,0,1,490,464.36,847.45,847.45,0,0,1,320.4,489.24Z"/><path class="cls-3" d="M159.55,328.22c-10.89-9.45-15.56-48.1-7.16-101,9.5-59.92,26.93-102.69,34.17-114.2a20.74,20.74,0,0,1,10.8-8.61,21.49,21.49,0,0,1,12-.5,184.76,184.76,0,0,1,53.57,5,268.41,268.41,0,0,1,30.85,10.08s15.2,5.75,30.7,13.23c20.9,10.08,55.65,31.26,96.39,62.59a182.65,182.65,0,0,1-35.5,55.52c-5.16,5.52-27.86,29.12-77.38,50.06C252.48,323.82,199.07,328.79,159.55,328.22Z"/><path class="cls-1" d="M322.25,492.82c-5.47-25.58-7.82-48.71-10.36-90.12-2.5-40.91-.27-71.79,2.32-92.27-.27-4.41.9-7.57,3-8.14s4.62,1.19,7,5.44a629.85,629.85,0,0,1,50.43,74.33,853.65,853.65,0,0,1,49.73,100.28c-15.28.38-31.07,5-48.36,6.12C357.79,489.63,341.26,491.23,322.25,492.82Z"/><path class="cls-1" d="M457.79,475.25c-1.66-10.14-1.26-21.35-.12-38.1A148.29,148.29,0,0,1,465,399.4a3.6,3.6,0,0,1,2.35-3.48c1.23-.32,2.71.24,3.84,1.85a193.2,193.2,0,0,1,25.69,27.62,197.87,197.87,0,0,1,22.05,35.48c-9.25,1-17.66,5.33-28.09,7.84C479.4,471.46,467.7,473.65,457.79,475.25Z"/><path class="cls-1" d="M566.05,472.05c.06-13.31,2-26.6,5.84-47.59a224.08,224.08,0,0,1,13.39-46.09c.42-2.23,1.53-3.72,2.86-3.82s2.61,1,3.45,3.34a280,280,0,0,1,20.53,41.67c8.17,20.55,10.93,45.65,14.26,60.48a121.72,121.72,0,0,1-22.31-7.19c-4.23-1.84-5.73-2.8-7.7-3.44-.27-.09-1.44-1-2.22-.55-4.13,2.39-8.26,2.39-11.57,3.19C579.11,472.89,574.15,473.78,566.05,472.05Z"/><path class="cls-1" d="M577.55,332.12c-5.49,8.74-17.23,17.11-29.21,29.14a157.59,157.59,0,0,1-30.59,24.18c-1.28,1.28-2.86,1.74-4.07,1.19s-1.88-1.86-1.67-3.78a184,184,0,0,1-1-36.91c1.22-17.3,3.1-39.13,6.24-50.43,7.6,5,21.11,13.12,30.58,19.17C557.58,320.9,565.91,324.49,577.55,332.12Z"/><path class="cls-1" d="M271.9,505.28a83.63,83.63,0,0,1-1.48-18.68,66.88,66.88,0,0,1,2.78-17.1,1.6,1.6,0,0,1,1-1.6,1.65,1.65,0,0,1,1.74.8,87.42,87.42,0,0,1,11.87,12.18c5,6.21,8.83,11.2,11.3,15.94-4.13.53-8.78,2.43-13.41,3.67A100.33,100.33,0,0,0,271.9,505.28Z"/><path class="cls-1" d="M680.1,328.26c.89,4.56-.62,13.59-.88,21.16s-1.65,6.12-2.82,10a1.59,1.59,0,0,1-1,1.6,1.66,1.66,0,0,1-1.75-.79,87.07,87.07,0,0,1-11.9-12.16c-5-6.19-8.92-11.06-11.41-15.79,4.13-.55,11.07-.35,15.7-1.6C671.13,329.29,676,330.05,680.1,328.26Z"/><path class="cls-1" d="M586.71,306.42c-1.83-4.29-8.19-18.95-9.53-26.41s.33-6.32.65-10.33a1.59,1.59,0,0,1,.64-1.76,1.69,1.69,0,0,1,1.88.43,89.7,89.7,0,0,1,14.22,9.56c6.21,5.07,4.18,2.15,7.61,6.29A111.15,111.15,0,0,1,594,295.78C590.73,299.76,590.35,303.86,586.71,306.42Z"/><path class="cls-1" d="M604.07,206.84c3.16,3.49,7.33,16.39,11.07,23s1.79,6.08,2.82,10a1.57,1.57,0,0,1,0,1.86,1.67,1.67,0,0,1-1.92.18,91,91,0,0,1-16.63-4.64c-7.57-2.88-13-3.59-17.63-6.45,3.28-2.49,7.42-7.84,10.75-11.19A140.42,140.42,0,0,0,604.07,206.84Z"/><path class="cls-1" d="M705.52,180.27c-.16,4.79-2.66,9.08-4.58,16.64s-2.91,5.78-4.86,9.4a1.63,1.63,0,0,1-1.29,1.38c-.55,0-1.13-.36-1.48-1.2a91.66,91.66,0,0,1-8.55-15c-3.36-7.39-5.84-8.91-7.14-14.24a63.6,63.6,0,0,1,14.88-.8C698.17,176.91,701.5,179.57,705.52,180.27Z"/><path class="cls-1" d="M652.38,235.76c-.66-2.9-.38-10.15-.36-15s.93-3.94,1.6-6.43a1,1,0,0,1,.61-1,1,1,0,0,1,1.13.47,55.8,55.8,0,0,1,7.86,7.56c3.33,3.86,3.81,4,5.49,7-2.63.43-4.63,2.35-7.76,3.66A60.55,60.55,0,0,0,652.38,235.76Z"/><path class="cls-1" d="M691.07,455.58a87.59,87.59,0,0,1-14,12.93,72.1,72.1,0,0,1-15.47,8.73,1.7,1.7,0,0,1-1.91.26,1.56,1.56,0,0,1-.47-1.81,83.48,83.48,0,0,1,2.27-16.59,100.72,100.72,0,0,1,6.63-19,97.13,97.13,0,0,0,10.42,8.23A98.4,98.4,0,0,0,691.07,455.58Z"/><path class="cls-1" d="M680.49,498.36a66,66,0,0,1,8.69-14.18,58.94,58.94,0,0,1,11.45-10.94,1.67,1.67,0,0,1,1.7-.65,1.53,1.53,0,0,1,1,1.44,69.5,69.5,0,0,1,3.56,14.67c.93,6.95,2.52,13.07,2.09,17.7-3.78-1.66-9.47-2.58-14-4C690,500.86,684.91,499.12,680.49,498.36Z"/><path class="cls-1" d="M723.08,361.82a103.77,103.77,0,0,1-7.63-18.55,70.32,70.32,0,0,1-2.78-16.79,1.47,1.47,0,0,1,.4-1.73,1.58,1.58,0,0,1,1.78.38,93.79,93.79,0,0,1,14.2,9,111.84,111.84,0,0,1,14.69,13.29c-3.48,1.38-6.21,4.23-9.92,6.39A80.37,80.37,0,0,0,723.08,361.82Z"/><path class="cls-1" d="M229.69,474.45c3.29,3.37,6.51,8.34,10.5,14.85a68.15,68.15,0,0,1,7.24,15.84,1.57,1.57,0,0,1,0,1.86,1.69,1.69,0,0,1-1.92.25,91.7,91.7,0,0,1-16.8-4.05,102.49,102.49,0,0,1-18.08-8,90.09,90.09,0,0,1,8.9-9.62A83.07,83.07,0,0,1,229.69,474.45Z"/><path class="cls-1" d="M491.67,282.73c-7.6,10.67-21.76,25.13-38.67,39.21a189.74,189.74,0,0,1-43.48,27.32,5.46,5.46,0,0,1-5.88,1,5,5,0,0,1-2.6-5.19,220.43,220.43,0,0,1-3.1-48.48c1-22.49.41-35.44,4.48-49.8,14,4.61,28.61,9.9,43.8,16C462.47,269.27,477.63,276,491.67,282.73Z"/><path class="cls-2" d="M253.5,103.58a186.84,186.84,0,0,1,41.64-42.71,203.53,203.53,0,0,1,53.62-28.44,7.86,7.86,0,0,1,7.78-.73,7.3,7.3,0,0,1,4.53,6.15,238.85,238.85,0,0,1,13.7,56,226.46,226.46,0,0,1-1.45,63.93c-16.82-9.53-35.49-19.22-56-28.59C294.82,118.88,273.38,110.48,253.5,103.58Z"/><path class="cls-1" d="M262.18,103.16a146.81,146.81,0,0,1,32.74-33.59,159.74,159.74,0,0,1,42.16-22.36,6.17,6.17,0,0,1,6.12-.58,5.76,5.76,0,0,1,3.57,4.84,188,188,0,0,1,10.77,44,178.43,178.43,0,0,1-1.14,50.27c-13.23-7.5-27.91-15.12-44-22.48C294.67,115.18,277.81,108.58,262.18,103.16Z"/><path class="cls-1" d="M735.21,185a90.45,90.45,0,0,1,25.53,13.51,94.77,94.77,0,0,1,20.18,20.86,3.58,3.58,0,0,1,1.3,3.47,3.63,3.63,0,0,1-2.38,2.89,123.59,123.59,0,0,1-25.09,13.58A117.77,117.77,0,0,1,724,247c2.5-9,4.84-18.78,6.81-29.4C733,206,734.35,195.05,735.21,185Z"/><ellipse class="cls-4" cx="209.41" cy="209.82" rx="11.73" ry="17.07" transform="matrix(0.84, -0.54, 0.54, 0.84, -79.78, 144.68)"/><ellipse class="cls-4" cx="255.03" cy="187.69" rx="12.24" ry="17.08" transform="translate(-60.95 167.18) rotate(-32.64)"/><path class="cls-5" d="M353.75,219.77c-6-4.62-14.75-8.53-28.05-7.5-15.39,1.2-23.73,9-27.33,11.07"/><path class="cls-5" d="M347.34,229.52c-5.07-4-12.54-7.46-23.95-6.71-13.21.87-20.44,7.44-23.54,9.21"/><path class="cls-5" d="M325,232.7c-13.19,1-20.34,7.68-23.42,9.49"/><path class="cls-5" d="M349,239.12c-5.12-4-12.64-7.31-24-6.42"/><path class="cls-5" d="M206,251.33c-7.65.3-16.92,2.91-26.26,12.12-10.81,10.66-11.85,21.81-13.13,25.67"/><path class="cls-5" d="M207.75,262.76c-6.56.18-14.53,2.31-22.64,10.12-9.38,9-10.39,18.57-11.53,21.87"/><path class="cls-5" d="M193,279.35c-9.27,9.14-10.15,18.69-11.25,22"/><path class="cls-5" d="M215.5,269c-6.56.25-14.5,2.49-22.5,10.39"/><path class="cls-5" d="M224.67,224.05c8.18.22,18.25-1.9,28.9-11.05"/><path class="cls-5" d="M212.31,188.91c-7.3-3.56-17.35-5.78-31-1.87"/><path d="M204,556.2a12.39,12.39,0,0,1-2.55,3.19,13.78,13.78,0,0,1-3.46,2.3.54.54,0,0,1-.52.1.53.53,0,0,1-.36-.39,16.94,16.94,0,0,1-1.33-3.73,15.59,15.59,0,0,1-.35-4.38c1.22.54,2.56,1.08,4,1.59S202.54,555.86,204,556.2Z"/><path d="M193.25,551.45a12.9,12.9,0,0,1-3.52,2.15,14.21,14.21,0,0,1-4.07,1,.54.54,0,0,1-.53-.08.49.49,0,0,1-.19-.48,16.62,16.62,0,0,1,.07-3.95,16,16,0,0,1,1.23-4.23c.95.92,2,1.87,3.22,2.83S192.05,550.67,193.25,551.45Z"/><path d="M184.86,544.17a13.16,13.16,0,0,1-4.16.25,13.84,13.84,0,0,1-4.06-1,.53.53,0,0,1-.43-.32.48.48,0,0,1,.07-.51,17,17,0,0,1,2-3.43,16.15,16.15,0,0,1,3.18-3.13c.38,1.24.84,2.57,1.41,4S184.2,542.92,184.86,544.17Z"/><path d="M767.25,509.05a14.69,14.69,0,0,1-1.32,4.66,15.91,15.91,0,0,1-2.75,4.08.63.63,0,0,1-.54.34.58.58,0,0,1-.57-.28,19.94,19.94,0,0,1-3.24-3.55,19.14,19.14,0,0,1-2.46-4.7c1.6.07,3.35.07,5.21,0A56.83,56.83,0,0,0,767.25,509.05Z"/><path d="M753.14,508.5a15.59,15.59,0,0,1-2.89,4,16.61,16.61,0,0,1-4,2.91.63.63,0,0,1-.62.14.61.61,0,0,1-.45-.45,20.21,20.21,0,0,1-1.78-4.41,18.71,18.71,0,0,1-.63-5.23c1.48.59,3.12,1.18,4.9,1.71C749.59,507.71,751.43,508.16,753.14,508.5Z"/><path d="M740.39,504.13a15.85,15.85,0,0,1-4.49,2.12,17.24,17.24,0,0,1-5,.68.65.65,0,0,1-.62-.16.62.62,0,0,1-.16-.61,19.78,19.78,0,0,1,.63-4.69,18.72,18.72,0,0,1,2-4.88c1,1.2,2.15,2.48,3.45,3.77S739.07,503,740.39,504.13Z"/><path d="M786.37,297.91a15,15,0,0,1,3.2,3.71,15.84,15.84,0,0,1,1.88,4.52.58.58,0,0,1,0,.62.63.63,0,0,1-.56.3,21.72,21.72,0,0,1-4.87.53,21,21,0,0,1-5.39-.75c1-1.24,2-2.62,3-4.14C784.67,301,785.59,299.41,786.37,297.91Z"/><path d="M777.82,308.77a14.8,14.8,0,0,1,1.69,4.55,15.45,15.45,0,0,1,.15,4.86.61.61,0,0,1-.23.58.64.64,0,0,1-.64.09,21.18,21.18,0,0,1-4.76-1.12,19.89,19.89,0,0,1-4.8-2.49c1.36-.83,2.79-1.8,4.27-2.9S776.56,309.92,777.82,308.77Z"/><path d="M766.81,316.36a14.61,14.61,0,0,1-.78,4.77,15.93,15.93,0,0,1-2.28,4.34.61.61,0,0,1-.5.39.61.61,0,0,1-.6-.21,21.33,21.33,0,0,1-3.62-3.19,19.55,19.55,0,0,1-3-4.42c1.6-.1,3.34-.28,5.18-.56C763.27,317.17,765.13,316.78,766.81,316.36Z"/><path class="cls-2" d="M272.56,399.55A338.71,338.71,0,0,0,179,421.76c-35,13.82-26.21,21.23-44.33,35.06-3.89,1.51-13.82-3.25-14.9-4.81s-14.84-7.88-11.63-11c12.14-16.66,15.54-19.85,39.61-44.8A843.06,843.06,0,0,1,224.79,326a186.41,186.41,0,0,0,47.77,73.51Z"/><path class="cls-2" d="M148.32,229.65a190.61,190.61,0,0,1-49.48-34A194.91,194.91,0,0,1,62.35,148.2a7.2,7.2,0,0,1-1.82-7.35,7.44,7.44,0,0,1,5.68-5.19,260,260,0,0,1,55.48-20.78,250.62,250.62,0,0,1,65.72-7.38c-7.47,17.42-14.84,36.62-21.63,57.53C158.33,188,152.66,209.67,148.32,229.65Z"/><path class="cls-1" d="M150.33,214.55a145.55,145.55,0,0,1-37.79-26,149.16,149.16,0,0,1-27.86-36.23,5.5,5.5,0,0,1-1.39-5.62,5.69,5.69,0,0,1,4.34-4A197.91,197.91,0,0,1,130,126.9a191.25,191.25,0,0,1,50.18-5.63c-5.7,13.3-11.33,28-16.51,43.93A510.32,510.32,0,0,0,150.33,214.55Z"/><path class="cls-1" d="M202.88,344.15a86.77,86.77,0,0,1,11.7,14.94,68.46,68.46,0,0,1,7.23,15.84,1.59,1.59,0,0,1,.05,1.87,1.71,1.71,0,0,1-1.92.24,91.7,91.7,0,0,1-16.8-4.05,155.55,155.55,0,0,1-22.21-9.58A131.29,131.29,0,0,0,192.5,353C196,349.22,200.41,347.79,202.88,344.15Z"/><path class="cls-1" d="M171.27,425.61a83.37,83.37,0,0,1-4.55-18.21,67.17,67.17,0,0,1-.09-17.32,1.58,1.58,0,0,1,.73-1.72,1.67,1.67,0,0,1,1.85.51,89.26,89.26,0,0,1,13.73,10.2c6,5.35,12.12,11.17,15.34,15.47a109.74,109.74,0,0,0-13.22,4.79C180.26,421.46,175,423.23,171.27,425.61Z"/><path class="cls-1" d="M397.56,245.85A85.6,85.6,0,0,1,408,230.05,71,71,0,0,1,420.82,218a1.71,1.71,0,0,1,1.8-.7,1.58,1.58,0,0,1,.9,1.65,84.64,84.64,0,0,1,1.92,16.64c.14,7.86.07,16.19-.89,21.41a110,110,0,0,0-12.75-5.89C406.89,249.24,401.94,246.82,397.56,245.85Z"/><path class="cls-1" d="M391,181a86.73,86.73,0,0,1,13-13.88,71.61,71.61,0,0,1,14.76-9.81,1.7,1.7,0,0,1,1.89-.39,1.56,1.56,0,0,1,.6,1.77,83.19,83.19,0,0,1-1,16.71c-1.23,7.77-2.74,16-4.6,21a107.8,107.8,0,0,0-11.54-7.87C399.59,185.83,395.14,182.64,391,181Z"/><path class="cls-1" d="M367.84,169.8a87.16,87.16,0,0,1,13-13.89,72,72,0,0,1,14.76-9.81,1.72,1.72,0,0,1,1.89-.39,1.57,1.57,0,0,1,.6,1.77,83.15,83.15,0,0,1-1,16.71c-1.23,7.78-2.74,16-4.6,21A106.36,106.36,0,0,0,381,177.28C376.45,174.65,372,171.46,367.84,169.8Z"/><path class="cls-1" d="M352.71,117.31a92.61,92.61,0,0,1,19.39.33,73.43,73.43,0,0,1,17.36,4.28A1.65,1.65,0,0,1,391,123a1.58,1.58,0,0,1-1,1.61,89.25,89.25,0,0,1-13.67,10.27c-6.86,4.23-14.24,8.53-19.35,10.46a101,101,0,0,0-1.47-13.58C354.61,126.77,354.16,121.43,352.71,117.31Z"/><path class="cls-1" d="M352.71,96.54a92.61,92.61,0,0,1,19.39.33,73.43,73.43,0,0,1,17.36,4.28,1.65,1.65,0,0,1,1.54,1.11,1.57,1.57,0,0,1-1,1.61,89.25,89.25,0,0,1-13.67,10.27c-6.86,4.23-14.24,8.53-19.35,10.46A100.68,100.68,0,0,0,355.53,111C354.61,106,354.16,100.66,352.71,96.54Z"/><path class="cls-1" d="M352.53,71.32a91.74,91.74,0,0,1,19.38,0,73.59,73.59,0,0,1,17.44,4,1.65,1.65,0,0,1,1.56,1.08A1.56,1.56,0,0,1,390,78a89,89,0,0,1-13.48,10.51c-6.79,4.34-14.09,8.76-19.16,10.78a100.87,100.87,0,0,0-1.72-13.55C354.59,80.74,354,75.41,352.53,71.32Z"/><path class="cls-1" d="M342.8,47a91.73,91.73,0,0,1,19.38.32,73.93,73.93,0,0,1,17.36,4.28,1.65,1.65,0,0,1,1.54,1.12c.12.54-.19,1.16-1,1.6a88.41,88.41,0,0,1-13.66,10.28c-6.87,4.22-14.24,8.52-19.36,10.45a99.09,99.09,0,0,0-1.47-13.57C344.69,56.48,344.24,51.14,342.8,47Z"/><path class="cls-1" d="M316.76,60.73a80.06,80.06,0,0,1-3.35-18.49,65.65,65.65,0,0,1,1.23-17.43,1.62,1.62,0,0,1,.88-1.71,1.7,1.7,0,0,1,1.88.58,87.77,87.77,0,0,1,13.47,10.77c5.77,5.61,11.72,11.7,14.74,16.14a119.79,119.79,0,0,0-14.08,4.33C326.4,56.89,320.84,58.47,316.76,60.73Z"/><path class="cls-1" d="M293.62,76.26a82.11,82.11,0,0,1-8.69-16.79,65.83,65.83,0,0,1-4-17,1.59,1.59,0,0,1,.34-1.88,1.71,1.71,0,0,1,2,0,88.92,88.92,0,0,1,16.1,6.59c7.19,3.77,14.7,8,18.9,11.37a118.25,118.25,0,0,0-12.2,8C301.72,69.91,296.86,73,293.62,76.26Z"/><path class="cls-1" d="M268.83,97a81.12,81.12,0,0,1-8.69-16.79,66.44,66.44,0,0,1-4-17,1.64,1.64,0,0,1,.34-1.89,1.76,1.76,0,0,1,2,0,90.71,90.71,0,0,1,16.1,6.59c7.19,3.78,14.69,8,18.9,11.38a118.25,118.25,0,0,0-12.2,8.05C276.92,90.68,272.07,93.73,268.83,97Z"/><path class="cls-1" d="M214.85,117.92a80,80,0,0,1,.68-18.77,66.43,66.43,0,0,1,4.92-16.81,1.53,1.53,0,0,1,3-.55A85.3,85.3,0,0,1,234.27,95c4.45,6.64,9,13.78,11,18.73a121.4,121.4,0,0,0-14.7,1.43C225.1,116.08,219.33,116.52,214.85,117.92Z"/><path class="cls-1" d="M196.16,124.11a80.12,80.12,0,0,1-4.11-18.35,65.38,65.38,0,0,1,.5-17.46,1.64,1.64,0,0,1,.81-1.75,1.73,1.73,0,0,1,1.9.51A88.07,88.07,0,0,1,209.17,97.3c6,5.38,12.19,11.23,15.39,15.55a121.61,121.61,0,0,0-13.88,4.88C205.63,119.89,200.14,121.69,196.16,124.11Z"/><path class="cls-1" d="M145.64,125.24a80.29,80.29,0,0,1,3-18.56,66.86,66.86,0,0,1,6.92-16.14,1.53,1.53,0,0,1,3-.21,84.65,84.65,0,0,1,9.2,14.37c3.61,7.1,7.23,14.7,8.62,19.85a120.88,120.88,0,0,0-14.77-.25C156.05,124.58,150.26,124.36,145.64,125.24Z"/><path class="cls-1" d="M115.76,136.78a79.69,79.69,0,0,1-.19-18.78,66.2,66.2,0,0,1,4.13-17,1.66,1.66,0,0,1,1.16-1.55,1.69,1.69,0,0,1,1.76.87,85.49,85.49,0,0,1,11.48,12.75c4.75,6.44,9.6,13.37,11.83,18.23a120.72,120.72,0,0,0-14.62,2.07C125.92,134.5,120.16,135.19,115.76,136.78Z"/><path class="cls-1" d="M89.92,150.15a81.36,81.36,0,0,1-5.8-17.92A66.1,66.1,0,0,1,83,114.79a1.63,1.63,0,0,1,.64-1.81,1.74,1.74,0,0,1,2,.35,88.4,88.4,0,0,1,14.8,9c6.47,4.84,13.19,10.13,16.78,14.15a121.16,121.16,0,0,0-13.38,6.06C99,145.13,93.66,147.39,89.92,150.15Z"/><path class="cls-1" d="M100.78,171.5a87,87,0,0,1-18.3,6.31,72.65,72.65,0,0,1-18,1.78,1.76,1.76,0,0,1-1.9-.55,1.6,1.6,0,0,1,.28-1.9A84.28,84.28,0,0,1,71.6,162.5c4.74-6.45,9.94-13.15,14-16.77a111.89,111.89,0,0,0,6.8,12.67C95.23,163,97.79,168,100.78,171.5Z"/><path class="cls-1" d="M119.79,193.87a88.15,88.15,0,0,1-18.3,6.31,72.72,72.72,0,0,1-18,1.78,1.76,1.76,0,0,1-1.89-.55,1.6,1.6,0,0,1,.28-1.9,84.31,84.31,0,0,1,8.71-14.65c4.74-6.44,9.94-13.14,14-16.76a111.89,111.89,0,0,0,6.8,12.67C114.24,185.33,116.79,190.36,119.79,193.87Z"/><path class="cls-1" d="M144.65,208.23a85.33,85.33,0,0,1-15.71,11.05,71.45,71.45,0,0,1-16.72,6.62,1.77,1.77,0,0,1-2,0A1.59,1.59,0,0,1,110,224,82.93,82.93,0,0,1,114,207.57c2.67-7.48,5.7-15.33,8.49-19.9A117.78,117.78,0,0,0,132.74,198C136.83,201.56,140.75,205.69,144.65,208.23Z"/><path class="cls-1" d="M160.18,264a87.56,87.56,0,0,1-18.55-5.57,70.9,70.9,0,0,1-15.49-9,1.66,1.66,0,0,1-1.17-1.54c0-.58.52-1.12,1.4-1.35a88.9,88.9,0,0,1,16.06-6.67c7.8-2.4,16.11-4.74,21.58-5.31a110,110,0,0,0-2.44,14.08C161,254,160,259.46,160.18,264Z"/><path class="cls-1" d="M164.85,315.16a88.38,88.38,0,0,1-19.42-.59A72.15,72.15,0,0,1,128,309.89a1.72,1.72,0,0,1-1.56-1.19,1.62,1.62,0,0,1,1-1.66,87.22,87.22,0,0,1,13.64-10.56c6.85-4.33,14.22-8.73,19.33-10.68A111,111,0,0,0,162,300C162.9,305.25,163.38,310.84,164.85,315.16Z"/><path class="cls-1" d="M154.28,390.92a81.6,81.6,0,0,1-10.72-15.66,66.27,66.27,0,0,1-6.1-16.44,1.61,1.61,0,0,1,.1-1.91,1.73,1.73,0,0,1,2-.19,90.48,90.48,0,0,1,16.8,4.66c7.61,2.91,15.58,6.19,20.19,9.09a116.42,116.42,0,0,0-11.11,9.41C161.52,383.67,157.08,387.27,154.28,390.92Z"/><path class="cls-1" d="M134.44,411.69A82.06,82.06,0,0,1,123.72,396a66.57,66.57,0,0,1-6.09-16.44,1.61,1.61,0,0,1,.1-1.91,1.73,1.73,0,0,1,2-.19,89.9,89.9,0,0,1,16.8,4.66c7.61,2.91,15.58,6.19,20.18,9.09a116.35,116.35,0,0,0-11.1,9.41C141.69,404.44,137.25,408,134.44,411.69Z"/><path class="cls-1" d="M113.72,433.87A83,83,0,0,1,101.91,419a66.94,66.94,0,0,1-7.26-16,1.63,1.63,0,0,1,0-1.92,1.74,1.74,0,0,1,2-.32,90.19,90.19,0,0,1,17.1,3.53c7.8,2.39,16,5.13,20.79,7.72A114,114,0,0,0,124,422.11C120.43,426.15,116.26,430,113.72,433.87Z"/><path class="cls-1" d="M158.44,435.79a82,82,0,0,1,11.29,15.28,66.63,66.63,0,0,1,6.7,16.22,1.62,1.62,0,0,1,0,1.91,1.72,1.72,0,0,1-2,.26,89.38,89.38,0,0,1-17-4.08c-7.72-2.64-15.8-5.64-20.51-8.39a115.34,115.34,0,0,0,10.75-9.79C151.47,443.28,155.77,439.53,158.44,435.79Z"/><path class="cls-1" d="M188.29,418.23a80.94,80.94,0,0,1,7,17.53,66.32,66.32,0,0,1,2.26,17.33,1.65,1.65,0,0,1-.53,1.85,1.72,1.72,0,0,1-2-.23,88.3,88.3,0,0,1-15.36-8.07c-6.78-4.43-13.82-9.3-17.67-13.1a118.16,118.16,0,0,0,12.95-6.87C179.59,423.79,184.74,421.21,188.29,418.23Z"/><path class="cls-1" d="M221.62,409.43a80.6,80.6,0,0,1,1.84,18.7,65.92,65.92,0,0,1-2.62,17.28,1.66,1.66,0,0,1-1,1.64,1.72,1.72,0,0,1-1.83-.72,86.58,86.58,0,0,1-12.56-11.76c-5.3-6-10.74-12.54-13.39-17.19a123.38,123.38,0,0,0,14.38-3.26C211.7,412.54,217.37,411.38,221.62,409.43Z"/><path class="cls-1" d="M254.67,402.25a79.82,79.82,0,0,1,1.85,18.69,65.84,65.84,0,0,1-2.63,17.28,1.64,1.64,0,0,1-1,1.64,1.74,1.74,0,0,1-1.84-.72,87.1,87.1,0,0,1-12.55-11.76c-5.3-6-10.74-12.54-13.4-17.19a121.07,121.07,0,0,0,14.39-3.26C244.75,405.35,250.42,404.19,254.67,402.25Z"/><path class="cls-1" d="M219.25,486.73a83.05,83.05,0,0,1-11.08-15.42A66.8,66.8,0,0,1,201.71,455a1.62,1.62,0,0,1,0-1.92,1.75,1.75,0,0,1,2-.23,90.24,90.24,0,0,1,16.9,4.3c7.68,2.75,15.72,5.86,20.39,8.66a115.1,115.1,0,0,0-10.89,9.65C226.33,479.33,222,483,219.25,486.73Z"/><path class="cls-1" d="M196.45,513.06a82.49,82.49,0,0,1-11.31-15.27,67,67,0,0,1-6.72-16.22,1.62,1.62,0,0,1,0-1.91,1.74,1.74,0,0,1,2-.27,91.06,91.06,0,0,1,17,4.07c7.72,2.64,15.8,5.63,20.52,8.37a116.92,116.92,0,0,0-10.75,9.8C203.41,505.55,199.11,509.31,196.45,513.06Z"/><path class="cls-1" d="M247.79,515.53a81.4,81.4,0,0,1,8.24,17,66.21,66.21,0,0,1,3.54,17.13,1.64,1.64,0,0,1-.39,1.88,1.75,1.75,0,0,1-2-.09,89.38,89.38,0,0,1-15.91-7c-7.09-4-14.48-8.32-18.59-11.85a118.29,118.29,0,0,0,12.41-7.74C239.53,521.68,244.47,518.75,247.79,515.53Z"/><path class="cls-1" d="M280.87,503.81a80.47,80.47,0,0,1,3.53,18.46,65.85,65.85,0,0,1-1,17.44,1.64,1.64,0,0,1-.87,1.72,1.72,1.72,0,0,1-1.89-.57A87.94,87.94,0,0,1,267,530.22c-5.83-5.55-11.84-11.58-14.9-16a120.89,120.89,0,0,0,14-4.46C271.27,507.74,276.81,506.11,280.87,503.81Z"/><path class="cls-1" d="M312.74,495a80,80,0,0,1,1.65,18.71,66.08,66.08,0,0,1-2.8,17.25,1.65,1.65,0,0,1-1,1.63,1.71,1.71,0,0,1-1.82-.74A86.65,86.65,0,0,1,296.29,520c-5.24-6.08-10.61-12.64-13.21-17.32a120.18,120.18,0,0,0,14.41-3.13C302.78,498,308.47,496.9,312.74,495Z"/><path class="cls-1" d="M348.27,489.82a79.93,79.93,0,0,1-.67,18.77,66.3,66.3,0,0,1-4.92,16.81,1.67,1.67,0,0,1-1.23,1.5,1.69,1.69,0,0,1-1.71-.95,84.66,84.66,0,0,1-10.88-13.22c-4.46-6.64-9-13.78-11-18.73a121.44,121.44,0,0,0,14.69-1.43C338,491.67,343.8,491.22,348.27,489.82Z"/><path class="cls-1" d="M385.32,486.55a80.1,80.1,0,0,1-3,18.55,66.62,66.62,0,0,1-7,16.11,1.71,1.71,0,0,1-1.41,1.35,1.68,1.68,0,0,1-1.58-1.15,83.66,83.66,0,0,1-9.14-14.4c-3.59-7.11-7.18-14.73-8.55-19.87a120.52,120.52,0,0,0,14.77.29C374.91,487.18,380.71,487.42,385.32,486.55Z"/><path class="cls-1" d="M418.58,484.61a80.27,80.27,0,0,1,.06,18.78,66,66,0,0,1-4.25,17,1.66,1.66,0,0,1-1.17,1.54,1.68,1.68,0,0,1-1.75-.88,85.58,85.58,0,0,1-11.39-12.82c-4.71-6.47-9.51-13.43-11.71-18.3a122.13,122.13,0,0,0,14.63-2C408.4,486.83,414.16,486.18,418.58,484.61Z"/><path class="cls-1" d="M454.11,476.63a79.54,79.54,0,0,1,.07,18.77,66.41,66.41,0,0,1-4.25,17,1.68,1.68,0,0,1-1.17,1.55A1.71,1.71,0,0,1,447,513a85.93,85.93,0,0,1-11.4-12.81c-4.71-6.47-9.51-13.44-11.7-18.31a121.71,121.71,0,0,0,14.62-2C443.94,478.84,449.7,478.19,454.11,476.63Z"/><path class="cls-1" d="M489.65,470.23a79.72,79.72,0,0,1,.06,18.78,66,66,0,0,1-4.24,17,1.68,1.68,0,0,1-1.17,1.55,1.73,1.73,0,0,1-1.76-.89,85.94,85.94,0,0,1-11.39-12.81c-4.71-6.47-9.51-13.44-11.71-18.31a121.86,121.86,0,0,0,14.63-2C479.48,472.45,485.23,471.8,489.65,470.23Z"/><path class="cls-1" d="M516.17,459a80.33,80.33,0,0,1,3.73,18.43,65.9,65.9,0,0,1-.85,17.45,1.65,1.65,0,0,1-.85,1.73,1.74,1.74,0,0,1-1.9-.55,87.05,87.05,0,0,1-13.69-10.51c-5.88-5.49-12-11.46-15.07-15.84a121.68,121.68,0,0,0,14-4.61C506.61,463,512.14,461.34,516.17,459Z"/><path class="cls-1" d="M560.91,476.2a83.47,83.47,0,0,1-13.07,13.89,70.76,70.76,0,0,1-15,9.75,1.75,1.75,0,0,1-1.94.37,1.6,1.6,0,0,1-.68-1.79,82.14,82.14,0,0,1,.56-16.89c1-7.85,2.37-16.12,4.15-21.15a119,119,0,0,0,12.17,8.1C551.86,471.19,556.56,474.47,560.91,476.2Z"/><path class="cls-1" d="M591.86,475.82a80.63,80.63,0,0,1-5.64,18,67.71,67.71,0,0,1-9.21,15,1.73,1.73,0,0,1-1.59,1.15,1.68,1.68,0,0,1-1.41-1.35,83.73,83.73,0,0,1-7-15.48c-2.54-7.52-5-15.54-5.63-20.82A122.47,122.47,0,0,0,576,474.57C581.46,475.05,587.16,476.06,591.86,475.82Z"/><path class="cls-1" d="M633,485.21a82.25,82.25,0,0,1-9.51,16.38,69.11,69.11,0,0,1-12.35,12.75,1.74,1.74,0,0,1-1.8.79,1.63,1.63,0,0,1-1.08-1.61A82,82,0,0,1,604.88,497c-.8-7.87-1.43-16.22-.86-21.51a119,119,0,0,0,13.74,5.24C623,482.3,628.36,484.47,633,485.21Z"/><path class="cls-1" d="M665.24,496.39a82,82,0,0,1-9.51,16.38,69.56,69.56,0,0,1-12.35,12.76,1.73,1.73,0,0,1-1.8.78,1.64,1.64,0,0,1-1.08-1.6,82.92,82.92,0,0,1-3.39-16.58c-.8-7.87-1.43-16.22-.86-21.5A120.88,120.88,0,0,0,650,491.87C655.25,493.48,660.6,495.65,665.24,496.39Z"/><path class="cls-1" d="M699.12,508.38a81.45,81.45,0,0,1-9.51,16.37,68.91,68.91,0,0,1-12.34,12.76,1.77,1.77,0,0,1-1.81.79,1.65,1.65,0,0,1-1.07-1.61A82.11,82.11,0,0,1,671,520.12c-.81-7.88-1.43-16.23-.87-21.51a119.73,119.73,0,0,0,13.74,5.24C689.14,505.46,694.48,507.64,699.12,508.38Z"/><path class="cls-1" d="M732.07,513.9a80.86,80.86,0,0,1-6.26,17.78,67.74,67.74,0,0,1-9.73,14.72,1.7,1.7,0,0,1-1.62,1.09,1.66,1.66,0,0,1-1.37-1.39,83.31,83.31,0,0,1-6.46-15.69c-2.27-7.6-4.47-15.7-4.91-21a121.65,121.65,0,0,0,14.5,2.73C721.7,512.8,727.36,514,732.07,513.9Z"/><path class="cls-1" d="M763.47,519.49a81.28,81.28,0,0,1-6.25,17.78A67.86,67.86,0,0,1,747.49,552a1.72,1.72,0,0,1-1.63,1.09,1.65,1.65,0,0,1-1.36-1.38A83.73,83.73,0,0,1,738,536c-2.28-7.6-4.47-15.7-4.91-21a119.5,119.5,0,0,0,14.49,2.73C753.1,518.39,758.77,519.58,763.47,519.49Z"/><path class="cls-1" d="M686.87,457.57a83.63,83.63,0,0,1,12.44-14.42,70.45,70.45,0,0,1,14.55-10.36,1.77,1.77,0,0,1,1.92-.46,1.63,1.63,0,0,1,.76,1.77,82.74,82.74,0,0,1,.2,16.9c-.7,7.88-1.66,16.2-3.22,21.3A115.75,115.75,0,0,0,701,464.72C696.13,462.2,691.29,459.12,686.87,457.57Z"/><path class="cls-1" d="M658.25,431.33a85.25,85.25,0,0,1,15.36-11.5,72.11,72.11,0,0,1,16.51-7.1,1.78,1.78,0,0,1,2,0,1.58,1.58,0,0,1,.34,1.88,81.61,81.61,0,0,1-3.56,16.54c-2.43,7.56-5.22,15.48-7.87,20.14a116.36,116.36,0,0,0-10.54-10C666.27,437.78,662.23,433.76,658.25,431.33Z"/><path class="cls-1" d="M708.38,375.76a81.37,81.37,0,0,1,8,17.09A65.84,65.84,0,0,1,719.76,410a1.61,1.61,0,0,1-.41,1.87,1.73,1.73,0,0,1-2-.11,89.14,89.14,0,0,1-15.84-7.16c-7-4-14.38-8.48-18.45-12.05a117.06,117.06,0,0,0,12.5-7.61C700.05,381.82,705,378.93,708.38,375.76Z"/><path class="cls-1" d="M734.83,355a81.37,81.37,0,0,1,8,17.09,65.84,65.84,0,0,1,3.34,17.17,1.64,1.64,0,0,1-.41,1.87,1.74,1.74,0,0,1-2-.11A89.41,89.41,0,0,1,728,383.85c-7-4-14.38-8.48-18.45-12.05A117,117,0,0,0,722,364.19C726.49,361.05,731.47,358.17,734.83,355Z"/><path class="cls-1" d="M762.93,337.41a81.49,81.49,0,0,1,8,17.1,66.28,66.28,0,0,1,3.34,17.16,1.65,1.65,0,0,1-.41,1.88,1.74,1.74,0,0,1-2-.11,89.56,89.56,0,0,1-15.83-7.17c-7-4-14.38-8.47-18.46-12a117.7,117.7,0,0,0,12.5-7.61C754.59,343.47,759.57,340.59,762.93,337.41Z"/><path class="cls-1" d="M792.68,313.45a81.37,81.37,0,0,1,8,17.09,65.84,65.84,0,0,1,3.34,17.17,1.64,1.64,0,0,1-.41,1.87,1.74,1.74,0,0,1-2-.11,89.41,89.41,0,0,1-15.83-7.16c-7-4-14.38-8.48-18.45-12.05a119.59,119.59,0,0,0,12.5-7.6C784.35,319.51,789.32,316.63,792.68,313.45Z"/><path class="cls-1" d="M241.47,466a82.09,82.09,0,0,1-11-15.47,66.8,66.8,0,0,1-6.4-16.33,1.63,1.63,0,0,1,.07-1.92,1.72,1.72,0,0,1,2-.22A89.72,89.72,0,0,1,243,436.4c7.67,2.78,15.7,5.92,20.36,8.74a115.94,115.94,0,0,0-10.93,9.6C248.58,458.6,244.2,462.28,241.47,466Z"/><path class="cls-1" d="M179.9,367a82.25,82.25,0,0,1-10.72-15.66,66.31,66.31,0,0,1-6.1-16.45,1.61,1.61,0,0,1,.1-1.91,1.75,1.75,0,0,1,2-.19,89.84,89.84,0,0,1,16.8,4.67c7.61,2.9,15.58,6.18,20.19,9.08A118.07,118.07,0,0,0,191,355.92C187.14,359.71,182.7,363.31,179.9,367Z"/><path class="cls-1" d="M154.47,292.66a87.36,87.36,0,0,1-18.85-4.56,71.46,71.46,0,0,1-16-8.16,1.68,1.68,0,0,1-1.26-1.47A1.64,1.64,0,0,1,119.7,277a88.64,88.64,0,0,1,15.65-7.52c7.65-2.82,15.82-5.6,21.24-6.46A112,112,0,0,0,155,277.25C154.75,282.58,154,288.14,154.47,292.66Z"/><path class="cls-1" d="M425.66,256.24a85.6,85.6,0,0,1,10.42-15.8,70.78,70.78,0,0,1,12.84-12.07,1.71,1.71,0,0,1,1.79-.69,1.57,1.57,0,0,1,.91,1.65A84.42,84.42,0,0,1,453.54,246c.14,7.86.07,16.19-.9,21.41a109.11,109.11,0,0,0-12.74-5.88C435,259.62,430,257.2,425.66,256.24Z"/><path class="cls-1" d="M470.29,278.61A85.17,85.17,0,0,1,480.7,262.8a70.65,70.65,0,0,1,12.85-12.06,1.67,1.67,0,0,1,1.79-.69,1.57,1.57,0,0,1,.91,1.64,84,84,0,0,1,1.91,16.64c.14,7.86.08,16.19-.89,21.41a109.1,109.1,0,0,0-12.74-5.89C479.62,282,474.67,279.57,470.29,278.61Z"/><path class="cls-1" d="M447.14,266.62a86.13,86.13,0,0,1,10.42-15.8,70.65,70.65,0,0,1,12.85-12.06,1.7,1.7,0,0,1,1.79-.7,1.55,1.55,0,0,1,.9,1.65A83.14,83.14,0,0,1,475,256.35c.14,7.86.08,16.18-.89,21.41a109.1,109.1,0,0,0-12.74-5.89C456.48,270,451.53,267.59,447.14,266.62Z"/><path class="cls-1" d="M491.77,289a86.13,86.13,0,0,1,10.42-15.8A70.78,70.78,0,0,1,515,261.12a1.7,1.7,0,0,1,1.79-.69,1.57,1.57,0,0,1,.9,1.65,83,83,0,0,1,1.92,16.63c.14,7.86.08,16.19-.89,21.41A109.88,109.88,0,0,0,506,294.24C501.1,292.38,496.16,290,491.77,289Z"/><path class="cls-1" d="M542.23,287.09a87.22,87.22,0,0,1-13.68-13.27,69,69,0,0,1-9.38-14.75,1.56,1.56,0,0,1-.31-1.84,1.68,1.68,0,0,1,1.86-.49,91.87,91.87,0,0,1,17.21,1.81c8,1.59,16.36,3.47,21.43,5.52a102.83,102.83,0,0,0-8.73,10.73C547.68,279,544.16,283.17,542.23,287.09Z"/><path class="cls-1" d="M559.58,266.33a87.82,87.82,0,0,1-13.68-13.28,69,69,0,0,1-9.38-14.75,1.56,1.56,0,0,1-.31-1.84,1.68,1.68,0,0,1,1.86-.49,91.33,91.33,0,0,1,17.22,1.82c8,1.58,16.36,3.46,21.42,5.51A104.09,104.09,0,0,0,568,254C565,258.26,561.51,262.4,559.58,266.33Z"/><path class="cls-1" d="M576.11,247.15a87.22,87.22,0,0,1-13.68-13.27,69,69,0,0,1-9.38-14.75,1.56,1.56,0,0,1-.31-1.84,1.66,1.66,0,0,1,1.86-.49,92,92,0,0,1,17.22,1.81c8,1.59,16.36,3.46,21.42,5.51a105.34,105.34,0,0,0-8.72,10.74C581.57,239.09,578,243.23,576.11,247.15Z"/><path class="cls-1" d="M590.13,225.39a86.62,86.62,0,0,1-12-14.69A67.65,67.65,0,0,1,570.51,195a1.56,1.56,0,0,1-.1-1.86,1.67,1.67,0,0,1,1.91-.29,92.62,92.62,0,0,1,16.89,3.69c7.73,2.45,15.85,5.23,20.64,7.82a105.87,105.87,0,0,0-9.92,9.72C596.5,218,592.51,221.7,590.13,225.39Z"/><path class="cls-1" d="M608.85,209a85.54,85.54,0,0,1-10.09-16,67.77,67.77,0,0,1-5.54-16.47,1.57,1.57,0,0,1,.14-1.86,1.68,1.68,0,0,1,1.93-.05,91.12,91.12,0,0,1,16.3,5.66c7.36,3.34,15.06,7.07,19.49,10.21A107.47,107.47,0,0,0,620,198.9C616.1,202.34,611.68,205.57,608.85,209Z"/><path class="cls-1" d="M626.59,194.74a83.9,83.9,0,0,1-4.51-18.22A67.25,67.25,0,0,1,622,159.2a1.59,1.59,0,0,1,.73-1.72,1.68,1.68,0,0,1,1.86.51,89.22,89.22,0,0,1,13.7,10.23c5.95,5.37,12.1,11.2,15.31,15.5a110.71,110.71,0,0,0-13.23,4.77C635.6,190.61,630.36,192.36,626.59,194.74Z"/><path class="cls-1" d="M652.53,184.2a82.84,82.84,0,0,1-1.87-18.65,67.56,67.56,0,0,1,2.42-17.15,1.6,1.6,0,0,1,1-1.61,1.64,1.64,0,0,1,1.76.76,87.51,87.51,0,0,1,12.12,11.95c5.13,6.11,10.38,12.71,13,17.4a110.18,110.18,0,0,0-13.79,2.95C662,181.31,656.6,182.35,652.53,184.2Z"/><path class="cls-1" d="M678.92,180.2a83.72,83.72,0,0,1,5.75-17.9,69,69,0,0,1,9.1-14.91,1.68,1.68,0,0,1,1.54-1.12,1.61,1.61,0,0,1,1.32,1.36A84.75,84.75,0,0,1,703,163.19c2.27,7.55,4.48,15.6,5,20.88a112.39,112.39,0,0,0-13.9-2.43C688.85,181.09,683.42,180,678.92,180.2Z"/><path class="cls-1" d="M703.14,180.9A84.76,84.76,0,0,1,711.59,164a69.61,69.61,0,0,1,11.3-13.43,1.69,1.69,0,0,1,1.7-.89,1.57,1.57,0,0,1,1.09,1.53,83.39,83.39,0,0,1,3.91,16.31c1.09,7.79,2,16.07,1.7,21.36a109.74,109.74,0,0,0-13.37-4.41C712.82,183.21,707.61,181.37,703.14,180.9Z"/><path class="cls-1" d="M725.82,192.5a87.44,87.44,0,0,1,12.78-14.09,72.1,72.1,0,0,1,14.6-10,1.72,1.72,0,0,1,1.88-.42,1.55,1.55,0,0,1,.63,1.76,83.13,83.13,0,0,1-.72,16.73c-1.1,7.79-2.47,16-4.25,21a106.81,106.81,0,0,0-11.67-7.69C734.51,197.21,730,194.1,725.82,192.5Z"/><path class="cls-1" d="M746.48,208.48a86.6,86.6,0,0,1,12.78-14.09,71.69,71.69,0,0,1,14.6-10,1.7,1.7,0,0,1,1.88-.42,1.55,1.55,0,0,1,.63,1.76,83,83,0,0,1-.72,16.72c-1.09,7.79-2.47,16-4.25,21a107.6,107.6,0,0,0-11.66-7.68C755.17,213.19,750.67,210.07,746.48,208.48Z"/><path class="cls-1" d="M766.24,213.72a85.38,85.38,0,0,1,9.5,16.33,67.73,67.73,0,0,1,5,16.64,1.57,1.57,0,0,1-.22,1.86,1.69,1.69,0,0,1-1.93,0,90.79,90.79,0,0,1-16.08-6.21c-7.24-3.58-14.8-7.57-19.11-10.85a106.16,106.16,0,0,0,11.37-8.09C758.75,220.08,763.29,217,766.24,213.72Z"/><path class="cls-1" d="M746.9,233.13a83.26,83.26,0,0,1-1.62,18.68,67.59,67.59,0,0,1-5.57,16.45,1.63,1.63,0,0,1-1.25,1.42,1.66,1.66,0,0,1-1.6-1.05,86.65,86.65,0,0,1-9.7-13.87c-3.9-6.89-7.85-14.29-9.51-19.35a111.28,111.28,0,0,0,14.11-.52C737,234.33,742.55,234.25,746.9,233.13Z"/><path class="cls-1" d="M720.13,233.68a83.77,83.77,0,0,1-5.7,17.91,68.75,68.75,0,0,1-9.06,14.93,1.65,1.65,0,0,1-1.54,1.13,1.59,1.59,0,0,1-1.32-1.35,85.05,85.05,0,0,1-6.43-15.55c-2.3-7.54-4.53-15.58-5-20.87a108.93,108.93,0,0,0,13.9,2.4C710.2,232.81,715.63,233.88,720.13,233.68Z"/><path class="cls-1" d="M688.92,229a82.73,82.73,0,0,1,.13,18.74,67.28,67.28,0,0,1-4,16.87,1.6,1.6,0,0,1-1.11,1.52,1.64,1.64,0,0,1-1.68-.91,86.74,86.74,0,0,1-11-13c-4.53-6.53-9.15-13.56-11.28-18.45A111.25,111.25,0,0,0,674,232C679.18,231,684.7,230.44,688.92,229Z"/><path class="cls-1" d="M660.32,235.42a83.6,83.6,0,0,1,7.06,17.45A67.07,67.07,0,0,1,669.89,270a1.58,1.58,0,0,1-.48,1.81,1.7,1.7,0,0,1-1.91-.27,90.08,90.08,0,0,1-15-8.31c-6.65-4.53-13.57-9.49-17.36-13.32a110.36,110.36,0,0,0,12.43-6.48C652,240.7,656.93,238.27,660.32,235.42Z"/><path class="cls-1" d="M629.62,253.4a86.52,86.52,0,0,1,12.59,14.25,68.39,68.39,0,0,1,8.19,15.4,1.57,1.57,0,0,1,.16,1.86,1.66,1.66,0,0,1-1.89.35,91.48,91.48,0,0,1-17-3.08c-7.82-2.17-16-4.66-20.93-7.08A106.94,106.94,0,0,0,620.27,265C623.55,261,627.39,257.18,629.62,253.4Z"/><path class="cls-1" d="M613.62,276.29a88.18,88.18,0,0,1,13.85,13.11A68.9,68.9,0,0,1,637,304a1.55,1.55,0,0,1,.33,1.84,1.66,1.66,0,0,1-1.85.51,92,92,0,0,1-17.24-1.6c-8-1.49-16.4-3.27-21.49-5.25a104.24,104.24,0,0,0,8.58-10.85C608.27,284.42,611.74,280.24,613.62,276.29Z"/><path class="cls-1" d="M594.88,302.24a89.12,89.12,0,0,1,15.65,11.05,70.08,70.08,0,0,1,11.65,13.16,1.59,1.59,0,0,1,.6,1.77A1.65,1.65,0,0,1,621,329a93.2,93.2,0,0,1-17.3.8c-8.12-.37-16.72-1-22.05-2.22a102.83,102.83,0,0,0,6.89-11.92C590.79,311,593.61,306.41,594.88,302.24Z"/><path class="cls-1" d="M648.17,334.71a82.56,82.56,0,0,1,.69-18.73,67.54,67.54,0,0,1,4.75-16.7,1.44,1.44,0,0,1,2.82-.49,86.74,86.74,0,0,1,10.38,13.4c4.24,6.71,8.55,13.92,10.46,18.89a110.78,110.78,0,0,0-14.07,1.17C658,333.05,652.45,333.39,648.17,334.71Z"/><path class="cls-1" d="M682.65,328.6a82.7,82.7,0,0,1-1.45-18.68,67,67,0,0,1,2.82-17.1,1.6,1.6,0,0,1,1-1.59,1.64,1.64,0,0,1,1.74.8,86.79,86.79,0,0,1,11.85,12.21c5,6.21,10.09,12.92,12.55,17.66a110,110,0,0,0-13.85,2.66C692.22,325.91,686.76,326.84,682.65,328.6Z"/><path class="cls-1" d="M138.08,462.74a65.18,65.18,0,0,1-16.69,9.45,66.26,66.26,0,0,1-18.6,4.23,2.29,2.29,0,0,1-2.33-.4,2.08,2.08,0,0,1-.64-2.2A76,76,0,0,1,102,456a77.13,77.13,0,0,1,7.4-19c3.82,4.19,8.16,8.57,13.06,13A191.41,191.41,0,0,0,138.08,462.74Z"/><path d="M133.7,460.34a12.73,12.73,0,0,1-2.54,3.2,13.72,13.72,0,0,1-3.47,2.29.54.54,0,0,1-.52.1.53.53,0,0,1-.36-.39,16.47,16.47,0,0,1-1.32-3.73,15.65,15.65,0,0,1-.36-4.38c1.22.54,2.56,1.08,4,1.59S132.29,460,133.7,460.34Z"/><path d="M123,455.59a13,13,0,0,1-3.52,2.16,14.48,14.48,0,0,1-4.07,1,.54.54,0,0,1-.53-.08.49.49,0,0,1-.19-.48,16.17,16.17,0,0,1,.08-3.95A15.79,15.79,0,0,1,116,450c1,.91,2,1.86,3.22,2.82S121.8,454.81,123,455.59Z"/><path d="M114.61,448.31a13.35,13.35,0,0,1-4.15.26,14.2,14.2,0,0,1-4.07-1,.53.53,0,0,1-.43-.32.48.48,0,0,1,.07-.51,17.48,17.48,0,0,1,2-3.43,16.15,16.15,0,0,1,3.18-3.13c.38,1.24.84,2.57,1.42,4S114,447.07,114.61,448.31Z"/><path class="cls-5" d="M248.5,157c-7.1,3.92-14.57,10.78-18.76,23.95"/><path class="cls-6" d="M82.84,225.69c1,9.48-6.14,18-16,19s-18.72-5.87-19.75-15.36,7.85-38.72,15.14-51.68C67.51,189.31,81.81,216.2,82.84,225.69Z"/><path class="cls-6" d="M806.92,271.27c.88,8.17-5.3,15.49-13.81,16.36s-16.13-5.06-17-13.24,6.76-33.38,13-44.55C793.7,239.91,806,263.09,806.92,271.27Z"/><path class="cls-6" d="M402.17,548.75a13.06,13.06,0,0,1-12,14.18,13.28,13.28,0,0,1-14.74-11.47c-.77-7.08,5.86-28.92,11.31-38.59C390.72,521.59,401.4,541.67,402.17,548.75Z"/><path class="cls-7" d="M284.73,250.06c-24.7-14.39-46.57-3.65-55.92,4.06h0c-3.06-5.75-5.9-12.66-.35-15,9.92-4.33,24.89-9.09,41.46-3.93,8.79,2.93,14.69,12.83,14.81,14.87Z"/><path class="cls-7" d="M226.64,243.53h0c-2.61,1.39-1.31,5.48.81,8.93a29,29,0,0,1,2.38,4.66c1.2,3.31,3.36,4,5.93,2.16h0c2.46-1.91,3.85-5.21,2.38-8-.69-1.33-1.47-2.72-2.37-4.18C233.93,243.92,229.22,242.1,226.64,243.53Z"/><path class="cls-7" d="M274.25,239.1h0c-4.94-2.11-8.39.2-7.84,2.87.23,1.23.44,2.35.65,3.36.48,2.24,4.05,3.56,8.31,4.43h0c4.28.79,7.77,1.67,7.62.4-.06-.63-.12-1.36-.15-2.21C282.78,246.28,279.17,241.2,274.25,239.1Z"/><path class="cls-8" d="M245.27,275.91c.06-3.41-2.73-14.8,10.11-21.07,6.26-3.31,15.15-2.63,21.27.49,6.34,2.92,9.91,8.27,10.42,9.54"/><path class="cls-9" d="M294.77,264.23c0,2.82-18.12-.65-33.26,6.22-16.09,6-23.12,12.48-27.83-.5-2.71-7-12.33-19.34-9.21-26.22,2.37-5.38,12.6-11.22,24.25-11.87,11.15-.87,23.78,4.5,31.87,11.29C291.62,253.12,294.5,262.52,294.77,264.23Z"/><path class="cls-10" d="M258.28,256.53c4.63,2.89,4.13,5,5.31,5"/></svg>