<svg id="Layer_1" data-name="Layer 1" xmlns="http://www.w3.org/2000/svg" width="840" height="605" viewBox="0 0 840 605"><defs><style>.cls-1,.cls-3{fill:#f7931e;}.cls-2{fill:#fbb03b;}.cls-3{stroke:#fbb03b;stroke-linejoin:round;stroke-width:10px;}.cls-3,.cls-5{stroke-linecap:round;}.cls-10,.cls-4,.cls-5,.cls-9{stroke:#000;stroke-miterlimit:10;}.cls-10,.cls-5,.cls-9{fill:none;}.cls-5,.cls-9{stroke-width:5px;}.cls-6{fill:#0067ff;}.cls-7{fill:#fff;}.cls-8{fill:#ff7bac;}</style></defs><title>Kat våd - mod venstre</title><ellipse class="cls-1" cx="272.27" cy="436.42" rx="54.96" ry="53.12"/><path class="cls-1" d="M506.29,505a337.79,337.79,0,0,1,92.26,27c34.2,15.59,25,22.54,42.35,37.28,3.81,1.71,14-2.53,15.14-4s15.26-7.11,12.23-10.43c-11.22-17.26-14.44-20.62-37.11-46.77A838.75,838.75,0,0,0,558,434a187.25,187.25,0,0,1-51.74,71Z"/><path class="cls-1" d="M290.93,346.21a438.56,438.56,0,0,1-124.11-.56c-48.13-7.1-39.44-18.94-66.42-31-5.35-.76-56.6-1.86-57.46.42S44,320.32,49,323.33c20.39,17.32,48.74,39.23,86.64,63.46A1109.73,1109.73,0,0,0,254,452.13a235.65,235.65,0,0,1,36.91-105.92Z"/><path class="cls-1" d="M269,356.07c-3.06-23.85-20.46-49.59-42.24-73.83-29-34.79-57.65-49.36-106.71-28.88-21.79.49-14.3-47.58-12.44-48.38s54-14.85,56.64-11.53c64.59,9.16,75.06,26.92,102.38,57.32,24.13,28.84,42.06,59.29,55.79,81.34A233.15,233.15,0,0,0,279,344.55C262.67,351,281.45,347.68,269,356.07Z"/><path class="cls-1" d="M250.78,365a412.61,412.61,0,0,1-77.24,93.9c-35.55,32.15-39.79,18.22-66.28,31.26-3.92,3.59-36.52,41.83-35.21,43.89s4.93,2.41,10.47.47A816.39,816.39,0,0,0,187.71,508,1122.05,1122.05,0,0,0,314,458.56a248.17,248.17,0,0,1-36-41.27A238.56,238.56,0,0,1,250.78,365Z"/><path class="cls-1" d="M625.49,340.47,453.6,260.69c-35.91,10.16-85.89,27.79-137.59,58.68-51.07,30.51-85.41,63-107.08,87-5.5,3.29-8.06,8.76-6.59,14.09,1.38,5,6.12,9.5,13.53,11.06a785,785,0,0,0,139.5,49.5A847.53,847.53,0,0,0,525,505.93Z"/><path class="cls-1" d="M572.78,416.24a338.63,338.63,0,0,1,93.61,22.21c35,13.82,26.22,21.23,44.34,35.06,3.89,1.51,13.82-3.25,14.9-4.81s14.84-7.88,11.63-11c-12.14-16.66-15.55-19.85-39.62-44.8a841.77,841.77,0,0,0-77.08-70.13,186.58,186.58,0,0,1-47.78,73.51Z"/><ellipse class="cls-2" cx="273.92" cy="429.23" rx="54.96" ry="53.12"/><path class="cls-2" d="M507.94,497.76a337.94,337.94,0,0,1,92.27,27c34.2,15.59,25,22.54,42.34,37.28,3.81,1.71,14-2.53,15.15-4s15.25-7.11,12.22-10.43c-11.21-17.26-14.44-20.62-37.11-46.77a838.75,838.75,0,0,0-73.13-74,187.25,187.25,0,0,1-51.74,71Z"/><path class="cls-2" d="M293.4,339a438.48,438.48,0,0,1-124.1-.56c-48.13-7.1-39.44-18.94-66.42-31-5.35-.76-56.6-1.86-57.46.42s1.09,5.23,6.09,8.24c20.39,17.32,48.74,39.23,86.64,63.46A1108,1108,0,0,0,256.5,444.94,235.79,235.79,0,0,1,293.4,339Z"/><path class="cls-2" d="M270.63,348.88c-3.06-23.85-20.45-49.59-42.24-73.83-29-34.79-57.65-49.36-106.71-28.88-21.79.49-14.3-47.58-12.44-48.38s54-14.85,56.64-11.53c64.59,9.16,75.06,26.92,102.38,57.32,24.14,28.84,42.06,59.29,55.79,81.34a233.15,233.15,0,0,0-43.38,12.44C264.32,343.83,283.1,340.5,270.63,348.88Z"/><path class="cls-2" d="M252.43,357.81a412.34,412.34,0,0,1-77.24,93.9c-35.55,32.15-39.79,18.22-66.28,31.26-3.92,3.6-36.52,41.83-35.2,43.89s4.92,2.41,10.46.47a816.39,816.39,0,0,0,105.19-26.52A1123.06,1123.06,0,0,0,315.7,451.37a247.75,247.75,0,0,1-36-41.27A238.56,238.56,0,0,1,252.43,357.81Z"/><path class="cls-2" d="M627.14,333.28,455.26,253.5c-35.92,10.16-85.9,27.79-137.59,58.68-51.07,30.51-85.42,63-107.09,87-5.49,3.29-8.05,8.76-6.58,14.09,1.38,5,6.11,9.5,13.52,11.06A784.88,784.88,0,0,0,357,473.86,847.45,847.45,0,0,0,526.6,498.74Z"/><path class="cls-3" d="M687.45,337.72c10.89-9.45,15.56-48.1,7.16-101-9.5-59.92-26.93-102.69-34.17-114.2a20.74,20.74,0,0,0-10.8-8.61,21.49,21.49,0,0,0-12-.5,184.76,184.76,0,0,0-53.57,5,268.41,268.41,0,0,0-30.85,10.08s-15.2,5.75-30.7,13.23c-20.9,10.08-55.65,31.26-96.39,62.59a182.65,182.65,0,0,0,35.5,55.52c5.16,5.52,27.86,29.12,77.38,50.06C594.52,333.32,647.93,338.29,687.45,337.72Z"/><path class="cls-1" d="M524.75,502.32c5.47-25.58,7.82-48.71,10.36-90.12,2.5-40.91.27-71.79-2.32-92.27.27-4.41-.9-7.57-3-8.14s-4.62,1.19-6.95,5.44a629.85,629.85,0,0,0-50.43,74.33,853.65,853.65,0,0,0-49.73,100.28c15.28.38,31.07,5,48.36,6.12C489.21,499.13,505.74,500.73,524.75,502.32Z"/><path class="cls-1" d="M389.21,484.75c1.66-10.14,1.26-21.35.12-38.1A148.29,148.29,0,0,0,382,408.9a3.6,3.6,0,0,0-2.35-3.48c-1.23-.32-2.71.24-3.84,1.85a193.2,193.2,0,0,0-25.69,27.62,197.87,197.87,0,0,0-22.05,35.48c9.25,1,17.66,5.33,28.09,7.84C367.6,481,379.3,483.15,389.21,484.75Z"/><path class="cls-1" d="M281,481.55c-.06-13.31-2-26.6-5.84-47.59a224.08,224.08,0,0,0-13.39-46.09c-.42-2.23-1.53-3.72-2.86-3.82s-2.61,1-3.45,3.34a280,280,0,0,0-20.53,41.67c-8.17,20.55-10.93,45.65-14.26,60.48a121.72,121.72,0,0,0,22.31-7.19c4.23-1.84,5.73-2.8,7.7-3.44.27-.09,1.44-1,2.22-.55,4.13,2.39,8.26,2.39,11.57,3.19C267.89,482.39,272.85,483.28,281,481.55Z"/><path class="cls-1" d="M269.45,341.62c5.49,8.74,17.23,17.11,29.21,29.14a157.59,157.59,0,0,0,30.59,24.18c1.28,1.28,2.86,1.74,4.07,1.19s1.88-1.86,1.67-3.78a184,184,0,0,0,1-36.91c-1.22-17.3-3.1-39.13-6.24-50.43-7.6,5-21.11,13.12-30.58,19.17C289.42,330.4,281.09,334,269.45,341.62Z"/><path class="cls-1" d="M575.1,514.78a83.63,83.63,0,0,0,1.48-18.68A66.88,66.88,0,0,0,573.8,479a1.6,1.6,0,0,0-1-1.6,1.65,1.65,0,0,0-1.74.8,87.42,87.42,0,0,0-11.87,12.18c-5,6.21-8.83,11.2-11.3,15.94,4.13.53,8.78,2.43,13.41,3.67A100.33,100.33,0,0,1,575.1,514.78Z"/><path class="cls-1" d="M166.9,337.76c-.89,4.56.62,13.59.88,21.16s1.65,6.12,2.82,10a1.59,1.59,0,0,0,1,1.6,1.66,1.66,0,0,0,1.75-.79,87.07,87.07,0,0,0,11.9-12.16c5-6.19,8.92-11.06,11.41-15.79-4.13-.55-11.07-.35-15.7-1.6C175.87,338.79,171,339.55,166.9,337.76Z"/><path class="cls-1" d="M260.29,315.92c1.83-4.29,8.19-18.95,9.53-26.41s-.33-6.32-.65-10.33a1.59,1.59,0,0,0-.64-1.76,1.69,1.69,0,0,0-1.88.43,89.7,89.7,0,0,0-14.22,9.56c-6.21,5.07-4.18,2.15-7.61,6.29A111.15,111.15,0,0,0,253,305.28C256.27,309.26,256.65,313.36,260.29,315.92Z"/><path class="cls-1" d="M242.93,216.34c-3.16,3.49-7.33,16.39-11.07,23s-1.79,6.08-2.82,10a1.57,1.57,0,0,0,0,1.86,1.67,1.67,0,0,0,1.92.18,91,91,0,0,0,16.63-4.64c7.57-2.88,13-3.59,17.63-6.45-3.28-2.49-7.42-7.84-10.75-11.19A140.42,140.42,0,0,1,242.93,216.34Z"/><path class="cls-1" d="M141.48,189.77c.16,4.79,2.66,9.08,4.58,16.64s2.91,5.78,4.86,9.4a1.63,1.63,0,0,0,1.29,1.38c.55,0,1.13-.36,1.48-1.2a91.66,91.66,0,0,0,8.55-15c3.36-7.39,5.84-8.91,7.14-14.24a63.6,63.6,0,0,0-14.88-.8C148.83,186.41,145.5,189.07,141.48,189.77Z"/><path class="cls-1" d="M194.62,245.26c.66-2.9.38-10.15.36-15s-.93-3.94-1.6-6.43a1,1,0,0,0-.61-1,1,1,0,0,0-1.13.47,55.8,55.8,0,0,0-7.86,7.56c-3.33,3.86-3.81,4-5.49,7,2.63.43,4.63,2.35,7.76,3.66A60.55,60.55,0,0,1,194.62,245.26Z"/><path class="cls-1" d="M155.93,465.08A87.59,87.59,0,0,0,170,478a72.1,72.1,0,0,0,15.47,8.73,1.7,1.7,0,0,0,1.91.26,1.56,1.56,0,0,0,.47-1.81,83.48,83.48,0,0,0-2.27-16.59,100.72,100.72,0,0,0-6.63-19,97.13,97.13,0,0,1-10.42,8.23A98.4,98.4,0,0,1,155.93,465.08Z"/><path class="cls-1" d="M166.51,507.86a66,66,0,0,0-8.69-14.18,58.94,58.94,0,0,0-11.45-10.94,1.67,1.67,0,0,0-1.7-.65,1.53,1.53,0,0,0-1,1.44,69.5,69.5,0,0,0-3.56,14.67c-.93,6.95-2.52,13.07-2.09,17.7,3.78-1.66,9.47-2.58,14.05-4C157.05,510.36,162.09,508.62,166.51,507.86Z"/><path class="cls-1" d="M123.92,371.32a103.77,103.77,0,0,0,7.63-18.55A70.32,70.32,0,0,0,134.33,336a1.47,1.47,0,0,0-.4-1.73,1.58,1.58,0,0,0-1.78.38,93.79,93.79,0,0,0-14.2,9,111.84,111.84,0,0,0-14.69,13.29c3.48,1.38,6.21,4.23,9.92,6.39A80.37,80.37,0,0,1,123.92,371.32Z"/><path class="cls-1" d="M617.31,484c-3.29,3.37-6.51,8.34-10.5,14.85a68.15,68.15,0,0,0-7.24,15.84,1.57,1.57,0,0,0-.05,1.86,1.69,1.69,0,0,0,1.92.25,91.7,91.7,0,0,0,16.8-4,102.49,102.49,0,0,0,18.08-8,90.09,90.09,0,0,0-8.9-9.62A83.07,83.07,0,0,0,617.31,484Z"/><path class="cls-1" d="M355.33,292.23c7.6,10.67,21.76,25.13,38.67,39.21a189.74,189.74,0,0,0,43.48,27.32,5.46,5.46,0,0,0,5.88,1,5,5,0,0,0,2.6-5.19,220.43,220.43,0,0,0,3.1-48.48c-1-22.49-.41-35.44-4.48-49.8-14,4.61-28.61,9.9-43.8,16C384.53,278.77,369.37,285.5,355.33,292.23Z"/><path class="cls-2" d="M593.5,113.08a186.84,186.84,0,0,0-41.64-42.71,203.53,203.53,0,0,0-53.62-28.44,7.86,7.86,0,0,0-7.78-.73,7.3,7.3,0,0,0-4.53,6.15,238.85,238.85,0,0,0-13.7,56,226.46,226.46,0,0,0,1.45,63.93c16.82-9.53,35.49-19.22,56-28.59C552.18,128.38,573.62,120,593.5,113.08Z"/><path class="cls-1" d="M584.82,112.66a146.81,146.81,0,0,0-32.74-33.59,159.74,159.74,0,0,0-42.16-22.36,6.17,6.17,0,0,0-6.12-.58A5.76,5.76,0,0,0,500.23,61a188,188,0,0,0-10.77,44,178.43,178.43,0,0,0,1.14,50.27c13.23-7.5,27.91-15.12,44-22.48C552.33,124.68,569.19,118.08,584.82,112.66Z"/><path class="cls-1" d="M111.79,194.53A90.45,90.45,0,0,0,86.26,208,94.77,94.77,0,0,0,66.08,228.9a3.58,3.58,0,0,0-1.3,3.47,3.63,3.63,0,0,0,2.38,2.89,123.59,123.59,0,0,0,25.09,13.58A117.77,117.77,0,0,0,123,256.53c-2.5-9-4.84-18.78-6.81-29.4C114,215.47,112.65,204.55,111.79,194.53Z"/><ellipse class="cls-4" cx="637.59" cy="219.32" rx="17.07" ry="11.73" transform="translate(111.06 640.49) rotate(-57.64)"/><ellipse class="cls-4" cx="591.97" cy="197.19" rx="17.08" ry="12.24" transform="translate(106.65 589.33) rotate(-57.36)"/><path class="cls-5" d="M493.25,229.27c6-4.62,14.75-8.53,28-7.5,15.39,1.2,23.73,9,27.33,11.07"/><path class="cls-5" d="M499.66,239c5.07-4,12.54-7.46,23.95-6.71,13.21.87,20.44,7.44,23.54,9.21"/><path class="cls-5" d="M522.05,242.2c13.19,1,20.34,7.68,23.42,9.49"/><path class="cls-5" d="M498,248.62c5.12-4,12.64-7.31,24-6.42"/><path class="cls-5" d="M641,260.83c7.65.3,16.92,2.91,26.26,12.12,10.81,10.66,11.85,21.81,13.13,25.67"/><path class="cls-5" d="M639.25,272.26c6.56.18,14.53,2.31,22.64,10.12,9.38,9,10.39,18.57,11.53,21.87"/><path class="cls-5" d="M654,288.85c9.27,9.14,10.15,18.69,11.25,22"/><path class="cls-5" d="M631.5,278.46c6.56.25,14.5,2.49,22.5,10.39"/><path class="cls-5" d="M622.33,233.55c-8.18.22-18.25-1.9-28.9-11.05"/><path class="cls-5" d="M634.69,198.41c7.3-3.56,17.35-5.78,31-1.87"/><path d="M643.05,565.7a12.39,12.39,0,0,0,2.55,3.19,13.78,13.78,0,0,0,3.46,2.3.54.54,0,0,0,.52.1.53.53,0,0,0,.36-.39,16.94,16.94,0,0,0,1.33-3.73,15.59,15.59,0,0,0,.35-4.38c-1.22.54-2.56,1.08-4,1.59S644.46,565.36,643.05,565.7Z"/><path d="M653.75,561a12.9,12.9,0,0,0,3.52,2.15,14.21,14.21,0,0,0,4.07,1,.54.54,0,0,0,.53-.08.49.49,0,0,0,.19-.48,16.62,16.62,0,0,0-.07-3.95,16,16,0,0,0-1.23-4.23c-1,.92-2,1.87-3.22,2.83S655,560.17,653.75,561Z"/><path d="M662.14,553.67a13.16,13.16,0,0,0,4.16.25,13.84,13.84,0,0,0,4.06-1,.53.53,0,0,0,.43-.32.48.48,0,0,0-.07-.51,17,17,0,0,0-2-3.43,16.15,16.15,0,0,0-3.18-3.13c-.38,1.24-.84,2.57-1.41,4S662.8,552.42,662.14,553.67Z"/><path d="M79.75,518.55a14.69,14.69,0,0,0,1.32,4.66,15.91,15.91,0,0,0,2.75,4.08.63.63,0,0,0,.54.34.58.58,0,0,0,.57-.28,19.94,19.94,0,0,0,3.24-3.55,19.14,19.14,0,0,0,2.46-4.7c-1.6.07-3.35.07-5.21,0A56.83,56.83,0,0,1,79.75,518.55Z"/><path d="M93.86,518a15.59,15.59,0,0,0,2.89,4,16.61,16.61,0,0,0,4,2.91.63.63,0,0,0,.62.14.61.61,0,0,0,.45-.45,20.21,20.21,0,0,0,1.78-4.41,18.71,18.71,0,0,0,.63-5.23c-1.48.59-3.12,1.18-4.9,1.71C97.41,517.21,95.57,517.66,93.86,518Z"/><path d="M106.61,513.63a15.85,15.85,0,0,0,4.49,2.12,17.24,17.24,0,0,0,5,.68.65.65,0,0,0,.62-.16.62.62,0,0,0,.16-.61,19.78,19.78,0,0,0-.63-4.69,18.72,18.72,0,0,0-2-4.88c-1,1.2-2.15,2.48-3.45,3.77S107.93,512.54,106.61,513.63Z"/><path d="M60.63,307.41a15,15,0,0,0-3.2,3.71,15.84,15.84,0,0,0-1.88,4.52.58.58,0,0,0,0,.62.63.63,0,0,0,.56.3,21.72,21.72,0,0,0,4.87.53,21,21,0,0,0,5.39-.75c-1-1.24-2-2.62-3-4.14C62.33,310.52,61.41,308.91,60.63,307.41Z"/><path d="M69.18,318.27a14.8,14.8,0,0,0-1.69,4.55,15.45,15.45,0,0,0-.15,4.86.61.61,0,0,0,.23.58.64.64,0,0,0,.64.09A21.18,21.18,0,0,0,73,327.23a19.89,19.89,0,0,0,4.8-2.49c-1.36-.83-2.79-1.8-4.27-2.9S70.44,319.42,69.18,318.27Z"/><path d="M80.19,325.86a14.61,14.61,0,0,0,.78,4.77A15.93,15.93,0,0,0,83.25,335a.61.61,0,0,0,.5.39.61.61,0,0,0,.6-.21A21.33,21.33,0,0,0,88,332a19.55,19.55,0,0,0,3-4.42c-1.6-.1-3.34-.28-5.18-.56C83.73,326.67,81.87,326.28,80.19,325.86Z"/><path class="cls-2" d="M574.44,409.05a338.71,338.71,0,0,1,93.61,22.21c35,13.82,26.21,21.23,44.33,35.06,3.89,1.51,13.82-3.25,14.9-4.81s14.84-7.88,11.63-11c-12.14-16.66-15.54-19.85-39.61-44.8a843.06,843.06,0,0,0-77.09-70.13,186.41,186.41,0,0,1-47.77,73.51Z"/><path class="cls-2" d="M698.68,239.15a190.61,190.61,0,0,0,49.48-34,194.91,194.91,0,0,0,36.49-47.44,7.2,7.2,0,0,0,1.82-7.35,7.44,7.44,0,0,0-5.68-5.19,260,260,0,0,0-55.48-20.78A250.62,250.62,0,0,0,659.59,117c7.47,17.42,14.84,36.62,21.63,57.53C688.67,197.49,694.34,219.17,698.68,239.15Z"/><path class="cls-1" d="M696.67,224.05a145.55,145.55,0,0,0,37.79-26,149.16,149.16,0,0,0,27.86-36.23,5.5,5.5,0,0,0,1.39-5.62,5.69,5.69,0,0,0-4.34-4A197.91,197.91,0,0,0,717,136.4a191.25,191.25,0,0,0-50.18-5.63c5.7,13.3,11.33,28,16.51,43.93A510.32,510.32,0,0,1,696.67,224.05Z"/><path class="cls-1" d="M644.12,353.65a86.77,86.77,0,0,0-11.7,14.94,68.46,68.46,0,0,0-7.23,15.84,1.59,1.59,0,0,0-.05,1.87,1.71,1.71,0,0,0,1.92.24,91.7,91.7,0,0,0,16.8-4.05,155.55,155.55,0,0,0,22.21-9.58,131.29,131.29,0,0,1-11.57-10.38C651,358.72,646.59,357.29,644.12,353.65Z"/><path class="cls-1" d="M675.73,435.11a83.37,83.37,0,0,0,4.55-18.21,67.17,67.17,0,0,0,.09-17.32,1.58,1.58,0,0,0-.73-1.72,1.67,1.67,0,0,0-1.85.51,89.26,89.26,0,0,0-13.73,10.2c-6,5.35-12.12,11.17-15.34,15.47a109.74,109.74,0,0,1,13.22,4.79C666.74,431,672,432.73,675.73,435.11Z"/><path class="cls-1" d="M449.44,255.35A85.6,85.6,0,0,0,439,239.55a71,71,0,0,0-12.84-12.06,1.71,1.71,0,0,0-1.8-.7,1.58,1.58,0,0,0-.9,1.65,84.64,84.64,0,0,0-1.92,16.64c-.14,7.86-.07,16.19.89,21.41a110,110,0,0,1,12.75-5.89C440.11,258.74,445.06,256.32,449.44,255.35Z"/><path class="cls-1" d="M456,190.48a86.73,86.73,0,0,0-13-13.88,71.61,71.61,0,0,0-14.76-9.81,1.7,1.7,0,0,0-1.89-.39,1.56,1.56,0,0,0-.6,1.77,83.19,83.19,0,0,0,1,16.71c1.23,7.77,2.74,16,4.6,21A107.8,107.8,0,0,1,442.89,198C447.41,195.33,451.86,192.14,456,190.48Z"/><path class="cls-1" d="M479.16,179.3a87.16,87.16,0,0,0-13-13.89,72,72,0,0,0-14.76-9.81,1.72,1.72,0,0,0-1.89-.39,1.57,1.57,0,0,0-.6,1.77,83.15,83.15,0,0,0,1,16.71c1.23,7.78,2.74,16,4.6,21A106.36,106.36,0,0,1,466,186.78C470.55,184.15,475,181,479.16,179.3Z"/><path class="cls-1" d="M494.29,126.81a92.61,92.61,0,0,0-19.39.33,73.43,73.43,0,0,0-17.36,4.28,1.65,1.65,0,0,0-1.54,1.11,1.58,1.58,0,0,0,1,1.61,89.25,89.25,0,0,0,13.67,10.27c6.86,4.23,14.24,8.53,19.35,10.46a101,101,0,0,1,1.47-13.58C492.39,136.27,492.84,130.93,494.29,126.81Z"/><path class="cls-1" d="M494.29,106a92.61,92.61,0,0,0-19.39.33,73.43,73.43,0,0,0-17.36,4.28,1.65,1.65,0,0,0-1.54,1.11,1.57,1.57,0,0,0,1,1.61,89.25,89.25,0,0,0,13.67,10.27c6.86,4.23,14.24,8.53,19.35,10.46a100.68,100.68,0,0,1,1.47-13.57C492.39,115.5,492.84,110.16,494.29,106Z"/><path class="cls-1" d="M494.47,80.82a91.74,91.74,0,0,0-19.38,0,73.59,73.59,0,0,0-17.44,4,1.65,1.65,0,0,0-1.56,1.08,1.56,1.56,0,0,0,1,1.62A89,89,0,0,0,470.52,98c6.79,4.34,14.09,8.76,19.16,10.78a100.87,100.87,0,0,1,1.72-13.55C492.41,90.24,493,84.91,494.47,80.82Z"/><path class="cls-1" d="M504.2,56.52a91.73,91.73,0,0,0-19.38.32,73.93,73.93,0,0,0-17.36,4.28,1.65,1.65,0,0,0-1.54,1.12c-.12.54.19,1.16,1,1.6a88.41,88.41,0,0,0,13.66,10.28c6.87,4.22,14.24,8.52,19.36,10.45A99.09,99.09,0,0,1,501.39,71C502.31,66,502.76,60.64,504.2,56.52Z"/><path class="cls-1" d="M530.24,70.23a80.06,80.06,0,0,0,3.35-18.49,65.65,65.65,0,0,0-1.23-17.43,1.62,1.62,0,0,0-.88-1.71,1.7,1.7,0,0,0-1.88.58A87.77,87.77,0,0,0,516.13,44c-5.77,5.61-11.72,11.7-14.74,16.14a119.79,119.79,0,0,1,14.08,4.33C520.6,66.39,526.16,68,530.24,70.23Z"/><path class="cls-1" d="M553.38,85.76A82.11,82.11,0,0,0,562.07,69a65.83,65.83,0,0,0,4-17,1.59,1.59,0,0,0-.34-1.88,1.71,1.71,0,0,0-2,0,88.92,88.92,0,0,0-16.1,6.59c-7.19,3.77-14.7,7.95-18.9,11.37a118.25,118.25,0,0,1,12.2,8C545.28,79.41,550.14,82.46,553.38,85.76Z"/><path class="cls-1" d="M578.17,106.53a81.12,81.12,0,0,0,8.69-16.79,66.44,66.44,0,0,0,4-17,1.64,1.64,0,0,0-.34-1.89,1.76,1.76,0,0,0-2,0,90.71,90.71,0,0,0-16.1,6.59c-7.19,3.78-14.69,8-18.9,11.38a118.25,118.25,0,0,1,12.2,8.05C570.08,100.18,574.93,103.23,578.17,106.53Z"/><path class="cls-1" d="M632.15,127.42a80,80,0,0,0-.68-18.77,66.43,66.43,0,0,0-4.92-16.81,1.53,1.53,0,0,0-2.95-.55,85.3,85.3,0,0,0-10.87,13.23c-4.45,6.64-9,13.78-11,18.73a121.4,121.4,0,0,1,14.7,1.43C621.9,125.58,627.67,126,632.15,127.42Z"/><path class="cls-1" d="M650.84,133.61A80.12,80.12,0,0,0,655,115.26a65.38,65.38,0,0,0-.5-17.46,1.64,1.64,0,0,0-.81-1.75,1.73,1.73,0,0,0-1.9.51,88.07,88.07,0,0,0-13.91,10.24c-6,5.38-12.19,11.23-15.39,15.55a121.61,121.61,0,0,1,13.88,4.88C641.37,129.39,646.86,131.19,650.84,133.61Z"/><path class="cls-1" d="M701.36,134.74a80.29,80.29,0,0,0-3-18.56A66.86,66.86,0,0,0,691.48,100a1.53,1.53,0,0,0-3-.21,84.65,84.65,0,0,0-9.2,14.37c-3.61,7.1-7.23,14.7-8.62,19.85a120.88,120.88,0,0,1,14.77-.25C691,134.08,696.74,133.86,701.36,134.74Z"/><path class="cls-1" d="M731.24,146.28a79.69,79.69,0,0,0,.19-18.78,66.2,66.2,0,0,0-4.13-17,1.66,1.66,0,0,0-1.16-1.55,1.69,1.69,0,0,0-1.76.87,85.49,85.49,0,0,0-11.48,12.75c-4.75,6.44-9.6,13.37-11.83,18.23a120.72,120.72,0,0,1,14.62,2.07C721.08,144,726.84,144.69,731.24,146.28Z"/><path class="cls-1" d="M757.08,159.65a81.36,81.36,0,0,0,5.8-17.92A66.1,66.1,0,0,0,764,124.29a1.63,1.63,0,0,0-.64-1.81,1.74,1.74,0,0,0-2,.35,88.4,88.4,0,0,0-14.8,9c-6.47,4.84-13.19,10.13-16.78,14.15A121.16,121.16,0,0,1,743.21,152C748,154.63,753.34,156.89,757.08,159.65Z"/><path class="cls-1" d="M746.22,181a87,87,0,0,0,18.3,6.31,72.65,72.65,0,0,0,18,1.78,1.76,1.76,0,0,0,1.9-.55,1.6,1.6,0,0,0-.28-1.9A84.28,84.28,0,0,0,775.4,172c-4.74-6.45-9.94-13.15-14-16.77a111.89,111.89,0,0,1-6.8,12.67C751.77,172.46,749.21,177.49,746.22,181Z"/><path class="cls-1" d="M727.21,203.37a88.15,88.15,0,0,0,18.3,6.31,72.72,72.72,0,0,0,18,1.78,1.76,1.76,0,0,0,1.89-.55,1.6,1.6,0,0,0-.28-1.9,84.31,84.31,0,0,0-8.71-14.65c-4.74-6.44-9.94-13.14-14-16.76a111.89,111.89,0,0,1-6.8,12.67C732.76,194.83,730.21,199.86,727.21,203.37Z"/><path class="cls-1" d="M702.35,217.73a85.33,85.33,0,0,0,15.71,11.05,71.45,71.45,0,0,0,16.72,6.62,1.77,1.77,0,0,0,2,0,1.59,1.59,0,0,0,.29-1.89A82.93,82.93,0,0,0,733,217.07c-2.67-7.48-5.7-15.33-8.49-19.9a117.78,117.78,0,0,1-10.23,10.3C710.17,211.06,706.25,215.19,702.35,217.73Z"/><path class="cls-1" d="M686.82,273.5a87.56,87.56,0,0,0,18.55-5.57,70.9,70.9,0,0,0,15.49-9,1.66,1.66,0,0,0,1.17-1.54c0-.58-.52-1.12-1.4-1.35a88.9,88.9,0,0,0-16.06-6.67c-7.8-2.4-16.11-4.74-21.58-5.31a110,110,0,0,1,2.44,14.08C686,263.46,687,269,686.82,273.5Z"/><path class="cls-1" d="M682.15,324.66a88.38,88.38,0,0,0,19.42-.59A72.15,72.15,0,0,0,719,319.39a1.72,1.72,0,0,0,1.56-1.19,1.62,1.62,0,0,0-1-1.66A87.22,87.22,0,0,0,705.92,306c-6.85-4.33-14.22-8.73-19.33-10.68a111,111,0,0,1-1.54,14.2C684.1,314.75,683.62,320.34,682.15,324.66Z"/><path class="cls-1" d="M692.72,400.42a81.6,81.6,0,0,0,10.72-15.66,66.27,66.27,0,0,0,6.1-16.44,1.61,1.61,0,0,0-.1-1.91,1.73,1.73,0,0,0-2-.19,90.48,90.48,0,0,0-16.8,4.66c-7.61,2.91-15.58,6.19-20.19,9.09a116.42,116.42,0,0,1,11.11,9.41C685.48,393.17,689.92,396.77,692.72,400.42Z"/><path class="cls-1" d="M712.56,421.19a82.06,82.06,0,0,0,10.72-15.66,66.57,66.57,0,0,0,6.09-16.44,1.61,1.61,0,0,0-.1-1.91,1.73,1.73,0,0,0-2-.19,89.9,89.9,0,0,0-16.8,4.66c-7.61,2.91-15.58,6.19-20.18,9.09a116.35,116.35,0,0,1,11.1,9.41C705.31,413.94,709.75,417.54,712.56,421.19Z"/><path class="cls-1" d="M733.28,443.37a83,83,0,0,0,11.81-14.91,66.94,66.94,0,0,0,7.26-16,1.63,1.63,0,0,0,0-1.92,1.74,1.74,0,0,0-1.95-.32,90.19,90.19,0,0,0-17.1,3.53c-7.8,2.39-16,5.13-20.79,7.72A114,114,0,0,1,723,431.61C726.57,435.65,730.74,439.54,733.28,443.37Z"/><path class="cls-1" d="M688.56,445.29a82,82,0,0,0-11.29,15.28,66.63,66.63,0,0,0-6.7,16.22,1.62,1.62,0,0,0,0,1.91,1.72,1.72,0,0,0,2,.26,89.38,89.38,0,0,0,17-4.08c7.72-2.64,15.8-5.64,20.51-8.39a115.34,115.34,0,0,1-10.75-9.79C695.53,452.78,691.23,449,688.56,445.29Z"/><path class="cls-1" d="M658.71,427.73a80.94,80.94,0,0,0-7,17.53,66.32,66.32,0,0,0-2.26,17.33,1.65,1.65,0,0,0,.53,1.85,1.72,1.72,0,0,0,2-.23,88.3,88.3,0,0,0,15.36-8.07c6.78-4.43,13.82-9.3,17.67-13.1a118.16,118.16,0,0,1-13-6.87C667.41,433.29,662.26,430.71,658.71,427.73Z"/><path class="cls-1" d="M625.38,418.93a80.6,80.6,0,0,0-1.84,18.7,65.92,65.92,0,0,0,2.62,17.28,1.66,1.66,0,0,0,1,1.64,1.72,1.72,0,0,0,1.83-.72,86.58,86.58,0,0,0,12.56-11.76c5.3-6,10.74-12.54,13.39-17.19a123.38,123.38,0,0,1-14.38-3.26C635.3,422,629.63,420.88,625.38,418.93Z"/><path class="cls-1" d="M592.33,411.75a79.82,79.82,0,0,0-1.85,18.69,65.84,65.84,0,0,0,2.63,17.28,1.64,1.64,0,0,0,1,1.64,1.74,1.74,0,0,0,1.84-.72,87.1,87.1,0,0,0,12.55-11.76c5.3-6,10.74-12.54,13.4-17.19a121.07,121.07,0,0,1-14.39-3.26C602.25,414.85,596.58,413.69,592.33,411.75Z"/><path class="cls-1" d="M627.75,496.23a83.05,83.05,0,0,0,11.08-15.42,66.8,66.8,0,0,0,6.46-16.31,1.62,1.62,0,0,0,0-1.92,1.75,1.75,0,0,0-2-.23,90.24,90.24,0,0,0-16.9,4.3c-7.68,2.75-15.72,5.86-20.39,8.66A115.1,115.1,0,0,1,616.87,485C620.67,488.83,625,492.52,627.75,496.23Z"/><path class="cls-1" d="M650.55,522.56a82.49,82.49,0,0,0,11.31-15.27,67,67,0,0,0,6.72-16.22,1.62,1.62,0,0,0,0-1.91,1.74,1.74,0,0,0-2-.27,91.06,91.06,0,0,0-17,4.07c-7.72,2.64-15.8,5.63-20.52,8.37a116.92,116.92,0,0,1,10.75,9.8C643.59,515.05,647.89,518.81,650.55,522.56Z"/><path class="cls-1" d="M599.21,525A81.4,81.4,0,0,0,591,542a66.21,66.21,0,0,0-3.54,17.13,1.64,1.64,0,0,0,.39,1.88,1.75,1.75,0,0,0,2-.09,89.38,89.38,0,0,0,15.91-7c7.09-4,14.48-8.32,18.59-11.85a118.29,118.29,0,0,1-12.41-7.74C607.47,531.18,602.53,528.25,599.21,525Z"/><path class="cls-1" d="M566.13,513.31a80.47,80.47,0,0,0-3.53,18.46,65.85,65.85,0,0,0,1,17.44,1.64,1.64,0,0,0,.87,1.72,1.72,1.72,0,0,0,1.89-.57A87.94,87.94,0,0,0,580,539.72c5.83-5.55,11.84-11.58,14.9-16a120.89,120.89,0,0,1-14-4.46C575.73,517.24,570.19,515.61,566.13,513.31Z"/><path class="cls-1" d="M534.26,504.5a80,80,0,0,0-1.65,18.71,66.08,66.08,0,0,0,2.8,17.25,1.65,1.65,0,0,0,1,1.63,1.71,1.71,0,0,0,1.82-.74,86.65,86.65,0,0,0,12.44-11.87c5.24-6.08,10.61-12.64,13.21-17.32A120.18,120.18,0,0,1,549.51,509C544.22,507.51,538.53,506.4,534.26,504.5Z"/><path class="cls-1" d="M498.73,499.32a79.93,79.93,0,0,0,.67,18.77,66.3,66.3,0,0,0,4.92,16.81,1.67,1.67,0,0,0,1.23,1.5,1.69,1.69,0,0,0,1.71-.95,84.66,84.66,0,0,0,10.88-13.22c4.46-6.64,9-13.78,11-18.73a121.44,121.44,0,0,1-14.69-1.43C509,501.17,503.2,500.72,498.73,499.32Z"/><path class="cls-1" d="M461.68,496.05a80.1,80.1,0,0,0,3,18.55,66.62,66.62,0,0,0,7,16.11,1.71,1.71,0,0,0,1.41,1.35,1.68,1.68,0,0,0,1.58-1.15,83.66,83.66,0,0,0,9.14-14.4c3.59-7.11,7.18-14.73,8.55-19.87a120.52,120.52,0,0,1-14.77.29C472.09,496.68,466.29,496.92,461.68,496.05Z"/><path class="cls-1" d="M428.42,494.11a80.27,80.27,0,0,0-.06,18.78,66,66,0,0,0,4.25,17,1.66,1.66,0,0,0,1.17,1.54,1.68,1.68,0,0,0,1.75-.88,85.58,85.58,0,0,0,11.39-12.82c4.71-6.47,9.51-13.43,11.71-18.3a122.13,122.13,0,0,1-14.63-2C438.6,496.33,432.84,495.68,428.42,494.11Z"/><path class="cls-1" d="M392.89,486.13a79.54,79.54,0,0,0-.07,18.77,66.41,66.41,0,0,0,4.25,17,1.68,1.68,0,0,0,1.17,1.55,1.71,1.71,0,0,0,1.75-.89,85.93,85.93,0,0,0,11.4-12.81c4.71-6.47,9.51-13.44,11.7-18.31a121.71,121.71,0,0,1-14.62-2C403.06,488.34,397.3,487.69,392.89,486.13Z"/><path class="cls-1" d="M357.35,479.73a79.72,79.72,0,0,0-.06,18.78,66,66,0,0,0,4.24,17A1.68,1.68,0,0,0,362.7,517a1.73,1.73,0,0,0,1.76-.89,85.94,85.94,0,0,0,11.39-12.81c4.71-6.47,9.51-13.44,11.71-18.31a121.86,121.86,0,0,1-14.63-2C367.52,482,361.77,481.3,357.35,479.73Z"/><path class="cls-1" d="M330.83,468.5a80.33,80.33,0,0,0-3.73,18.43,65.9,65.9,0,0,0,.85,17.45,1.65,1.65,0,0,0,.85,1.73,1.74,1.74,0,0,0,1.9-.55,87.05,87.05,0,0,0,13.69-10.51c5.88-5.49,12-11.46,15.07-15.84a121.68,121.68,0,0,1-14-4.61C340.39,472.54,334.86,470.84,330.83,468.5Z"/><path class="cls-1" d="M286.09,485.7a83.47,83.47,0,0,0,13.07,13.89,70.76,70.76,0,0,0,15,9.75,1.75,1.75,0,0,0,1.94.37,1.6,1.6,0,0,0,.68-1.79,82.14,82.14,0,0,0-.56-16.89c-1-7.85-2.37-16.12-4.15-21.15A119,119,0,0,1,299.9,478C295.14,480.69,290.44,484,286.09,485.7Z"/><path class="cls-1" d="M255.14,485.32a80.63,80.63,0,0,0,5.64,18,67.71,67.71,0,0,0,9.21,15,1.73,1.73,0,0,0,1.59,1.15,1.68,1.68,0,0,0,1.41-1.35,83.73,83.73,0,0,0,7-15.48c2.54-7.52,5-15.54,5.63-20.82A122.47,122.47,0,0,1,271,484.07C265.54,484.55,259.84,485.56,255.14,485.32Z"/><path class="cls-1" d="M214,494.71a82.25,82.25,0,0,0,9.51,16.38,69.11,69.11,0,0,0,12.35,12.75,1.74,1.74,0,0,0,1.8.79,1.63,1.63,0,0,0,1.08-1.61,82,82,0,0,0,3.39-16.57c.8-7.87,1.43-16.22.86-21.51a119,119,0,0,1-13.74,5.24C224,491.8,218.64,494,214,494.71Z"/><path class="cls-1" d="M181.76,505.89a82,82,0,0,0,9.51,16.38A69.56,69.56,0,0,0,203.62,535a1.73,1.73,0,0,0,1.8.78,1.64,1.64,0,0,0,1.08-1.6,82.92,82.92,0,0,0,3.39-16.58c.8-7.87,1.43-16.22.86-21.5A120.88,120.88,0,0,1,197,501.37C191.75,503,186.4,505.15,181.76,505.89Z"/><path class="cls-1" d="M147.88,517.88a81.45,81.45,0,0,0,9.51,16.37A68.91,68.91,0,0,0,169.73,547a1.77,1.77,0,0,0,1.81.79,1.65,1.65,0,0,0,1.07-1.61A82.11,82.11,0,0,0,176,529.62c.81-7.88,1.43-16.23.87-21.51a119.73,119.73,0,0,1-13.74,5.24C157.86,515,152.52,517.14,147.88,517.88Z"/><path class="cls-1" d="M114.93,523.4a80.86,80.86,0,0,0,6.26,17.78,67.74,67.74,0,0,0,9.73,14.72,1.7,1.7,0,0,0,1.62,1.09,1.66,1.66,0,0,0,1.37-1.39,83.31,83.31,0,0,0,6.46-15.69c2.27-7.6,4.47-15.7,4.91-21a121.65,121.65,0,0,1-14.5,2.73C125.3,522.3,119.64,523.49,114.93,523.4Z"/><path class="cls-1" d="M83.53,529a81.28,81.28,0,0,0,6.25,17.78,67.86,67.86,0,0,0,9.73,14.72,1.72,1.72,0,0,0,1.63,1.09,1.65,1.65,0,0,0,1.36-1.38A83.73,83.73,0,0,0,109,545.5c2.28-7.6,4.47-15.7,4.91-21a119.5,119.5,0,0,1-14.49,2.73C93.9,527.89,88.23,529.08,83.53,529Z"/><path class="cls-1" d="M160.13,467.07a83.63,83.63,0,0,0-12.44-14.42,70.45,70.45,0,0,0-14.55-10.36,1.77,1.77,0,0,0-1.92-.46,1.63,1.63,0,0,0-.76,1.77,82.74,82.74,0,0,0-.2,16.9c.7,7.88,1.66,16.2,3.22,21.3A115.75,115.75,0,0,1,146,474.22C150.87,471.7,155.71,468.62,160.13,467.07Z"/><path class="cls-1" d="M188.75,440.83a85.25,85.25,0,0,0-15.36-11.5,72.11,72.11,0,0,0-16.51-7.1,1.78,1.78,0,0,0-2,0,1.58,1.58,0,0,0-.34,1.88,81.61,81.61,0,0,0,3.56,16.54c2.43,7.56,5.22,15.48,7.87,20.14a116.36,116.36,0,0,1,10.54-10C180.73,447.28,184.77,443.26,188.75,440.83Z"/><path class="cls-1" d="M138.62,385.26a81.37,81.37,0,0,0-8,17.09,65.84,65.84,0,0,0-3.34,17.17,1.61,1.61,0,0,0,.41,1.87,1.73,1.73,0,0,0,2-.11,89.14,89.14,0,0,0,15.84-7.16c7-4,14.38-8.48,18.45-12.05a117.06,117.06,0,0,1-12.5-7.61C147,391.32,142,388.43,138.62,385.26Z"/><path class="cls-1" d="M112.17,364.49a81.37,81.37,0,0,0-8,17.09,65.84,65.84,0,0,0-3.34,17.17,1.64,1.64,0,0,0,.41,1.87,1.74,1.74,0,0,0,2-.11A89.41,89.41,0,0,0,119,393.35c7-4,14.38-8.48,18.45-12.05A117,117,0,0,1,125,373.69C120.51,370.55,115.53,367.67,112.17,364.49Z"/><path class="cls-1" d="M84.07,346.91A81.49,81.49,0,0,0,76,364a66.28,66.28,0,0,0-3.34,17.16,1.65,1.65,0,0,0,.41,1.88,1.74,1.74,0,0,0,2-.11,89.56,89.56,0,0,0,15.83-7.17c7-4,14.38-8.47,18.46-12a117.7,117.7,0,0,1-12.5-7.61C92.41,353,87.43,350.09,84.07,346.91Z"/><path class="cls-1" d="M54.32,323a81.37,81.37,0,0,0-8,17.09,65.84,65.84,0,0,0-3.34,17.17,1.64,1.64,0,0,0,.41,1.87,1.74,1.74,0,0,0,2-.11,89.41,89.41,0,0,0,15.83-7.16c7-4,14.38-8.48,18.45-12.05a119.59,119.59,0,0,1-12.5-7.6C62.65,329,57.68,326.13,54.32,323Z"/><path class="cls-1" d="M605.53,475.47a82.09,82.09,0,0,0,11-15.47,66.8,66.8,0,0,0,6.4-16.33,1.63,1.63,0,0,0-.07-1.92,1.72,1.72,0,0,0-2-.22A89.72,89.72,0,0,0,604,445.9c-7.67,2.78-15.7,5.92-20.36,8.74a115.94,115.94,0,0,1,10.93,9.6C598.42,468.1,602.8,471.78,605.53,475.47Z"/><path class="cls-1" d="M667.1,376.46a82.25,82.25,0,0,0,10.72-15.66,66.31,66.31,0,0,0,6.1-16.45,1.61,1.61,0,0,0-.1-1.91,1.75,1.75,0,0,0-2-.19,89.84,89.84,0,0,0-16.8,4.67c-7.61,2.9-15.58,6.18-20.19,9.08A118.07,118.07,0,0,1,656,365.42C659.86,369.21,664.3,372.81,667.1,376.46Z"/><path class="cls-1" d="M692.53,302.16a87.36,87.36,0,0,0,18.85-4.56,71.46,71.46,0,0,0,16-8.16,1.68,1.68,0,0,0,1.26-1.47,1.64,1.64,0,0,0-1.32-1.43A88.64,88.64,0,0,0,711.65,279c-7.65-2.82-15.82-5.6-21.24-6.46A112,112,0,0,1,692,286.75C692.25,292.08,693,297.64,692.53,302.16Z"/><path class="cls-1" d="M421.34,265.74a85.6,85.6,0,0,0-10.42-15.8,70.78,70.78,0,0,0-12.84-12.07,1.71,1.71,0,0,0-1.79-.69,1.57,1.57,0,0,0-.91,1.65,84.42,84.42,0,0,0-1.92,16.63c-.14,7.86-.07,16.19.9,21.41A109.11,109.11,0,0,1,407.1,271C412,269.12,417,266.7,421.34,265.74Z"/><path class="cls-1" d="M376.71,288.11A85.17,85.17,0,0,0,366.3,272.3a70.65,70.65,0,0,0-12.85-12.06,1.67,1.67,0,0,0-1.79-.69,1.57,1.57,0,0,0-.91,1.64,84,84,0,0,0-1.91,16.64c-.14,7.86-.08,16.19.89,21.41a109.1,109.1,0,0,1,12.74-5.89C367.38,291.49,372.33,289.07,376.71,288.11Z"/><path class="cls-1" d="M399.86,276.12a86.13,86.13,0,0,0-10.42-15.8,70.65,70.65,0,0,0-12.85-12.06,1.7,1.7,0,0,0-1.79-.7,1.55,1.55,0,0,0-.9,1.65A83.14,83.14,0,0,0,372,265.85c-.14,7.86-.08,16.18.89,21.41a109.1,109.1,0,0,1,12.74-5.89C390.52,279.51,395.47,277.09,399.86,276.12Z"/><path class="cls-1" d="M355.23,298.49a86.13,86.13,0,0,0-10.42-15.8A70.78,70.78,0,0,0,332,270.62a1.7,1.7,0,0,0-1.79-.69,1.57,1.57,0,0,0-.9,1.65,83,83,0,0,0-1.92,16.63c-.14,7.86-.08,16.19.89,21.41A109.88,109.88,0,0,1,341,303.74C345.9,301.88,350.84,299.46,355.23,298.49Z"/><path class="cls-1" d="M304.77,296.59a87.22,87.22,0,0,0,13.68-13.27,69,69,0,0,0,9.38-14.75,1.56,1.56,0,0,0,.31-1.84,1.68,1.68,0,0,0-1.86-.49,91.87,91.87,0,0,0-17.21,1.81c-8,1.59-16.36,3.47-21.43,5.52a102.83,102.83,0,0,1,8.73,10.73C299.32,288.53,302.84,292.67,304.77,296.59Z"/><path class="cls-1" d="M287.42,275.83a87.82,87.82,0,0,0,13.68-13.28,69,69,0,0,0,9.38-14.75,1.56,1.56,0,0,0,.31-1.84,1.68,1.68,0,0,0-1.86-.49,91.33,91.33,0,0,0-17.22,1.82c-8,1.58-16.36,3.46-21.42,5.51A104.09,104.09,0,0,1,279,263.53C282,267.76,285.49,271.9,287.42,275.83Z"/><path class="cls-1" d="M270.89,256.65a87.22,87.22,0,0,0,13.68-13.27A69,69,0,0,0,294,228.63a1.56,1.56,0,0,0,.31-1.84,1.66,1.66,0,0,0-1.86-.49,92,92,0,0,0-17.22,1.81c-8,1.59-16.36,3.46-21.42,5.51a105.34,105.34,0,0,1,8.72,10.74C265.43,248.59,269,252.73,270.89,256.65Z"/><path class="cls-1" d="M256.87,234.89a86.62,86.62,0,0,0,12-14.69,67.65,67.65,0,0,0,7.59-15.68,1.56,1.56,0,0,0,.1-1.86,1.67,1.67,0,0,0-1.91-.29,92.62,92.62,0,0,0-16.89,3.69c-7.73,2.45-15.85,5.23-20.64,7.82a105.87,105.87,0,0,1,9.92,9.72C250.5,227.47,254.49,231.2,256.87,234.89Z"/><path class="cls-1" d="M238.15,218.45a85.54,85.54,0,0,0,10.09-16A67.77,67.77,0,0,0,253.78,186a1.57,1.57,0,0,0-.14-1.86,1.68,1.68,0,0,0-1.93-.05,91.12,91.12,0,0,0-16.3,5.66c-7.36,3.34-15.06,7.07-19.49,10.21A107.47,107.47,0,0,1,227,208.4C230.9,211.84,235.32,215.07,238.15,218.45Z"/><path class="cls-1" d="M220.41,204.24A83.9,83.9,0,0,0,224.92,186,67.25,67.25,0,0,0,225,168.7a1.59,1.59,0,0,0-.73-1.72,1.68,1.68,0,0,0-1.86.51,89.22,89.22,0,0,0-13.7,10.23c-6,5.37-12.1,11.2-15.31,15.5A110.71,110.71,0,0,1,206.6,198C211.4,200.11,216.64,201.86,220.41,204.24Z"/><path class="cls-1" d="M194.47,193.7a82.84,82.84,0,0,0,1.87-18.65,67.56,67.56,0,0,0-2.42-17.15,1.6,1.6,0,0,0-1-1.61,1.64,1.64,0,0,0-1.76.76A87.51,87.51,0,0,0,179.07,169c-5.13,6.11-10.38,12.71-12.95,17.4a110.18,110.18,0,0,1,13.79,2.95C185,190.81,190.4,191.85,194.47,193.7Z"/><path class="cls-1" d="M168.08,189.7a83.72,83.72,0,0,0-5.75-17.9,69,69,0,0,0-9.1-14.91,1.68,1.68,0,0,0-1.54-1.12,1.61,1.61,0,0,0-1.32,1.36A84.75,84.75,0,0,0,144,172.69c-2.27,7.55-4.48,15.6-5,20.88a112.39,112.39,0,0,1,13.9-2.43C158.15,190.59,163.58,189.51,168.08,189.7Z"/><path class="cls-1" d="M143.86,190.4a84.76,84.76,0,0,0-8.45-16.86,69.61,69.61,0,0,0-11.3-13.43,1.69,1.69,0,0,0-1.7-.89,1.57,1.57,0,0,0-1.09,1.53,83.39,83.39,0,0,0-3.91,16.31c-1.09,7.79-2,16.07-1.7,21.36A109.74,109.74,0,0,1,129.08,194C134.18,192.71,139.39,190.87,143.86,190.4Z"/><path class="cls-1" d="M121.18,202a87.44,87.44,0,0,0-12.78-14.09,72.1,72.1,0,0,0-14.6-10,1.72,1.72,0,0,0-1.88-.42,1.55,1.55,0,0,0-.63,1.76A83.13,83.13,0,0,0,92,195.94c1.1,7.79,2.47,16,4.25,21a106.81,106.81,0,0,1,11.67-7.69C112.49,206.71,117,203.6,121.18,202Z"/><path class="cls-1" d="M100.52,218a86.6,86.6,0,0,0-12.78-14.09,71.69,71.69,0,0,0-14.6-10,1.7,1.7,0,0,0-1.88-.42,1.55,1.55,0,0,0-.63,1.76,83,83,0,0,0,.72,16.72c1.09,7.79,2.47,16,4.25,21a107.6,107.6,0,0,1,11.66-7.68C91.83,222.69,96.33,219.57,100.52,218Z"/><path class="cls-1" d="M80.76,223.22a85.38,85.38,0,0,0-9.5,16.33,67.73,67.73,0,0,0-5,16.64,1.57,1.57,0,0,0,.22,1.86,1.69,1.69,0,0,0,1.93,0,90.79,90.79,0,0,0,16.08-6.21c7.24-3.58,14.8-7.57,19.11-10.85a106.16,106.16,0,0,1-11.37-8.09C88.25,229.58,83.71,226.51,80.76,223.22Z"/><path class="cls-1" d="M100.1,242.63a83.26,83.26,0,0,0,1.62,18.68,67.59,67.59,0,0,0,5.57,16.45,1.63,1.63,0,0,0,1.25,1.42,1.66,1.66,0,0,0,1.6-1.05,86.65,86.65,0,0,0,9.7-13.87c3.9-6.89,7.85-14.29,9.51-19.35a111.28,111.28,0,0,1-14.11-.52C110,243.83,104.45,243.75,100.1,242.63Z"/><path class="cls-1" d="M126.87,243.18a83.77,83.77,0,0,0,5.7,17.91A68.75,68.75,0,0,0,141.63,276a1.65,1.65,0,0,0,1.54,1.13,1.59,1.59,0,0,0,1.32-1.35,85.05,85.05,0,0,0,6.43-15.55c2.3-7.54,4.53-15.58,5-20.87a108.93,108.93,0,0,1-13.9,2.4C136.8,242.31,131.37,243.38,126.87,243.18Z"/><path class="cls-1" d="M158.08,238.45a82.73,82.73,0,0,0-.13,18.74,67.28,67.28,0,0,0,4,16.87,1.6,1.6,0,0,0,1.11,1.52,1.64,1.64,0,0,0,1.68-.91,86.74,86.74,0,0,0,11-13c4.53-6.53,9.15-13.56,11.28-18.45a111.25,111.25,0,0,1-14-1.74C167.82,240.5,162.3,239.94,158.08,238.45Z"/><path class="cls-1" d="M186.68,244.92a83.6,83.6,0,0,0-7.06,17.45,67.07,67.07,0,0,0-2.51,17.14,1.58,1.58,0,0,0,.48,1.81,1.7,1.7,0,0,0,1.91-.27,90.08,90.08,0,0,0,15-8.31c6.65-4.53,13.57-9.49,17.36-13.32a110.36,110.36,0,0,1-12.43-6.48C195,250.2,190.07,247.77,186.68,244.92Z"/><path class="cls-1" d="M217.38,262.9a86.52,86.52,0,0,0-12.59,14.25,68.39,68.39,0,0,0-8.19,15.4,1.57,1.57,0,0,0-.16,1.86,1.66,1.66,0,0,0,1.89.35,91.48,91.48,0,0,0,17-3.08c7.82-2.17,16-4.66,20.93-7.08a106.94,106.94,0,0,1-9.55-10.06C223.45,270.54,219.61,266.68,217.38,262.9Z"/><path class="cls-1" d="M233.38,285.79a88.18,88.18,0,0,0-13.85,13.11A68.9,68.9,0,0,0,210,313.53a1.55,1.55,0,0,0-.33,1.84,1.66,1.66,0,0,0,1.85.51,92,92,0,0,0,17.24-1.6c8-1.49,16.4-3.27,21.49-5.25a104.24,104.24,0,0,1-8.58-10.85C238.73,293.92,235.26,289.74,233.38,285.79Z"/><path class="cls-1" d="M252.12,311.74a89.12,89.12,0,0,0-15.65,11.05A70.08,70.08,0,0,0,224.82,336a1.59,1.59,0,0,0-.6,1.77,1.65,1.65,0,0,0,1.76.77,93.2,93.2,0,0,0,17.3.8c8.12-.37,16.72-1,22-2.22a102.83,102.83,0,0,1-6.89-11.92C256.21,320.53,253.39,315.91,252.12,311.74Z"/><path class="cls-1" d="M198.83,344.21a82.56,82.56,0,0,0-.69-18.73,67.54,67.54,0,0,0-4.75-16.7,1.44,1.44,0,0,0-2.82-.49,86.74,86.74,0,0,0-10.38,13.4c-4.24,6.71-8.55,13.92-10.46,18.89a110.78,110.78,0,0,1,14.07,1.17C189,342.55,194.55,342.89,198.83,344.21Z"/><path class="cls-1" d="M164.35,338.1a82.7,82.7,0,0,0,1.45-18.68,67,67,0,0,0-2.82-17.1,1.6,1.6,0,0,0-1-1.59,1.64,1.64,0,0,0-1.74.8,86.79,86.79,0,0,0-11.85,12.21c-5,6.21-10.09,12.92-12.55,17.66a110,110,0,0,1,13.85,2.66C154.78,335.41,160.24,336.34,164.35,338.1Z"/><path class="cls-1" d="M708.92,472.24a65.18,65.18,0,0,0,16.69,9.45,66.26,66.26,0,0,0,18.6,4.23,2.29,2.29,0,0,0,2.33-.4,2.08,2.08,0,0,0,.64-2.2A76,76,0,0,0,745,465.5a77.13,77.13,0,0,0-7.4-19c-3.82,4.19-8.16,8.57-13.06,13A191.41,191.41,0,0,1,708.92,472.24Z"/><path d="M713.3,469.84a12.73,12.73,0,0,0,2.54,3.2,13.72,13.72,0,0,0,3.47,2.29.54.54,0,0,0,.52.1.53.53,0,0,0,.36-.39,16.47,16.47,0,0,0,1.32-3.73,15.65,15.65,0,0,0,.36-4.38c-1.22.54-2.56,1.08-4,1.59S714.71,469.5,713.3,469.84Z"/><path d="M724,465.09a13,13,0,0,0,3.52,2.16,14.48,14.48,0,0,0,4.07,1,.54.54,0,0,0,.53-.08.49.49,0,0,0,.19-.48,16.17,16.17,0,0,0-.08-3.95,15.79,15.79,0,0,0-1.22-4.22c-1,.91-2,1.86-3.22,2.82S725.2,464.31,724,465.09Z"/><path d="M732.39,457.81a13.35,13.35,0,0,0,4.15.26,14.2,14.2,0,0,0,4.07-1,.53.53,0,0,0,.43-.32.48.48,0,0,0-.07-.51,17.48,17.48,0,0,0-2-3.43,16.15,16.15,0,0,0-3.18-3.13c-.38,1.24-.84,2.57-1.42,4S733.05,456.57,732.39,457.81Z"/><path class="cls-5" d="M598.5,166.52c7.1,3.92,14.57,10.78,18.76,23.95"/><path class="cls-6" d="M764.16,235.19c-1,9.48,6.14,18,16,19s18.72-5.87,19.75-15.36-7.85-38.72-15.14-51.68C779.49,198.81,765.19,225.7,764.16,235.19Z"/><path class="cls-6" d="M40.08,280.77c-.88,8.17,5.3,15.49,13.81,16.36s16.13-5.06,17-13.24-6.76-33.38-13-44.55C53.3,249.41,41,272.59,40.08,280.77Z"/><path class="cls-6" d="M444.83,558.25a13.06,13.06,0,0,0,12,14.18A13.28,13.28,0,0,0,471.53,561c.77-7.08-5.86-28.92-11.31-38.59C456.28,531.09,445.6,551.17,444.83,558.25Z"/><path class="cls-7" d="M562.27,259.56c24.7-14.39,46.57-3.65,55.92,4.06h0c3.06-5.75,5.9-12.66.35-15-9.92-4.33-24.89-9.09-41.46-3.93-8.79,2.93-14.69,12.83-14.81,14.87Z"/><path class="cls-7" d="M620.36,253h0c2.61,1.39,1.31,5.48-.81,8.93a29,29,0,0,0-2.38,4.66c-1.2,3.31-3.36,4-5.93,2.16h0c-2.46-1.91-3.85-5.21-2.38-8,.69-1.33,1.47-2.72,2.37-4.18C613.07,253.42,617.78,251.6,620.36,253Z"/><path class="cls-7" d="M572.75,248.6h0c4.94-2.11,8.39.2,7.84,2.87-.23,1.23-.44,2.35-.65,3.36-.48,2.24-4.05,3.56-8.31,4.43h0c-4.28.79-7.77,1.67-7.62.4.06-.63.12-1.36.15-2.21C564.22,255.78,567.83,250.7,572.75,248.6Z"/><path class="cls-8" d="M601.73,285.41c-.06-3.41,2.73-14.8-10.11-21.07-6.26-3.31-15.15-2.63-21.27.49-6.34,2.92-9.91,8.27-10.42,9.54"/><path class="cls-9" d="M552.23,273.73c0,2.82,18.12-.65,33.26,6.22,16.09,6,23.12,12.48,27.83-.5,2.71-7,12.33-19.34,9.21-26.22-2.37-5.38-12.6-11.22-24.25-11.87-11.15-.87-23.78,4.5-31.87,11.29C555.38,262.62,552.5,272,552.23,273.73Z"/><path class="cls-10" d="M588.72,266c-4.63,2.89-4.13,5-5.31,5"/></svg>