<svg id="Layer_1" data-name="Layer 1" xmlns="http://www.w3.org/2000/svg" width="840" height="605" viewBox="0 0 840 605"><defs><style>.cls-1,.cls-3{fill:#f7931e;}.cls-2{fill:#fbb03b;}.cls-3{stroke:#fbb03b;stroke-linejoin:round;stroke-width:10px;}.cls-3,.cls-5{stroke-linecap:round;}.cls-4,.cls-5,.cls-8,.cls-9{stroke:#000;stroke-miterlimit:10;}.cls-5,.cls-8,.cls-9{fill:none;}.cls-5,.cls-8{stroke-width:5px;}.cls-6{fill:#fff;}.cls-7{fill:#ff7bac;}</style></defs><title>Kat mod højre</title><ellipse class="cls-1" cx="250.18" cy="343.2" rx="52.3" ry="51.97"/><path class="cls-1" d="M443.94,471.25a314.17,314.17,0,0,1,76.4,50.45c26.73,23.94,16.38,27.94,28,46.48,3,2.64,13.46,1.44,14.94.35s15.92-2.5,14.1-6.43c-5.31-19.23-7.29-23.25-20.51-53.93a803.58,803.58,0,0,0-45.62-89.26,186.78,186.78,0,0,1-29.18,29A184.72,184.72,0,0,1,443.94,471.25Z"/><path class="cls-1" d="M292.82,263.79A405.69,405.69,0,0,1,179.89,229.4c-41.83-19.79-30.55-28.51-51.71-47.15-4.66-2.17-51-17.18-52.47-15.29s-.5,5.2,3.2,9.38a751.61,751.61,0,0,0,60.91,83.09,1041.7,1041.7,0,0,0,89.27,93.5,239.46,239.46,0,0,1,25.29-46.45A236.46,236.46,0,0,1,292.82,263.79Z"/><path class="cls-1" d="M270,267c4-23.17-4.54-52-17.5-80.67-16.5-40.49-38.5-62-89-56.17-20-5.5.49-48.47,2.41-48.72s53.44.84,54.88,4.67c56.26,26.2,60.75,45.7,77,81.62,13.8,33.6,21.48,67,27.72,91.41a218.11,218.11,0,0,0-43.06-.18C265.7,260.59,283.76,262.59,270,267Z"/><path class="cls-1" d="M250.9,270.43a403.74,403.74,0,0,1-97.06,66.87c-41.54,20.41-41.44,6.21-69.28,11.19C80,350.79,39.39,377.7,40,380s3.8,3.6,9.4,3.31a762,762,0,0,0,103.38,3.86A1052.23,1052.23,0,0,0,282,375.33a239.49,239.49,0,0,1-21.08-48.48A234.14,234.14,0,0,1,250.9,270.43Z"/><path class="cls-1" d="M599.29,349.73,465.34,228.09c-35.61-.29-86.16,2.59-142,17.41-55.2,14.64-95.72,35.67-122.3,52.29-5.94,1.58-9.83,6-10,11.4-.16,5.06,2.87,10.56,9.19,14.05a729.74,729.74,0,0,0,113,84.44,784.75,784.75,0,0,0,147.44,69.59Z"/><path class="cls-1" d="M529.73,406.31a313.92,313.92,0,0,1,79,46.35c28,22.5,17.85,27,30.42,44.95,3.13,2.47,13.52.72,15-.45s15.76-3.33,13.74-7.16c-6.33-18.92-8.53-22.84-23.37-52.78a806.89,806.89,0,0,0-50.3-86.72A187,187,0,0,1,566.56,381,184.55,184.55,0,0,1,529.73,406.31Z"/><ellipse class="cls-2" cx="253.73" cy="336.91" rx="52.3" ry="51.97"/><path class="cls-2" d="M447.49,465a313.88,313.88,0,0,1,76.4,50.45c26.73,23.94,16.38,27.94,28,46.48,3,2.64,13.47,1.44,15,.34s15.92-2.49,14.1-6.42c-5.31-19.23-7.29-23.26-20.51-53.94a804.22,804.22,0,0,0-45.62-89.25,186.78,186.78,0,0,1-29.18,29A184.72,184.72,0,0,1,447.49,465Z"/><path class="cls-2" d="M297.12,257.73a405.69,405.69,0,0,1-112.93-34.39c-41.83-19.79-30.54-28.5-51.71-47.15C127.82,174,81.44,159,80,160.91s-.49,5.19,3.21,9.38a750,750,0,0,0,60.91,83.08,1042,1042,0,0,0,89.26,93.51,240.07,240.07,0,0,1,25.29-46.46A236.83,236.83,0,0,1,297.12,257.73Z"/><path class="cls-2" d="M273.56,260.75c4-23.17-4.54-52-17.5-80.67-16.5-40.49-38.5-62-89-56.18-20-5.49.49-48.47,2.41-48.71s53.44.84,54.88,4.66c56.26,26.21,60.75,45.7,77,81.63,13.8,33.6,21.47,67,27.72,91.41A218.85,218.85,0,0,0,286,252.7C269.25,254.31,287.31,256.31,273.56,260.75Z"/><path class="cls-2" d="M254.45,264.15A403.74,403.74,0,0,1,157.39,331c-41.54,20.41-41.44,6.21-69.28,11.19-4.6,2.3-45.17,29.21-44.55,31.5s3.8,3.6,9.4,3.3a758.75,758.75,0,0,0,103.38,3.86A1052.44,1052.44,0,0,0,285.5,369.05a239.34,239.34,0,0,1-21.08-48.49A234.07,234.07,0,0,1,254.45,264.15Z"/><path class="cls-2" d="M602.83,343.45,468.89,221.81c-35.61-.29-86.16,2.59-142,17.41-55.2,14.64-95.72,35.66-122.3,52.29-5.94,1.58-9.83,6-10,11.4-.16,5.06,2.87,10.56,9.18,14a729.73,729.73,0,0,0,113,84.44A783.2,783.2,0,0,0,464.21,471Z"/><path class="cls-3" d="M656.52,364.07c12.61-5.89,27.85-40.81,35.25-92.69,8.37-58.71,4.64-103.53,1.31-116.29a19.47,19.47,0,0,0-18.22-14.76,170.67,170.67,0,0,0-50.23-10,250.2,250.2,0,0,0-31,1s-15.48,1.24-31.73,4c-21.9,3.74-59.59,14.1-105.62,32.32a178.77,178.77,0,0,0,16.58,61.69c3.13,6.58,17.1,34.87,56.27,68C573.1,334.58,620.36,353.81,656.52,364.07Z"/><path class="cls-1" d="M461.5,473.83c12.26-22.47,21-43.49,35.05-81.58,13.91-37.64,20.65-67.17,24.12-87.06,1.49-4.05,1.33-7.33-.43-8.44s-4.54-.15-7.87,3.2a619.25,619.25,0,0,0-67.08,55.85,851.19,851.19,0,0,0-73.81,80.36c13.81,4.52,26.89,13.17,42.32,18.93C430,461.14,444.64,467.15,461.5,473.83Z"/><path class="cls-1" d="M343,420.38c4.39-9.05,7.21-19.65,10.94-35.65a148.24,148.24,0,0,0,4-37.37c.4-1.7-.05-3.21-1.14-3.89s-2.54-.52-4,.68A187.53,187.53,0,0,0,321.55,363a195.75,195.75,0,0,0-30.19,27.21c8.16,3.43,14.58,9.81,23.37,15C324.38,410.93,334.42,416.18,343,420.38Z"/><path class="cls-1" d="M245.26,387.84c3.73-12.48,5.77-25.46,8.21-46.18a223.16,223.16,0,0,0,.89-46.82c.26-2.2-.33-3.9-1.52-4.36s-2.66.23-4.09,2.19a279.14,279.14,0,0,0-30.54,33.43c-13.29,17-22.94,39.77-30.19,52.75a114,114,0,0,0,22.38-.64c4.37-.57,6-1.06,8-1.12.27,0,1.59-.55,2.18.09,3.08,3.37,6.85,4.5,9.63,6.15C233.13,385.06,237.39,387.24,245.26,387.84Z"/><path class="cls-1" d="M274.55,253.63c2.52,9.69,10.84,20.73,18.34,35.27a149.49,149.49,0,0,0,21,31c.8,1.55,2.11,2.42,3.37,2.23s2.24-1.23,2.59-3.09a184.81,184.81,0,0,0,11.37-34.3c3.8-16.54,8.29-37.5,8.64-48.94-8.34,2.6-23,6.52-33.31,9.61C295.94,248.57,287.33,249.66,274.55,253.63Z"/><path class="cls-1" d="M503.84,499.24a83.41,83.41,0,0,0,6.66-17.09,67.54,67.54,0,0,0,2.33-16.78,1.37,1.37,0,0,0-2.28-1.5,84.53,84.53,0,0,0-14.27,8.18c-6.32,4.45-11.23,8.08-14.83,11.84,3.61,1.62,7.31,4.67,11.18,7.1A92.86,92.86,0,0,1,503.84,499.24Z"/><path class="cls-1" d="M182.21,222c-2.11,4-3.3,12.9-5.21,20.06s-.24,6.18-.27,10.12a1.55,1.55,0,0,0,.45,1.76,1.57,1.57,0,0,0,1.82-.26,85.1,85.1,0,0,0,14.3-8.14c6.33-4.43,11.27-7.92,14.88-11.68-3.61-1.63-10-3.34-13.85-5.78C190.09,225.44,185.44,224.83,182.21,222Z"/><path class="cls-1" d="M273.51,227.06c2.88-3.51,12.85-15.51,16.19-22.14s1.5-6,2.34-9.85a1.37,1.37,0,0,0-1.92-1.93,86,86,0,0,0-15.67,5.07c-7.1,3.06-4.42.87-8.72,3.81a107.91,107.91,0,0,0,4.14,13.08C271.74,219.73,270.92,223.67,273.51,227.06Z"/><path class="cls-1" d="M286,129.06c-3.87,2.4-11.33,13.34-16.64,18.55s-3.35,5.21-5.39,8.58a1.36,1.36,0,0,0,1.18,2.44,85.36,85.36,0,0,0,16.48.2c7.72-.63,12.87.18,17.89-1.24-2.27-3.22-4.52-9.36-6.61-13.4A137.3,137.3,0,0,1,286,129.06Z"/><path class="cls-1" d="M201.1,76.48c-1.21,4.53-.16,9.23-.56,16.83s1,6.21,1.76,10.13a1.58,1.58,0,0,0,.79,1.65,1.55,1.55,0,0,0,1.68-.72,89.52,89.52,0,0,0,12-11.68c5.16-6,7.85-6.75,10.55-11.39A58.59,58.59,0,0,0,214,76.49C208.76,75.34,205,76.93,201.1,76.48Z"/><path class="cls-1" d="M233.75,143c1.43-2.53,3.24-9.4,4.6-13.94s.27-3.95.37-6.47a1,1,0,0,0-.26-1.14,1,1,0,0,0-1.17.14,53.9,53.9,0,0,0-9.3,4.93c-4.14,2.71-4.62,2.73-7,5.06,2.27,1.12,3.55,3.47,6,5.54A56.31,56.31,0,0,1,233.75,143Z"/><path class="cls-1" d="M136,338.29a83.46,83.46,0,0,0,9.11,15.94,68.33,68.33,0,0,0,11.61,12.4,1.6,1.6,0,0,0,1.67.76,1.54,1.54,0,0,0,.94-1.57A83.29,83.29,0,0,0,162,349.66a100.67,100.67,0,0,0-.63-19.64A92.81,92.81,0,0,1,136,338.29Z"/><path class="cls-1" d="M133.51,381.24a64.62,64.62,0,0,0-3.88-15.65,56.58,56.58,0,0,0-7.33-13.37,1.54,1.54,0,0,0-1.36-1.07,1.5,1.5,0,0,0-1.37,1.06A70.46,70.46,0,0,0,112.16,365c-2.82,6.25-6,11.55-6.93,16,3.91-.53,9.36.16,13.93.09C124.18,381,129.27,380.75,133.51,381.24Z"/><path class="cls-1" d="M133.51,241.73a104.36,104.36,0,0,0,12.23-15.29,71.18,71.18,0,0,0,7.3-15,1.22,1.22,0,1,0-1.6-1.85,89.11,89.11,0,0,0-15.5,4.56,108.22,108.22,0,0,0-17.17,8.44c2.78,2.25,4.46,5.66,7.22,8.69A76.48,76.48,0,0,1,133.51,241.73Z"/><path class="cls-1" d="M551.06,481.89c-3.95,2.26-8.3,6-13.79,11a67.46,67.46,0,0,0-11.09,12.86,1.56,1.56,0,0,0-.57,1.73,1.53,1.53,0,0,0,1.67.75,85.22,85.22,0,0,0,16.46.8,96.25,96.25,0,0,0,18.74-2.54,87.74,87.74,0,0,0-5.37-11.44A79.8,79.8,0,0,0,551.06,481.89Z"/><path class="cls-1" d="M366.84,230.81c3.89,12.07,12.69,29.48,24.09,47.28a178.55,178.55,0,0,0,31.86,37.46,5.06,5.06,0,0,0,5.07,2.53,5,5,0,0,0,3.84-4.16,222.26,222.26,0,0,0,16.61-44.55c5.48-21.34,9.69-33.31,10.07-47.87-14,.51-28.88,1.46-44.45,3C397.27,226.17,381.54,228.34,366.84,230.81Z"/><path class="cls-2" d="M634.76,128A179.52,179.52,0,0,0,609,76.65a190.6,190.6,0,0,0-40.77-41.27,7.29,7.29,0,0,0-6.88-2.81,7.18,7.18,0,0,0-5.89,4.52A240.21,240.21,0,0,0,527,85.78a227.86,227.86,0,0,0-16.85,60.27c18-4.34,37.8-8.31,59.14-11.49C592.76,131.07,614.69,129.05,634.76,128Z"/><path class="cls-1" d="M627,125.25a141,141,0,0,0-20.28-40.39,150.09,150.09,0,0,0-32.06-32.45,5.71,5.71,0,0,0-5.41-2.21,5.62,5.62,0,0,0-4.63,3.55A189.25,189.25,0,0,0,542.27,92,180,180,0,0,0,529,139.43c14.19-3.41,29.73-6.54,46.51-9C594,127.65,611.19,126.06,627,125.25Z"/><path class="cls-1" d="M172.7,72.84a85.23,85.23,0,0,0-27.1,5.68,92,92,0,0,0-24.32,14,3.58,3.58,0,0,0-2.17,2.9,3.5,3.5,0,0,0,1.35,3.35,116,116,0,0,0,19,19.57A108.79,108.79,0,0,0,165.3,134c.27-9.07.93-18.91,2.16-29.39C168.8,93.06,170.64,82.45,172.7,72.84Z"/><ellipse class="cls-4" cx="644.75" cy="239.56" rx="16.61" ry="11.23" transform="translate(8.6 501.09) rotate(-42.73)"/><ellipse class="cls-4" cx="609.47" cy="206.38" rx="16.61" ry="11.72" transform="translate(21.49 467.78) rotate(-42.68)"/><path class="cls-5" d="M510.4,209.48c6.76-2.69,15.86-4,27.69.64,13.68,5.32,19.08,14.87,21.75,17.82"/><path class="cls-5" d="M513.46,220.37c5.77-2.39,13.56-3.57,23.74.25,11.79,4.42,16.51,12.55,18.83,15"/><path class="cls-5" d="M533,229.45c11.72,4.57,16.35,12.75,18.64,15.28"/><path class="cls-5" d="M509.23,228.9c5.8-2.31,13.6-3.39,23.74.55"/><path class="cls-5" d="M636.08,279.38c6.89,2.37,14.59,7.34,20.49,18.52,6.82,12.93,4.59,23.65,4.66,27.63"/><path class="cls-5" d="M631.21,289.59c5.93,2,12.59,6.14,17.76,15.66,6,11,4.18,20.23,4.29,23.63"/><path class="cls-5" d="M639.94,309.16c5.84,11.09,3.93,20.28,4,23.68"/><path class="cls-5" d="M622.39,293.28c5.9,2,12.5,6.3,17.55,15.88"/><path class="cls-5" d="M626.79,248.72c-7.51-2-16.09-6.75-23.19-18.23"/><path class="cls-5" d="M648,219.18c7.67-1.34,17.46-.67,28.79,6.72"/><path d="M551.29,565.48a12.27,12.27,0,0,0,1.41,3.69,13,13,0,0,0,2.5,3.09.5.5,0,0,0,.45.24.5.5,0,0,0,.43-.27,16.61,16.61,0,0,0,2.27-3.13,15.92,15.92,0,0,0,1.57-4c-1.26.18-2.64.32-4.12.39S552.66,565.55,551.29,565.48Z"/><path d="M562.38,564a12.63,12.63,0,0,0,2.6,3A13,13,0,0,0,568.4,569a.51.51,0,0,0,.82-.33,16.53,16.53,0,0,0,1-3.71,15.82,15.82,0,0,0,.09-4.3c-1.13.6-2.38,1.2-3.74,1.77S563.7,563.54,562.38,564Z"/><path d="M572.09,559.42a12.78,12.78,0,0,0,3.72,1.38,13,13,0,0,0,4,.16.51.51,0,0,0,.56-.68,16.49,16.49,0,0,0-.87-3.76,16.14,16.14,0,0,0-2-3.81c-.7,1.06-1.51,2.18-2.43,3.34A43.32,43.32,0,0,1,572.09,559.42Z"/><path d="M51.43,367.58a14.67,14.67,0,0,0-.13,4.73,15.57,15.57,0,0,0,1.35,4.56.6.6,0,0,0,.39.47.62.62,0,0,0,.61-.1,20.3,20.3,0,0,0,4-2.44,19.36,19.36,0,0,0,3.57-3.73c-1.48-.38-3.07-.86-4.75-1.45A53.89,53.89,0,0,1,51.43,367.58Z"/><path d="M64.44,370.92A15,15,0,0,0,66,375.4a15.91,15.91,0,0,0,2.85,3.83.6.6,0,0,0,.53.3.56.56,0,0,0,.53-.3,19.39,19.39,0,0,0,2.88-3.64,18.91,18.91,0,0,0,2.06-4.73c-1.52.15-3.17.25-5,.27C67.9,371.15,66.09,371.06,64.44,370.92Z"/><path d="M77.29,370.3a15,15,0,0,0,3.49,3.21,16.3,16.3,0,0,0,4.35,2,.62.62,0,0,0,.62,0,.59.59,0,0,0,.32-.51,20.53,20.53,0,0,0,.76-4.57,19,19,0,0,0-.47-5.13c-1.27.85-2.67,1.73-4.22,2.59C80.44,368.85,78.81,369.64,77.29,370.3Z"/><path d="M94,164.6a14.67,14.67,0,0,0-4,2.6,15.6,15.6,0,0,0-3,3.72.58.58,0,0,0-.16.59.57.57,0,0,0,.43.43,20,20,0,0,0,4.28,1.82,18.89,18.89,0,0,0,5.13.77c-.54-1.42-1.06-3-1.53-4.69C94.67,168,94.29,166.22,94,164.6Z"/><path d="M98.71,177.1a15,15,0,0,0-2.83,3.8,15.39,15.39,0,0,0-1.52,4.52.59.59,0,0,0,0,.6.6.6,0,0,0,.56.26,20,20,0,0,0,4.65.25,18.84,18.84,0,0,0,5.08-1c-1-1.15-2-2.45-3-3.88A51.76,51.76,0,0,1,98.71,177.1Z"/><path d="M106.58,187.21a14.87,14.87,0,0,0-.64,4.69,15.43,15.43,0,0,0,.85,4.68.6.6,0,0,0,.94.47,19.51,19.51,0,0,0,4.21-2,19,19,0,0,0,4-3.32c-1.43-.54-3-1.18-4.56-1.95C109.58,188.94,108,188.07,106.58,187.21Z"/><path class="cls-2" d="M533.28,400a313.92,313.92,0,0,1,79,46.35c28,22.5,17.85,27,30.42,44.94,3.13,2.48,13.52.73,14.95-.44s15.76-3.33,13.74-7.16c-6.33-18.92-8.53-22.84-23.37-52.78a805.09,805.09,0,0,0-50.31-86.72,186.48,186.48,0,0,1-27.59,30.51A184.55,184.55,0,0,1,533.28,400Z"/><path class="cls-2" d="M694.77,274.81a182.32,182.32,0,0,0,54.75-18.35A191.19,191.19,0,0,0,796.25,222a7.36,7.36,0,0,0,0-12.8,242.54,242.54,0,0,0-44.65-34.61,231.6,231.6,0,0,0-57.78-24.84c1.85,18.35,3.11,38.35,3.35,59.79C697.49,233.05,696.5,254.91,694.77,274.81Z"/><path class="cls-1" d="M697.23,260.11a138.93,138.93,0,0,0,41.81-14,146.09,146.09,0,0,0,35.69-26.33,5.52,5.52,0,0,0,2.86-4.88,5.43,5.43,0,0,0-2.83-4.89,184.41,184.41,0,0,0-34.09-26.43,176.83,176.83,0,0,0-44.13-19c1.42,14,2.38,29.29,2.56,45.66C699.31,228.23,698.55,244.92,697.23,260.11Z"/><path class="cls-1" d="M612.52,367.16a84.43,84.43,0,0,0-14.9,10.8,67.76,67.76,0,0,0-11.09,12.86,1.37,1.37,0,0,0,1.1,2.49,86.16,86.16,0,0,0,16.46.79,147.26,147.26,0,0,0,23-2.91,122.27,122.27,0,0,1-7.59-12.88C617.33,373.79,613.73,371.24,612.52,367.16Z"/><path class="cls-1" d="M618.17,452.09a83.88,83.88,0,0,0,9.33-15.82,67.14,67.14,0,0,0,5-16.19,1.37,1.37,0,0,0-2-1.84,85.34,85.34,0,0,0-15.41,5.8c-7,3.39-14.22,7.16-18.38,10.3a101.79,101.79,0,0,1,10.69,8.1C611.16,445.74,615.42,448.83,618.17,452.09Z"/><path class="cls-1" d="M637.86,495.92a61.35,61.35,0,0,0,28.27,22.45,2.14,2.14,0,0,0,2.23.26,2.09,2.09,0,0,0,1.21-1.89,76.36,76.36,0,0,0,1.77-37.09c-4.68,2.89-9.87,5.81-15.6,8.62A185,185,0,0,1,637.86,495.92Z"/><path d="M642.53,494.87a12.5,12.5,0,0,0,1.41,3.68,12.88,12.88,0,0,0,2.51,3.1.51.51,0,0,0,.88,0,16.61,16.61,0,0,0,2.27-3.13,15.92,15.92,0,0,0,1.57-4c-1.27.18-2.64.31-4.12.39S643.91,494.94,642.53,494.87Z"/><path d="M653.63,493.34a12.4,12.4,0,0,0,2.6,3,13,13,0,0,0,3.42,2.05.5.5,0,0,0,.5.07.48.48,0,0,0,.32-.4,16.48,16.48,0,0,0,1-3.72,15.69,15.69,0,0,0,.08-4.29c-1.12.59-2.37,1.19-3.73,1.77S655,492.93,653.63,493.34Z"/><path d="M663.34,488.81a12.52,12.52,0,0,0,3.72,1.37,13.08,13.08,0,0,0,4,.17.51.51,0,0,0,.56-.68,16.37,16.37,0,0,0-.87-3.76,16.14,16.14,0,0,0-2-3.81c-.7,1.06-1.51,2.18-2.43,3.33S664.3,487.82,663.34,488.81Z"/><path class="cls-5" d="M625.26,175.7c5.36,5.6,10.22,14.07,10.29,27.55"/><path class="cls-6" d="M566.65,255.64c26.59-6.73,43.46,9.3,49.79,19.07h0c4.42-4.54,9-10.25,4.58-14-7.81-6.76-20.1-15.3-36.67-15-8.83.35-17,8-17.7,9.88Z"/><path class="cls-6" d="M621.43,265.39h0c2,2-.36,5.48-3.28,8.14a29.84,29.84,0,0,0-3.49,3.71c-2,2.77-4.22,2.87-6,.4h0c-1.71-2.45-2-5.92.12-8.17q1.5-1.59,3.34-3.28C614.67,263.76,619.48,263.35,621.43,265.39Z"/><path class="cls-6" d="M579.3,248.24h0c5.1-.63,7.6,2.48,6.33,4.82-.56,1.1-1.07,2.09-1.54,3-1.08,2-4.71,2.23-8.84,1.88h0c-4.12-.43-7.56-.56-7.06-1.7.24-.58.5-1.24.77-2C569.49,252.64,574.22,248.87,579.3,248.24Z"/><path class="cls-7" d="M595.25,290.63c.91-3.22,6.69-13.12-3.22-22.49-4.77-4.82-13.06-6.6-19.53-5.35a22.36,22.36,0,0,0-12.2,6.08"/><path class="cls-8" d="M553.46,266.17c-.83,2.64,16.7,4.35,28.54,14.91,13,10,17.52,18,25.5,7.13,4.47-5.84,16.74-14.75,15.85-22-.63-5.69-8.3-14-18.72-17.74-9.92-3.86-23-2.28-32.25,1.87C559.49,256.63,554.2,264.65,553.46,266.17Z"/><path class="cls-9" d="M588.9,268.93c-5,1.44-5.19,3.58-6.25,3.22"/></svg>