<svg id="Layer_1" data-name="Layer 1" xmlns="http://www.w3.org/2000/svg" width="380" height="380" viewBox="0 0 380 380"><defs><style>.cls-1{fill:#e9df00;}.cls-2{fill:#ff0;}.cls-3,.cls-4{fill:none;stroke-miterlimit:10;}.cls-3{stroke:#000;stroke-width:12px;}.cls-4{stroke:red;stroke-width:11px;}</style></defs><title>Lyd knap slukket</title><circle class="cls-1" cx="190" cy="190" r="146.5"/><circle class="cls-2" cx="206.59" cy="194.07" r="129.91"/><rect x="106.39" y="157.3" width="51.6" height="67.6"/><polygon points="151.08 162.68 188.34 123.5 188.34 255.25 151.08 224.13 151.08 162.68"/><path class="cls-3" d="M196.79,153.84c10.18,0,18.43,16,18.43,35.65s-8.25,35.64-18.43,35.64"/><path class="cls-3" d="M216,140c14.54,0,26.33,22.78,26.33,50.89S230.53,241.8,216,241.8"/><path class="cls-3" d="M239.81,125.8c18.66,0,33.8,29.26,33.8,65.35s-15.14,65.35-33.8,65.35"/><line class="cls-4" x1="259.5" y1="92" x2="120.5" y2="288"/></svg>