<svg id="Layer_1" data-name="Layer 1" xmlns="http://www.w3.org/2000/svg" width="1700" height="365" viewBox="0 0 1700 365"><defs><style>.cls-1{fill:#603813;}.cls-2{fill:#999;}.cls-3{fill:gray;}.cls-4,.cls-7{fill:#fff;}.cls-10,.cls-11,.cls-12,.cls-13,.cls-5,.cls-6{fill:none;}.cls-11,.cls-12,.cls-13,.cls-5{stroke:#000;}.cls-10,.cls-11,.cls-12,.cls-5{stroke-miterlimit:10;}.cls-5{stroke-width:12px;}.cls-10,.cls-6,.cls-7{stroke:#999;}.cls-10,.cls-11,.cls-12,.cls-13,.cls-6,.cls-7{stroke-linecap:round;}.cls-13,.cls-6,.cls-7{stroke-linejoin:round;}.cls-6{stroke-width:37px;}.cls-7{stroke-width:31px;}.cls-8{fill:red;}.cls-9{fill:#0067ff;}.cls-10{stroke-width:15px;}.cls-11{stroke-width:8px;}.cls-12{stroke-width:5px;}.cls-13{stroke-width:18px;}</style></defs><title>Mus copy</title><path class="cls-1" d="M257,332.3h0a25.1,25.1,0,0,0,7.9-34.61v0a11.42,11.42,0,0,0-15.75-3.6L226,308.64a11.44,11.44,0,0,0-3.6,15.76h0A25.13,25.13,0,0,0,257,332.3Z"/><ellipse class="cls-1" cx="271.76" cy="323.42" rx="7.67" ry="11.83" transform="translate(-149.09 286.89) rotate(-45)"/><ellipse class="cls-1" cx="245.08" cy="338.36" rx="7.61" ry="11.74" transform="translate(-172.02 362.43) rotate(-57.39)"/><ellipse class="cls-1" cx="260.76" cy="331.32" rx="8.94" ry="12.61" transform="translate(-160.45 312.56) rotate(-49.25)"/><path class="cls-1" d="M111,331.57h0a25.11,25.11,0,0,1-7.9-34.62v0a11.42,11.42,0,0,1,15.75-3.59L142,307.91a11.43,11.43,0,0,1,3.6,15.75h0A25.13,25.13,0,0,1,111,331.57Z"/><ellipse class="cls-1" cx="96.23" cy="322.69" rx="11.83" ry="7.67" transform="translate(-199.99 162.56) rotate(-45)"/><ellipse class="cls-1" cx="122.91" cy="337.63" rx="11.74" ry="7.61" transform="translate(-162.59 119.48) rotate(-32.61)"/><ellipse class="cls-1" cx="107.23" cy="330.59" rx="12.61" ry="8.94" transform="translate(-189.81 150.16) rotate(-40.75)"/><path class="cls-2" d="M220.78,325.44H143.47a57,57,0,0,1-57-57V212.76a99.33,99.33,0,0,1,99.33-99.33h0A92.17,92.17,0,0,1,278,205.6v62.6A57.24,57.24,0,0,1,220.78,325.44Z"/><path class="cls-1" d="M111,331.57h0a25.11,25.11,0,0,1-7.9-34.62v0a11.42,11.42,0,0,1,15.75-3.59L142,307.91a11.43,11.43,0,0,1,3.6,15.75h0A25.13,25.13,0,0,1,111,331.57Z"/><ellipse class="cls-1" cx="96.23" cy="322.69" rx="11.83" ry="7.67" transform="translate(-199.99 162.56) rotate(-45)"/><ellipse class="cls-1" cx="122.91" cy="337.63" rx="11.74" ry="7.61" transform="translate(-162.59 119.48) rotate(-32.61)"/><ellipse class="cls-1" cx="107.23" cy="330.59" rx="12.61" ry="8.94" transform="translate(-189.81 150.16) rotate(-40.75)"/><path class="cls-1" d="M257,332.3h0a25.1,25.1,0,0,0,7.9-34.61v0a11.42,11.42,0,0,0-15.75-3.6L226,308.64a11.44,11.44,0,0,0-3.6,15.76h0A25.13,25.13,0,0,0,257,332.3Z"/><ellipse class="cls-1" cx="271.76" cy="323.42" rx="7.67" ry="11.83" transform="translate(-149.09 286.89) rotate(-45)"/><ellipse class="cls-1" cx="245.08" cy="338.36" rx="7.61" ry="11.74" transform="translate(-172.02 362.43) rotate(-57.39)"/><ellipse class="cls-1" cx="260.76" cy="331.32" rx="8.94" ry="12.61" transform="translate(-160.45 312.56) rotate(-49.25)"/><path class="cls-3" d="M220.27,325.44h-77a56.86,56.86,0,0,1-56.74-57V212.76c0-54.86,44.3-99.33,99-99.33h0c50.71,0,91.82,41.26,91.82,92.17v62.6A57.12,57.12,0,0,1,220.27,325.44Z"/><path class="cls-2" d="M222.64,325.44H147.85c-30.44,0-55.11-25.15-55.11-56.18V214.31c0-54.1,43-97.95,96.1-97.95h0c49.25,0,89.18,40.69,89.18,90.9V269C278,300.17,253.22,325.44,222.64,325.44Z"/><path class="cls-4" d="M197.76,304.56H170.09A51.56,51.56,0,0,1,118.52,253V222a65.41,65.41,0,0,1,65.4-65.4h0a65.41,65.41,0,0,1,65.4,65.4v31A51.55,51.55,0,0,1,197.76,304.56Z"/><circle class="cls-2" cx="158.28" cy="33.6" r="21.97"/><circle class="cls-2" cx="92.74" cy="74.25" r="21.97"/><circle class="cls-4" cx="100.06" cy="80.84" r="9.52"/><circle class="cls-4" cx="163.04" cy="40.93" r="9.52"/><path class="cls-3" d="M234.64,80.48c15.69,13.21,49,56.29,42.56,65.76-6.63,9.71-10.36,18-50.83,13.58-16.09-1.75-38.2-4.14-66.78-10.9-32.26-7.63-61.95-18.34-63.53-47.62s23.7-55.76,57.18-57.48S210.63,60.26,234.64,80.48Z"/><path d="M217.46,111.6a15.64,15.64,0,0,1-15.67-15l-.21-5a10.68,10.68,0,0,1,10.23-11.09l10-.4h.44a10.63,10.63,0,0,1,10.65,10.23l.21,5a15.71,15.71,0,0,1-15.05,16.32Z"/><path d="M222.29,80.52h0a10.13,10.13,0,0,1,10.15,9.75l.21,5a15.19,15.19,0,0,1-14.57,15.8h-.63a15.14,15.14,0,0,1-15.16-14.57l-.21-5a10.18,10.18,0,0,1,9.75-10.57l10-.41h.42m0-1h-.46l-10,.4a11.17,11.17,0,0,0-10.71,11.61l.21,5a16.18,16.18,0,0,0,16.16,15.53h.67a16.2,16.2,0,0,0,15.53-16.84l-.21-5a11.16,11.16,0,0,0-11.15-10.71Z"/><path d="M172.61,113.42a15.64,15.64,0,0,1-15.66-15l-.21-5A10.66,10.66,0,0,1,167,82.26l10-.41h.45A10.63,10.63,0,0,1,188.1,92.07l.21,5a15.71,15.71,0,0,1-15.05,16.32Z"/><path d="M177.46,82.34h0a10.13,10.13,0,0,1,10.15,9.75l.21,5a15.19,15.19,0,0,1-14.57,15.8h-.63a15.14,15.14,0,0,1-15.16-14.57l-.21-5A10.19,10.19,0,0,1,167,82.75l10-.4h.43m0-1H177l-10,.41a11.16,11.16,0,0,0-10.71,11.6l.21,5a16.18,16.18,0,0,0,16.16,15.53h.67a16.2,16.2,0,0,0,15.53-16.84l-.21-5a11.16,11.16,0,0,0-11.15-10.71Z"/><line class="cls-5" x1="184.99" y1="97.33" x2="205.11" y2="96.51"/><path class="cls-5" d="M92.41,109.7c4.21-22.52,38.69-15.08,64-11.39"/><path class="cls-6" d="M111.23,171.86C93,193.94,67.11,203.54,53.56,185.22c-12.43-16.8-3.59-14.73-9.52-44"/><path class="cls-7" d="M262.2,179.87c20.47,23.4,40.58,54.57,41.5,68.67"/><path class="cls-8" d="M68.49,101.08c0,18.93-11.75,30.29-30.68,30.29S6.32,116.82,6.32,97.89,18.48,72.78,37.41,72.78C56.14,72.78,68.49,82.15,68.49,101.08Z"/><ellipse class="cls-8" cx="36.16" cy="71.68" rx="8.97" ry="3.3"/><ellipse class="cls-8" cx="35.98" cy="66.92" rx="15.38" ry="4.03"/><ellipse cx="35.8" cy="66.74" rx="9.34" ry="0.92"/><path class="cls-9" d="M11.65,130.78a2.93,2.93,0,1,1-5.77-1c.28-1.59,3.05-6,4.8-7.74C11,124.16,11.93,129.19,11.65,130.78Z"/><path class="cls-9" d="M22.71,138.93a2.93,2.93,0,1,1-5.64,1.59c-.44-1.55.14-6.69.94-9.05C19.19,133.27,22.27,137.37,22.71,138.93Z"/><ellipse class="cls-4" cx="59.05" cy="102.08" rx="2.2" ry="16.11"/><path class="cls-10" d="M271.94,281.59c3.76-11.9,20.26-22.45,24-34.34,10.74-34-18.25-70.75-7.51-104.71,5.22-16.5,17.77-42.44,37.72-28.93"/><path class="cls-11" d="M155.17,71c0-3.94,5.78-7.14,12.9-7.14S181,67,181,71"/><path class="cls-11" d="M208.26,77.18c0-3.14,3.68-5.68,8.22-5.68s8.23,2.54,8.23,5.68"/><path class="cls-4" d="M197.76,304.56H170.09A51.56,51.56,0,0,1,118.52,253V222a65.41,65.41,0,0,1,65.4-65.4h0a65.41,65.41,0,0,1,65.4,65.4v31A51.55,51.55,0,0,1,197.76,304.56Z"/><path class="cls-2" d="M236.65,77.49c15.76,12.22,49.13,52.16,42.57,61-6.73,9.08-10.54,16.79-51.34,12.91-16.21-1.54-38.5-3.65-67.29-9.8-32.5-6.93-62.39-16.75-63.82-44s24.2-52,58-53.81S212.54,58.79,236.65,77.49Z"/><circle class="cls-2" cx="158.28" cy="33.6" r="21.97"/><circle class="cls-2" cx="92.74" cy="74.25" r="21.97"/><circle class="cls-4" cx="100.06" cy="80.84" r="9.52"/><circle class="cls-4" cx="163.04" cy="40.93" r="9.52"/><circle cx="271.97" cy="142.9" r="11.4"/><path d="M272,132a10.9,10.9,0,1,1-10.9,10.9A10.91,10.91,0,0,1,272,132m0-1a11.9,11.9,0,1,0,11.9,11.9A11.9,11.9,0,0,0,272,131Z"/><path d="M217.46,111.6a15.64,15.64,0,0,1-15.67-15l-.21-5a10.68,10.68,0,0,1,10.23-11.09l10-.4h.44a10.63,10.63,0,0,1,10.65,10.23l.21,5a15.71,15.71,0,0,1-15.05,16.32Z"/><path d="M222.29,80.52h0a10.13,10.13,0,0,1,10.15,9.75l.21,5a15.19,15.19,0,0,1-14.57,15.8h-.63a15.14,15.14,0,0,1-15.16-14.57l-.21-5a10.18,10.18,0,0,1,9.75-10.57l10-.41h.42m0-1h-.46l-10,.4a11.17,11.17,0,0,0-10.71,11.61l.21,5a16.18,16.18,0,0,0,16.16,15.53h.67a16.2,16.2,0,0,0,15.53-16.84l-.21-5a11.16,11.16,0,0,0-11.15-10.71Z"/><path d="M172.61,113.42a15.64,15.64,0,0,1-15.66-15l-.21-5A10.66,10.66,0,0,1,167,82.26l10-.41h.45A10.63,10.63,0,0,1,188.1,92.07l.21,5a15.71,15.71,0,0,1-15.05,16.32Z"/><path d="M177.46,82.34h0a10.13,10.13,0,0,1,10.15,9.75l.21,5a15.19,15.19,0,0,1-14.57,15.8h-.63a15.14,15.14,0,0,1-15.16-14.57l-.21-5A10.19,10.19,0,0,1,167,82.75l10-.4h.43m0-1H177l-10,.41a11.16,11.16,0,0,0-10.71,11.6l.21,5a16.18,16.18,0,0,0,16.16,15.53h.67a16.2,16.2,0,0,0,15.53-16.84l-.21-5a11.16,11.16,0,0,0-11.15-10.71Z"/><line class="cls-5" x1="184.99" y1="97.33" x2="205.11" y2="96.51"/><path class="cls-5" d="M92.41,109.7c4.21-22.52,38.69-15.08,64-11.39"/><path class="cls-8" d="M68.49,101.08c0,18.93-11.75,30.29-30.68,30.29S6.32,116.82,6.32,97.89,18.48,72.78,37.41,72.78C56.14,72.78,68.49,82.15,68.49,101.08Z"/><ellipse class="cls-8" cx="36.16" cy="71.68" rx="8.97" ry="3.3"/><ellipse class="cls-8" cx="35.98" cy="66.92" rx="15.38" ry="4.03"/><ellipse cx="35.8" cy="66.74" rx="9.34" ry="0.92"/><path class="cls-9" d="M11.65,130.78a2.93,2.93,0,1,1-5.77-1c.28-1.59,3.05-6,4.8-7.74C11,124.16,11.93,129.19,11.65,130.78Z"/><path class="cls-9" d="M22.71,138.93a2.93,2.93,0,1,1-5.64,1.59c-.44-1.55.14-6.69.94-9.05C19.19,133.27,22.27,137.37,22.71,138.93Z"/><ellipse class="cls-4" cx="59.05" cy="102.08" rx="2.2" ry="16.11"/><path class="cls-10" d="M271.94,281.59c3.76-11.9,20.26-22.45,24-34.34,10.74-34-18.25-70.75-7.51-104.71,5.22-16.5,17.77-42.44,37.72-28.93"/><path class="cls-11" d="M155.17,71c0-3.94,5.78-7.14,12.9-7.14S181,67,181,71"/><path class="cls-12" d="M218.19,155.91c1-3.25,3.15-6.93,8.27-9.89,5.92-3.43,11-2.6,12.84-2.71"/><path class="cls-12" d="M228.78,161.5a14.39,14.39,0,0,1,5.48-9.6c4.47-3.79,8.87-3.86,10.42-4.24"/><path class="cls-12" d="M261.77,119.66c2.1-2.67,5.48-5.29,11.33-6.15,6.77-1,11.17,1.63,12.94,2.22"/><path class="cls-12" d="M269.55,128.76a14.4,14.4,0,0,1,8.63-6.91c5.56-1.87,9.67-.31,11.25-.09"/><path class="cls-11" d="M208.26,77.18c0-3.14,3.68-5.68,8.22-5.68s8.23,2.54,8.23,5.68"/><path class="cls-13" d="M117.18,59.21c-3.3-2.1,4.78-10.08,8.51-18.28"/><path class="cls-13" d="M117.6,59.25c3.2-4,13.48-4.94,19.81-9.54"/><path class="cls-13" d="M116.78,59.21c-1-6.16,9-8.37,18.07-15.72"/><path class="cls-1" d="M597,333.3h0a25.1,25.1,0,0,0,7.9-34.61v0a11.42,11.42,0,0,0-15.75-3.6L566,309.64a11.44,11.44,0,0,0-3.6,15.76h0A25.13,25.13,0,0,0,597,333.3Z"/><ellipse class="cls-1" cx="611.76" cy="324.42" rx="7.67" ry="11.83" transform="translate(-50.22 527.6) rotate(-45)"/><ellipse class="cls-1" cx="585.08" cy="339.36" rx="7.61" ry="11.74" transform="translate(-16.11 649.29) rotate(-57.39)"/><ellipse class="cls-1" cx="600.76" cy="332.32" rx="8.94" ry="12.61" transform="translate(-43.16 570.47) rotate(-49.25)"/><path class="cls-1" d="M451,332.57h0a25.11,25.11,0,0,1-7.9-34.62v0a11.42,11.42,0,0,1,15.75-3.59L482,308.91a11.43,11.43,0,0,1,3.6,15.75h0A25.13,25.13,0,0,1,451,332.57Z"/><ellipse class="cls-1" cx="436.23" cy="323.69" rx="11.83" ry="7.67" transform="translate(-101.11 403.27) rotate(-45)"/><ellipse class="cls-1" cx="462.91" cy="338.63" rx="11.74" ry="7.61" transform="translate(-109.52 302.88) rotate(-32.61)"/><ellipse class="cls-1" cx="447.23" cy="331.59" rx="12.61" ry="8.94" transform="translate(-108.02 372.36) rotate(-40.75)"/><path class="cls-2" d="M560.78,326.44H483.47a57,57,0,0,1-57-57V213.76a99.33,99.33,0,0,1,99.33-99.33h0A92.17,92.17,0,0,1,618,206.6v62.6A57.24,57.24,0,0,1,560.78,326.44Z"/><path class="cls-1" d="M451,332.57h0a25.11,25.11,0,0,1-7.9-34.62v0a11.42,11.42,0,0,1,15.75-3.59L482,308.91a11.43,11.43,0,0,1,3.6,15.75h0A25.13,25.13,0,0,1,451,332.57Z"/><ellipse class="cls-1" cx="436.23" cy="323.69" rx="11.83" ry="7.67" transform="translate(-101.11 403.27) rotate(-45)"/><ellipse class="cls-1" cx="462.91" cy="338.63" rx="11.74" ry="7.61" transform="translate(-109.52 302.88) rotate(-32.61)"/><ellipse class="cls-1" cx="447.23" cy="331.59" rx="12.61" ry="8.94" transform="translate(-108.02 372.36) rotate(-40.75)"/><path class="cls-1" d="M597,333.3h0a25.1,25.1,0,0,0,7.9-34.61v0a11.42,11.42,0,0,0-15.75-3.6L566,309.64a11.44,11.44,0,0,0-3.6,15.76h0A25.13,25.13,0,0,0,597,333.3Z"/><ellipse class="cls-1" cx="611.76" cy="324.42" rx="7.67" ry="11.83" transform="translate(-50.22 527.6) rotate(-45)"/><ellipse class="cls-1" cx="585.08" cy="339.36" rx="7.61" ry="11.74" transform="translate(-16.11 649.29) rotate(-57.39)"/><ellipse class="cls-1" cx="600.76" cy="332.32" rx="8.94" ry="12.61" transform="translate(-43.16 570.47) rotate(-49.25)"/><path class="cls-3" d="M560.27,326.44h-77a56.86,56.86,0,0,1-56.74-57V213.76c0-54.86,44.3-99.33,99-99.33h0c50.71,0,91.82,41.26,91.82,92.17v62.6A57.12,57.12,0,0,1,560.27,326.44Z"/><path class="cls-2" d="M562.64,326.44H487.85c-30.44,0-55.11-25.15-55.11-56.18V215.31c0-54.1,43-97.95,96.1-97.95h0c49.25,0,89.18,40.69,89.18,90.9V270C618,301.17,593.22,326.44,562.64,326.44Z"/><path class="cls-4" d="M537.76,305.56H510.09A51.56,51.56,0,0,1,458.52,254V223a65.41,65.41,0,0,1,65.4-65.4h0a65.41,65.41,0,0,1,65.4,65.4v31A51.55,51.55,0,0,1,537.76,305.56Z"/><circle class="cls-2" cx="498.28" cy="34.6" r="21.97"/><circle class="cls-2" cx="432.74" cy="75.25" r="21.97"/><circle class="cls-4" cx="440.06" cy="81.84" r="9.52"/><circle class="cls-4" cx="503.04" cy="41.93" r="9.52"/><path class="cls-3" d="M574.64,81.48c15.69,13.21,49,56.29,42.56,65.76-6.63,9.71-10.36,18-50.83,13.58-16.09-1.75-38.2-4.14-66.78-10.9-32.26-7.63-61.95-18.34-63.53-47.62s23.7-55.76,57.18-57.48S550.63,61.26,574.64,81.48Z"/><path d="M557.46,112.6a15.64,15.64,0,0,1-15.67-15l-.21-5a10.68,10.68,0,0,1,10.23-11.09l10-.4h.44a10.63,10.63,0,0,1,10.65,10.23l.21,5a15.71,15.71,0,0,1-15,16.32Z"/><path d="M562.29,81.52h0a10.13,10.13,0,0,1,10.15,9.75l.21,5a15.19,15.19,0,0,1-14.57,15.8h-.63a15.14,15.14,0,0,1-15.16-14.57l-.21-5a10.18,10.18,0,0,1,9.75-10.57l10-.41h.42m0-1h-.46l-10,.4a11.17,11.17,0,0,0-10.71,11.61l.21,5a16.18,16.18,0,0,0,16.16,15.53h.67a16.2,16.2,0,0,0,15.53-16.84l-.21-5a11.16,11.16,0,0,0-11.15-10.71Z"/><path d="M512.61,114.42a15.64,15.64,0,0,1-15.66-15l-.21-5A10.66,10.66,0,0,1,507,83.26l10-.41h.45A10.63,10.63,0,0,1,528.1,93.07l.21,5a15.71,15.71,0,0,1-15,16.32Z"/><path d="M517.45,83.34h0a10.13,10.13,0,0,1,10.15,9.75l.21,5a15.19,15.19,0,0,1-14.57,15.8h-.63a15.14,15.14,0,0,1-15.16-14.57l-.21-5A10.19,10.19,0,0,1,507,83.75l10-.4h.42m0-1H517l-10,.41a11.16,11.16,0,0,0-10.71,11.6l.21,5a16.18,16.18,0,0,0,16.16,15.53h.67a16.2,16.2,0,0,0,15.53-16.84l-.21-5a11.16,11.16,0,0,0-11.15-10.71Z"/><line class="cls-5" x1="524.99" y1="98.33" x2="545.11" y2="97.51"/><path class="cls-5" d="M432.41,110.7c4.21-22.52,38.69-15.08,64-11.39"/><path class="cls-6" d="M451.23,172.86C432.3,197.09,345.5,220,371.5,158c6-17,1-5,18-35"/><path class="cls-7" d="M602.2,180.87c20.47,23.4,40.58,54.57,41.5,68.67"/><path class="cls-10" d="M611.94,282.59c3.76-11.9,20.26-22.45,24-34.34,10.74-34-18.25-70.75-7.51-104.71,5.22-16.5,17.77-42.44,37.72-28.93"/><path class="cls-11" d="M495.17,72c0-3.94,5.78-7.14,12.9-7.14S521,68,521,72"/><path class="cls-11" d="M548.26,78.18c0-3.14,3.68-5.68,8.22-5.68s8.23,2.54,8.23,5.68"/><path class="cls-4" d="M537.76,305.56H510.09A51.56,51.56,0,0,1,458.52,254V223a65.41,65.41,0,0,1,65.4-65.4h0a65.41,65.41,0,0,1,65.4,65.4v31A51.55,51.55,0,0,1,537.76,305.56Z"/><path class="cls-2" d="M576.65,78.49c15.76,12.22,49.13,52.16,42.57,61-6.73,9.08-10.54,16.79-51.34,12.91-16.21-1.54-38.5-3.65-67.29-9.8-32.5-6.93-62.39-16.75-63.82-44s24.2-52,58-53.81S552.54,59.79,576.65,78.49Z"/><circle class="cls-2" cx="498.28" cy="34.6" r="21.97"/><circle class="cls-2" cx="432.74" cy="75.25" r="21.97"/><circle class="cls-4" cx="440.06" cy="81.84" r="9.52"/><circle class="cls-4" cx="503.04" cy="41.93" r="9.52"/><circle cx="611.97" cy="143.9" r="11.4"/><path d="M612,133a10.9,10.9,0,1,1-10.9,10.9A10.91,10.91,0,0,1,612,133m0-1a11.9,11.9,0,1,0,11.9,11.9A11.9,11.9,0,0,0,612,132Z"/><path d="M557.46,112.6a15.64,15.64,0,0,1-15.67-15l-.21-5a10.68,10.68,0,0,1,10.23-11.09l10-.4h.44a10.63,10.63,0,0,1,10.65,10.23l.21,5a15.71,15.71,0,0,1-15,16.32Z"/><path d="M562.29,81.52h0a10.13,10.13,0,0,1,10.15,9.75l.21,5a15.19,15.19,0,0,1-14.57,15.8h-.63a15.14,15.14,0,0,1-15.16-14.57l-.21-5a10.18,10.18,0,0,1,9.75-10.57l10-.41h.42m0-1h-.46l-10,.4a11.17,11.17,0,0,0-10.71,11.61l.21,5a16.18,16.18,0,0,0,16.16,15.53h.67a16.2,16.2,0,0,0,15.53-16.84l-.21-5a11.16,11.16,0,0,0-11.15-10.71Z"/><path d="M512.61,114.42a15.64,15.64,0,0,1-15.66-15l-.21-5A10.66,10.66,0,0,1,507,83.26l10-.41h.45A10.63,10.63,0,0,1,528.1,93.07l.21,5a15.71,15.71,0,0,1-15,16.32Z"/><path d="M517.45,83.34h0a10.13,10.13,0,0,1,10.15,9.75l.21,5a15.19,15.19,0,0,1-14.57,15.8h-.63a15.14,15.14,0,0,1-15.16-14.57l-.21-5A10.19,10.19,0,0,1,507,83.75l10-.4h.42m0-1H517l-10,.41a11.16,11.16,0,0,0-10.71,11.6l.21,5a16.18,16.18,0,0,0,16.16,15.53h.67a16.2,16.2,0,0,0,15.53-16.84l-.21-5a11.16,11.16,0,0,0-11.15-10.71Z"/><line class="cls-5" x1="524.99" y1="98.33" x2="545.11" y2="97.51"/><path class="cls-5" d="M432.41,110.7c4.21-22.52,38.69-15.08,64-11.39"/><path class="cls-8" d="M437.49,105.08c0,18.93-11.75,30.29-30.68,30.29s-31.49-14.55-31.49-33.48,12.16-25.11,31.09-25.11C425.14,76.78,437.49,86.15,437.49,105.08Z"/><ellipse class="cls-8" cx="405.16" cy="75.68" rx="8.97" ry="3.3"/><ellipse class="cls-8" cx="404.98" cy="70.92" rx="15.38" ry="4.03"/><ellipse cx="404.8" cy="70.74" rx="9.34" ry="0.92"/><ellipse class="cls-4" cx="428.05" cy="106.08" rx="2.2" ry="16.11"/><path class="cls-8" d="M437.49,105.08c0,18.93-11.75,30.29-30.68,30.29s-31.49-14.55-31.49-33.48,12.16-25.11,31.09-25.11C425.14,76.78,437.49,86.15,437.49,105.08Z"/><ellipse class="cls-8" cx="405.16" cy="75.68" rx="8.97" ry="3.3"/><ellipse class="cls-8" cx="404.98" cy="70.92" rx="15.38" ry="4.03"/><ellipse cx="404.8" cy="70.74" rx="9.34" ry="0.92"/><path class="cls-9" d="M380.65,134.78a2.93,2.93,0,0,1-5.77-1c.28-1.59,3.05-6,4.8-7.74C380,128.16,380.93,133.19,380.65,134.78Z"/><path class="cls-9" d="M391.71,142.93a2.93,2.93,0,1,1-5.64,1.59c-.44-1.55.14-6.69.94-9.05C388.19,137.27,391.27,141.37,391.71,142.93Z"/><ellipse class="cls-4" cx="428.05" cy="106.08" rx="2.2" ry="16.11"/><path class="cls-10" d="M611.94,282.59c3.76-11.9,20.26-22.45,24-34.34,10.74-34-18.25-70.75-7.51-104.71,5.22-16.5,17.77-42.44,37.72-28.93"/><path class="cls-11" d="M495.17,72c0-3.94,5.78-7.14,12.9-7.14S521,68,521,72"/><path class="cls-12" d="M558.19,156.91c1-3.25,3.15-6.93,8.27-9.89,5.92-3.43,11-2.6,12.84-2.71"/><path class="cls-12" d="M568.78,162.5a14.39,14.39,0,0,1,5.48-9.6c4.47-3.79,8.87-3.86,10.42-4.24"/><path class="cls-12" d="M601.77,120.66c2.1-2.67,5.48-5.29,11.33-6.15,6.77-1,11.17,1.63,12.94,2.22"/><path class="cls-12" d="M609.55,129.76a14.4,14.4,0,0,1,8.63-6.91c5.56-1.87,9.67-.31,11.25-.09"/><path class="cls-11" d="M548.26,78.18c0-3.14,3.68-5.68,8.22-5.68s8.23,2.54,8.23,5.68"/><path class="cls-13" d="M457.18,60.21c-3.3-2.1,4.78-10.08,8.51-18.28"/><path class="cls-13" d="M457.6,60.25c3.2-4,13.48-4.94,19.81-9.54"/><path class="cls-13" d="M456.78,60.21c-1-6.16,9-8.37,18.07-15.72"/><path class="cls-1" d="M948,333.3h0a25.1,25.1,0,0,0,7.9-34.61v0a11.42,11.42,0,0,0-15.75-3.6L917,309.64a11.44,11.44,0,0,0-3.6,15.76h0A25.13,25.13,0,0,0,948,333.3Z"/><ellipse class="cls-1" cx="962.76" cy="324.42" rx="7.67" ry="11.83" transform="translate(52.59 775.79) rotate(-45)"/><ellipse class="cls-1" cx="936.08" cy="339.36" rx="7.61" ry="11.74" transform="matrix(0.54, -0.84, 0.84, 0.54, 145.72, 944.95)"/><ellipse class="cls-1" cx="951.76" cy="332.32" rx="8.94" ry="12.61" transform="translate(78.7 836.36) rotate(-49.25)"/><path class="cls-1" d="M802,332.57h0a25.11,25.11,0,0,1-7.9-34.62v0a11.42,11.42,0,0,1,15.75-3.59L833,308.91a11.43,11.43,0,0,1,3.6,15.75h0A25.13,25.13,0,0,1,802,332.57Z"/><ellipse class="cls-1" cx="787.23" cy="323.69" rx="11.83" ry="7.67" transform="translate(1.69 651.46) rotate(-45)"/><ellipse class="cls-1" cx="813.91" cy="338.63" rx="11.74" ry="7.61" transform="translate(-54.18 492.06) rotate(-32.61)"/><ellipse class="cls-1" cx="798.23" cy="331.59" rx="12.61" ry="8.94" transform="translate(-22.91 601.5) rotate(-40.75)"/><path class="cls-2" d="M911.78,326.44H834.47a57,57,0,0,1-57-57V213.76a99.33,99.33,0,0,1,99.33-99.33h0A92.17,92.17,0,0,1,969,206.6v62.6A57.24,57.24,0,0,1,911.78,326.44Z"/><path class="cls-1" d="M802,332.57h0a25.11,25.11,0,0,1-7.9-34.62v0a11.42,11.42,0,0,1,15.75-3.59L833,308.91a11.43,11.43,0,0,1,3.6,15.75h0A25.13,25.13,0,0,1,802,332.57Z"/><ellipse class="cls-1" cx="787.23" cy="323.69" rx="11.83" ry="7.67" transform="translate(1.69 651.46) rotate(-45)"/><ellipse class="cls-1" cx="813.91" cy="338.63" rx="11.74" ry="7.61" transform="translate(-54.18 492.06) rotate(-32.61)"/><ellipse class="cls-1" cx="798.23" cy="331.59" rx="12.61" ry="8.94" transform="translate(-22.91 601.5) rotate(-40.75)"/><path class="cls-1" d="M948,333.3h0a25.1,25.1,0,0,0,7.9-34.61v0a11.42,11.42,0,0,0-15.75-3.6L917,309.64a11.44,11.44,0,0,0-3.6,15.76h0A25.13,25.13,0,0,0,948,333.3Z"/><ellipse class="cls-1" cx="962.76" cy="324.42" rx="7.67" ry="11.83" transform="translate(52.59 775.79) rotate(-45)"/><ellipse class="cls-1" cx="936.08" cy="339.36" rx="7.61" ry="11.74" transform="matrix(0.54, -0.84, 0.84, 0.54, 145.72, 944.95)"/><ellipse class="cls-1" cx="951.76" cy="332.32" rx="8.94" ry="12.61" transform="translate(78.7 836.36) rotate(-49.25)"/><path class="cls-3" d="M911.27,326.44h-77a56.86,56.86,0,0,1-56.74-57V213.76c0-54.86,44.3-99.33,99-99.33h0c50.71,0,91.82,41.26,91.82,92.17v62.6A57.12,57.12,0,0,1,911.27,326.44Z"/><path class="cls-2" d="M913.64,326.44H838.85c-30.44,0-55.11-25.15-55.11-56.18V215.31c0-54.1,43-97.95,96.1-97.95h0c49.25,0,89.18,40.69,89.18,90.9V270C969,301.17,944.22,326.44,913.64,326.44Z"/><path class="cls-4" d="M888.76,305.56H861.09A51.56,51.56,0,0,1,809.52,254V223a65.41,65.41,0,0,1,65.4-65.4h0a65.41,65.41,0,0,1,65.4,65.4v31A51.55,51.55,0,0,1,888.76,305.56Z"/><circle class="cls-2" cx="849.28" cy="34.6" r="21.97"/><circle class="cls-2" cx="783.74" cy="75.25" r="21.97"/><circle class="cls-4" cx="791.06" cy="81.84" r="9.52"/><circle class="cls-4" cx="854.04" cy="41.93" r="9.52"/><path class="cls-3" d="M925.64,81.48c15.69,13.21,49,56.29,42.56,65.76-6.63,9.71-10.36,18-50.83,13.58-16.09-1.75-38.2-4.14-66.78-10.9-32.26-7.63-62-18.34-63.53-47.62s23.7-55.76,57.18-57.48S901.63,61.26,925.64,81.48Z"/><path d="M908.46,112.6a15.64,15.64,0,0,1-15.67-15l-.21-5a10.68,10.68,0,0,1,10.23-11.09l10-.4h.44a10.63,10.63,0,0,1,10.65,10.23l.21,5a15.71,15.71,0,0,1-15,16.32Z"/><path d="M913.29,81.52h0a10.13,10.13,0,0,1,10.15,9.75l.21,5a15.19,15.19,0,0,1-14.57,15.8h-.63a15.14,15.14,0,0,1-15.16-14.57l-.21-5a10.18,10.18,0,0,1,9.75-10.57l10-.41h.42m0-1h-.46l-10,.4a11.17,11.17,0,0,0-10.71,11.61l.21,5a16.18,16.18,0,0,0,16.16,15.53h.67a16.2,16.2,0,0,0,15.53-16.84l-.21-5a11.16,11.16,0,0,0-11.15-10.71Z"/><path d="M863.61,114.42a15.64,15.64,0,0,1-15.66-15l-.21-5A10.66,10.66,0,0,1,858,83.26l10-.41h.45A10.63,10.63,0,0,1,879.1,93.07l.21,5a15.71,15.71,0,0,1-15,16.32Z"/><path d="M868.46,83.34h0a10.13,10.13,0,0,1,10.15,9.75l.21,5a15.19,15.19,0,0,1-14.57,15.8h-.63a15.14,15.14,0,0,1-15.16-14.57l-.21-5A10.19,10.19,0,0,1,858,83.75l10-.4h.43m0-1H868l-10,.41a11.16,11.16,0,0,0-10.71,11.6l.21,5a16.18,16.18,0,0,0,16.16,15.53h.67a16.2,16.2,0,0,0,15.53-16.84l-.21-5a11.16,11.16,0,0,0-11.15-10.71Z"/><line class="cls-5" x1="875.99" y1="98.33" x2="896.11" y2="97.51"/><path class="cls-5" d="M783.41,110.7c4.21-22.52,38.69-15.08,64-11.39"/><path class="cls-6" d="M802.23,172.86C784,194.94,745.5,208,744.56,186.22,743.66,165.34,760.5,139,787.5,122"/><path class="cls-7" d="M953.2,180.87c20.47,23.4,40.58,54.57,41.5,68.67"/><path class="cls-10" d="M962.94,282.59c3.76-11.9,20.26-22.45,24-34.34,10.74-34-18.25-70.75-7.51-104.71,5.22-16.5,17.77-42.44,37.72-28.93"/><path class="cls-11" d="M846.17,72c0-3.94,5.78-7.14,12.9-7.14S872,68,872,72"/><path class="cls-11" d="M899.26,78.18c0-3.14,3.68-5.68,8.22-5.68s8.23,2.54,8.23,5.68"/><path class="cls-4" d="M888.76,305.56H861.09A51.56,51.56,0,0,1,809.52,254V223a65.41,65.41,0,0,1,65.4-65.4h0a65.41,65.41,0,0,1,65.4,65.4v31A51.55,51.55,0,0,1,888.76,305.56Z"/><path class="cls-2" d="M927.65,78.49c15.76,12.22,49.13,52.16,42.57,61-6.73,9.08-10.54,16.79-51.34,12.91-16.21-1.54-38.5-3.65-67.29-9.8-32.5-6.93-62.39-16.75-63.82-44s24.2-52,58-53.81S903.54,59.79,927.65,78.49Z"/><circle class="cls-2" cx="849.28" cy="34.6" r="21.97"/><circle class="cls-2" cx="783.74" cy="75.25" r="21.97"/><circle class="cls-4" cx="791.06" cy="81.84" r="9.52"/><circle class="cls-4" cx="854.04" cy="41.93" r="9.52"/><circle cx="962.97" cy="143.9" r="11.4"/><path d="M963,133a10.9,10.9,0,1,1-10.9,10.9A10.91,10.91,0,0,1,963,133m0-1a11.9,11.9,0,1,0,11.9,11.9A11.9,11.9,0,0,0,963,132Z"/><path d="M908.46,112.6a15.64,15.64,0,0,1-15.67-15l-.21-5a10.68,10.68,0,0,1,10.23-11.09l10-.4h.44a10.63,10.63,0,0,1,10.65,10.23l.21,5a15.71,15.71,0,0,1-15,16.32Z"/><path d="M913.29,81.52h0a10.13,10.13,0,0,1,10.15,9.75l.21,5a15.19,15.19,0,0,1-14.57,15.8h-.63a15.14,15.14,0,0,1-15.16-14.57l-.21-5a10.18,10.18,0,0,1,9.75-10.57l10-.41h.42m0-1h-.46l-10,.4a11.17,11.17,0,0,0-10.71,11.61l.21,5a16.18,16.18,0,0,0,16.16,15.53h.67a16.2,16.2,0,0,0,15.53-16.84l-.21-5a11.16,11.16,0,0,0-11.15-10.71Z"/><path d="M863.61,114.42a15.64,15.64,0,0,1-15.66-15l-.21-5A10.66,10.66,0,0,1,858,83.26l10-.41h.45A10.63,10.63,0,0,1,879.1,93.07l.21,5a15.71,15.71,0,0,1-15,16.32Z"/><path d="M868.46,83.34h0a10.13,10.13,0,0,1,10.15,9.75l.21,5a15.19,15.19,0,0,1-14.57,15.8h-.63a15.14,15.14,0,0,1-15.16-14.57l-.21-5A10.19,10.19,0,0,1,858,83.75l10-.4h.43m0-1H868l-10,.41a11.16,11.16,0,0,0-10.71,11.6l.21,5a16.18,16.18,0,0,0,16.16,15.53h.67a16.2,16.2,0,0,0,15.53-16.84l-.21-5a11.16,11.16,0,0,0-11.15-10.71Z"/><line class="cls-5" x1="875.99" y1="98.33" x2="896.11" y2="97.51"/><path class="cls-5" d="M783.41,110.7c4.21-22.52,38.69-15.08,64-11.39"/><path class="cls-8" d="M855.49,116.08c0,18.93-11.75,30.29-30.68,30.29s-31.49-14.55-31.49-33.48,12.16-25.11,31.09-25.11C843.14,87.78,855.49,97.15,855.49,116.08Z"/><ellipse class="cls-8" cx="823.16" cy="86.68" rx="8.97" ry="3.3"/><ellipse class="cls-8" cx="822.98" cy="81.92" rx="15.38" ry="4.03"/><ellipse cx="822.8" cy="81.74" rx="9.34" ry="0.92"/><ellipse class="cls-4" cx="846.05" cy="117.08" rx="2.2" ry="16.11"/><path class="cls-8" d="M855.49,116.08c0,18.93-11.75,30.29-30.68,30.29s-31.49-14.55-31.49-33.48,12.16-25.11,31.09-25.11C843.14,87.78,855.49,97.15,855.49,116.08Z"/><ellipse class="cls-8" cx="823.16" cy="86.68" rx="8.97" ry="3.3"/><ellipse class="cls-8" cx="822.98" cy="81.92" rx="15.38" ry="4.03"/><ellipse cx="822.8" cy="81.74" rx="9.34" ry="0.92"/><path class="cls-9" d="M798.65,145.78a2.93,2.93,0,0,1-5.77-1c.28-1.59,3-6,4.8-7.74C798,139.16,798.93,144.19,798.65,145.78Z"/><path class="cls-9" d="M809.71,153.93a2.93,2.93,0,1,1-5.64,1.59c-.44-1.55.14-6.69.94-9.05C806.19,148.27,809.27,152.37,809.71,153.93Z"/><ellipse class="cls-4" cx="846.05" cy="117.08" rx="2.2" ry="16.11"/><path class="cls-10" d="M962.94,282.59c3.76-11.9,20.26-22.45,24-34.34,10.74-34-18.25-70.75-7.51-104.71,5.22-16.5,17.77-42.44,37.72-28.93"/><path class="cls-11" d="M846.17,72c0-3.94,5.78-7.14,12.9-7.14S872,68,872,72"/><path class="cls-12" d="M909.19,156.91c1-3.25,3.15-6.93,8.27-9.89,5.92-3.43,11-2.6,12.84-2.71"/><path class="cls-12" d="M919.78,162.5a14.39,14.39,0,0,1,5.48-9.6c4.47-3.79,8.87-3.86,10.42-4.24"/><path class="cls-12" d="M952.77,120.66c2.1-2.67,5.48-5.29,11.33-6.15,6.77-1,11.17,1.63,12.94,2.22"/><path class="cls-12" d="M960.55,129.76a14.4,14.4,0,0,1,8.63-6.91c5.56-1.87,9.67-.31,11.25-.09"/><path class="cls-11" d="M899.26,78.18c0-3.14,3.68-5.68,8.22-5.68s8.23,2.54,8.23,5.68"/><path class="cls-13" d="M808.18,60.21c-3.3-2.1,4.78-10.08,8.51-18.28"/><path class="cls-13" d="M808.6,60.25c3.2-4,13.48-4.94,19.81-9.54"/><path class="cls-13" d="M807.78,60.21c-1-6.16,9-8.37,18.07-15.72"/><path class="cls-1" d="M1282,333.3h0a25.1,25.1,0,0,0,7.9-34.61v0a11.42,11.42,0,0,0-15.75-3.6L1251,309.64a11.44,11.44,0,0,0-3.6,15.76h0A25.13,25.13,0,0,0,1282,333.3Z"/><ellipse class="cls-1" cx="1296.76" cy="324.42" rx="7.67" ry="11.83" transform="translate(150.41 1011.97) rotate(-45)"/><ellipse class="cls-1" cx="1270.08" cy="339.36" rx="7.61" ry="11.74" transform="matrix(0.54, -0.84, 0.84, 0.54, 299.7, 1226.29)"/><ellipse class="cls-1" cx="1285.76" cy="332.32" rx="8.94" ry="12.61" transform="translate(194.66 1089.37) rotate(-49.25)"/><path class="cls-1" d="M1136,332.57h0a25.11,25.11,0,0,1-7.9-34.62v0a11.42,11.42,0,0,1,15.75-3.59L1167,308.91a11.43,11.43,0,0,1,3.6,15.75h0A25.13,25.13,0,0,1,1136,332.57Z"/><ellipse class="cls-1" cx="1121.23" cy="323.69" rx="11.83" ry="7.67" transform="translate(99.52 887.63) rotate(-45)"/><ellipse class="cls-1" cx="1147.91" cy="338.63" rx="11.74" ry="7.61" transform="translate(-1.52 672.07) rotate(-32.61)"/><ellipse class="cls-1" cx="1132.23" cy="331.59" rx="12.61" ry="8.94" transform="translate(58.08 819.54) rotate(-40.75)"/><path class="cls-2" d="M1245.78,326.44h-77.31a57,57,0,0,1-57-57V213.76a99.33,99.33,0,0,1,99.33-99.33h0A92.17,92.17,0,0,1,1303,206.6v62.6A57.24,57.24,0,0,1,1245.78,326.44Z"/><path class="cls-1" d="M1136,332.57h0a25.11,25.11,0,0,1-7.9-34.62v0a11.42,11.42,0,0,1,15.75-3.59L1167,308.91a11.43,11.43,0,0,1,3.6,15.75h0A25.13,25.13,0,0,1,1136,332.57Z"/><ellipse class="cls-1" cx="1121.23" cy="323.69" rx="11.83" ry="7.67" transform="translate(99.52 887.63) rotate(-45)"/><ellipse class="cls-1" cx="1147.91" cy="338.63" rx="11.74" ry="7.61" transform="translate(-1.52 672.07) rotate(-32.61)"/><ellipse class="cls-1" cx="1132.23" cy="331.59" rx="12.61" ry="8.94" transform="translate(58.08 819.54) rotate(-40.75)"/><path class="cls-1" d="M1282,333.3h0a25.1,25.1,0,0,0,7.9-34.61v0a11.42,11.42,0,0,0-15.75-3.6L1251,309.64a11.44,11.44,0,0,0-3.6,15.76h0A25.13,25.13,0,0,0,1282,333.3Z"/><ellipse class="cls-1" cx="1296.76" cy="324.42" rx="7.67" ry="11.83" transform="translate(150.41 1011.97) rotate(-45)"/><ellipse class="cls-1" cx="1270.08" cy="339.36" rx="7.61" ry="11.74" transform="matrix(0.54, -0.84, 0.84, 0.54, 299.7, 1226.29)"/><ellipse class="cls-1" cx="1285.76" cy="332.32" rx="8.94" ry="12.61" transform="translate(194.66 1089.37) rotate(-49.25)"/><path class="cls-3" d="M1245.27,326.44h-77a56.86,56.86,0,0,1-56.74-57V213.76c0-54.86,44.3-99.33,99-99.33h0c50.71,0,91.82,41.26,91.82,92.17v62.6A57.12,57.12,0,0,1,1245.27,326.44Z"/><path class="cls-2" d="M1247.64,326.44h-74.79c-30.44,0-55.11-25.15-55.11-56.18V215.31c0-54.1,43-97.95,96.1-97.95h0c49.25,0,89.18,40.69,89.18,90.9V270C1303,301.17,1278.22,326.44,1247.64,326.44Z"/><path class="cls-4" d="M1222.76,305.56h-27.67A51.56,51.56,0,0,1,1143.52,254V223a65.41,65.41,0,0,1,65.4-65.4h0a65.41,65.41,0,0,1,65.4,65.4v31A51.55,51.55,0,0,1,1222.76,305.56Z"/><circle class="cls-2" cx="1183.28" cy="34.6" r="21.97"/><circle class="cls-2" cx="1117.74" cy="75.25" r="21.97"/><circle class="cls-4" cx="1125.06" cy="81.84" r="9.52"/><circle class="cls-4" cx="1188.04" cy="41.93" r="9.52"/><path class="cls-3" d="M1259.64,81.48c15.69,13.21,49,56.29,42.56,65.76-6.63,9.71-10.36,18-50.83,13.58-16.09-1.75-38.2-4.14-66.78-10.9-32.26-7.63-61.95-18.34-63.53-47.62s23.7-55.76,57.18-57.48S1235.63,61.26,1259.64,81.48Z"/><path d="M1242.46,112.6a15.64,15.64,0,0,1-15.67-15l-.21-5a10.68,10.68,0,0,1,10.23-11.09l10-.4h.44a10.63,10.63,0,0,1,10.65,10.23l.21,5a15.71,15.71,0,0,1-15.05,16.32Z"/><path d="M1247.29,81.52h0a10.13,10.13,0,0,1,10.15,9.75l.21,5a15.19,15.19,0,0,1-14.57,15.8h-.63a15.14,15.14,0,0,1-15.16-14.57l-.21-5a10.18,10.18,0,0,1,9.75-10.57l10-.41h.42m0-1h-.46l-10,.4a11.17,11.17,0,0,0-10.71,11.61l.21,5a16.18,16.18,0,0,0,16.16,15.53h.67a16.2,16.2,0,0,0,15.53-16.84l-.21-5a11.16,11.16,0,0,0-11.15-10.71Z"/><path d="M1197.61,114.42a15.64,15.64,0,0,1-15.66-15l-.21-5A10.66,10.66,0,0,1,1192,83.26l10-.41h.45a10.63,10.63,0,0,1,10.64,10.23l.21,5a15.71,15.71,0,0,1-15,16.32Z"/><path d="M1202.46,83.34h0a10.13,10.13,0,0,1,10.15,9.75l.21,5a15.19,15.19,0,0,1-14.57,15.8h-.63a15.14,15.14,0,0,1-15.16-14.57l-.21-5A10.19,10.19,0,0,1,1192,83.75l10-.4h.43m0-1H1202l-10,.41a11.16,11.16,0,0,0-10.71,11.6l.21,5a16.18,16.18,0,0,0,16.16,15.53h.67a16.2,16.2,0,0,0,15.53-16.84l-.21-5a11.16,11.16,0,0,0-11.15-10.71Z"/><line class="cls-5" x1="1209.99" y1="98.33" x2="1230.11" y2="97.51"/><path class="cls-5" d="M1117.41,110.7c4.21-22.52,38.69-15.08,64-11.39"/><path class="cls-6" d="M1142.23,177.86C1124,199.94,1139.5,176,1168.5,158c17.76-11,44-24,93-40"/><path class="cls-7" d="M1287.2,180.87c20.47,23.4,40.58,54.57,41.5,68.67"/><path class="cls-10" d="M1296.94,282.59c3.76-11.9,20.26-22.45,24-34.34,10.74-34-18.25-70.75-7.51-104.71,5.22-16.5,17.77-42.44,37.72-28.93"/><path class="cls-11" d="M1180.17,72c0-3.94,5.78-7.14,12.9-7.14S1206,68,1206,72"/><path class="cls-11" d="M1233.26,78.18c0-3.14,3.68-5.68,8.22-5.68s8.23,2.54,8.23,5.68"/><path class="cls-4" d="M1222.76,305.56h-27.67A51.56,51.56,0,0,1,1143.52,254V223a65.41,65.41,0,0,1,65.4-65.4h0a65.41,65.41,0,0,1,65.4,65.4v31A51.55,51.55,0,0,1,1222.76,305.56Z"/><path class="cls-2" d="M1261.65,78.49c15.76,12.22,49.13,52.16,42.57,61-6.73,9.08-10.54,16.79-51.34,12.91-16.21-1.54-38.5-3.65-67.29-9.8-32.5-6.93-62.39-16.75-63.82-44s24.2-52,58-53.81S1237.54,59.79,1261.65,78.49Z"/><circle class="cls-2" cx="1183.28" cy="34.6" r="21.97"/><circle class="cls-2" cx="1117.74" cy="75.25" r="21.97"/><circle class="cls-4" cx="1125.06" cy="81.84" r="9.52"/><circle class="cls-4" cx="1188.04" cy="41.93" r="9.52"/><circle cx="1296.97" cy="143.9" r="11.4"/><path d="M1297,133a10.9,10.9,0,1,1-10.9,10.9A10.91,10.91,0,0,1,1297,133m0-1a11.9,11.9,0,1,0,11.9,11.9A11.9,11.9,0,0,0,1297,132Z"/><path d="M1242.46,112.6a15.64,15.64,0,0,1-15.67-15l-.21-5a10.68,10.68,0,0,1,10.23-11.09l10-.4h.44a10.63,10.63,0,0,1,10.65,10.23l.21,5a15.71,15.71,0,0,1-15.05,16.32Z"/><path d="M1247.29,81.52h0a10.13,10.13,0,0,1,10.15,9.75l.21,5a15.19,15.19,0,0,1-14.57,15.8h-.63a15.14,15.14,0,0,1-15.16-14.57l-.21-5a10.18,10.18,0,0,1,9.75-10.57l10-.41h.42m0-1h-.46l-10,.4a11.17,11.17,0,0,0-10.71,11.61l.21,5a16.18,16.18,0,0,0,16.16,15.53h.67a16.2,16.2,0,0,0,15.53-16.84l-.21-5a11.16,11.16,0,0,0-11.15-10.71Z"/><path d="M1197.61,114.42a15.64,15.64,0,0,1-15.66-15l-.21-5A10.66,10.66,0,0,1,1192,83.26l10-.41h.45a10.63,10.63,0,0,1,10.64,10.23l.21,5a15.71,15.71,0,0,1-15,16.32Z"/><path d="M1202.46,83.34h0a10.13,10.13,0,0,1,10.15,9.75l.21,5a15.19,15.19,0,0,1-14.57,15.8h-.63a15.14,15.14,0,0,1-15.16-14.57l-.21-5A10.19,10.19,0,0,1,1192,83.75l10-.4h.43m0-1H1202l-10,.41a11.16,11.16,0,0,0-10.71,11.6l.21,5a16.18,16.18,0,0,0,16.16,15.53h.67a16.2,16.2,0,0,0,15.53-16.84l-.21-5a11.16,11.16,0,0,0-11.15-10.71Z"/><line class="cls-5" x1="1209.99" y1="98.33" x2="1230.11" y2="97.51"/><path class="cls-5" d="M1117.41,110.7c4.21-22.52,38.69-15.08,64-11.39"/><path class="cls-10" d="M1296.94,282.59c3.76-11.9,20.26-22.45,24-34.34,10.74-34-18.25-70.75-7.51-104.71,5.22-16.5,17.77-42.44,37.72-28.93"/><path class="cls-11" d="M1180.17,72c0-3.94,5.78-7.14,12.9-7.14S1206,68,1206,72"/><path class="cls-12" d="M1243.19,156.91c1-3.25,3.15-6.93,8.27-9.89,5.92-3.43,11-2.6,12.84-2.71"/><path class="cls-12" d="M1253.78,162.5a14.39,14.39,0,0,1,5.48-9.6c4.47-3.79,8.87-3.86,10.42-4.24"/><path class="cls-12" d="M1286.77,120.66c2.1-2.67,5.48-5.29,11.33-6.15,6.77-1,11.17,1.63,12.94,2.22"/><path class="cls-12" d="M1294.55,129.76a14.4,14.4,0,0,1,8.63-6.91c5.56-1.87,9.67-.31,11.25-.09"/><path class="cls-11" d="M1233.26,78.18c0-3.14,3.68-5.68,8.22-5.68s8.23,2.54,8.23,5.68"/><path class="cls-13" d="M1142.18,60.21c-3.3-2.1,4.78-10.08,8.51-18.28"/><path class="cls-13" d="M1142.6,60.25c3.2-4,13.48-4.94,19.81-9.54"/><path class="cls-13" d="M1141.78,60.21c-1-6.16,9-8.37,18.07-15.72"/><path class="cls-1" d="M1620,333.3h0a25.1,25.1,0,0,0,7.9-34.61v0a11.42,11.42,0,0,0-15.75-3.6L1589,309.64a11.44,11.44,0,0,0-3.6,15.76h0A25.13,25.13,0,0,0,1620,333.3Z"/><ellipse class="cls-1" cx="1634.76" cy="324.42" rx="7.67" ry="11.83" transform="translate(249.41 1250.97) rotate(-45)"/><ellipse class="cls-1" cx="1608.08" cy="339.36" rx="7.61" ry="11.74" transform="matrix(0.54, -0.84, 0.84, 0.54, 455.54, 1510.99)"/><ellipse class="cls-1" cx="1623.76" cy="332.32" rx="8.94" ry="12.61" transform="translate(312.01 1345.41) rotate(-49.25)"/><path class="cls-1" d="M1474,332.57h0a25.11,25.11,0,0,1-7.9-34.62v0a11.42,11.42,0,0,1,15.75-3.59L1505,308.91a11.43,11.43,0,0,1,3.6,15.75h0A25.13,25.13,0,0,1,1474,332.57Z"/><ellipse class="cls-1" cx="1459.23" cy="323.69" rx="11.83" ry="7.67" transform="translate(198.52 1126.64) rotate(-45)"/><ellipse class="cls-1" cx="1485.91" cy="338.63" rx="11.74" ry="7.61" transform="translate(51.77 854.24) rotate(-32.61)"/><ellipse class="cls-1" cx="1470.23" cy="331.59" rx="12.61" ry="8.94" transform="translate(140.04 1040.19) rotate(-40.75)"/><path class="cls-2" d="M1583.78,326.44h-77.31a57,57,0,0,1-57-57V213.76a99.33,99.33,0,0,1,99.33-99.33h0A92.17,92.17,0,0,1,1641,206.6v62.6A57.24,57.24,0,0,1,1583.78,326.44Z"/><path class="cls-1" d="M1474,332.57h0a25.11,25.11,0,0,1-7.9-34.62v0a11.42,11.42,0,0,1,15.75-3.59L1505,308.91a11.43,11.43,0,0,1,3.6,15.75h0A25.13,25.13,0,0,1,1474,332.57Z"/><ellipse class="cls-1" cx="1459.23" cy="323.69" rx="11.83" ry="7.67" transform="translate(198.52 1126.64) rotate(-45)"/><ellipse class="cls-1" cx="1485.91" cy="338.63" rx="11.74" ry="7.61" transform="translate(51.77 854.24) rotate(-32.61)"/><ellipse class="cls-1" cx="1470.23" cy="331.59" rx="12.61" ry="8.94" transform="translate(140.04 1040.19) rotate(-40.75)"/><path class="cls-1" d="M1620,333.3h0a25.1,25.1,0,0,0,7.9-34.61v0a11.42,11.42,0,0,0-15.75-3.6L1589,309.64a11.44,11.44,0,0,0-3.6,15.76h0A25.13,25.13,0,0,0,1620,333.3Z"/><ellipse class="cls-1" cx="1634.76" cy="324.42" rx="7.67" ry="11.83" transform="translate(249.41 1250.97) rotate(-45)"/><ellipse class="cls-1" cx="1608.08" cy="339.36" rx="7.61" ry="11.74" transform="matrix(0.54, -0.84, 0.84, 0.54, 455.54, 1510.99)"/><ellipse class="cls-1" cx="1623.76" cy="332.32" rx="8.94" ry="12.61" transform="translate(312.01 1345.41) rotate(-49.25)"/><path class="cls-3" d="M1583.27,326.44h-77a56.86,56.86,0,0,1-56.74-57V213.76c0-54.86,44.3-99.33,99-99.33h0c50.71,0,91.82,41.26,91.82,92.17v62.6A57.12,57.12,0,0,1,1583.27,326.44Z"/><path class="cls-2" d="M1585.64,326.44h-74.79c-30.44,0-55.11-25.15-55.11-56.18V215.31c0-54.1,43-97.95,96.1-97.95h0c49.25,0,89.18,40.69,89.18,90.9V270C1641,301.17,1616.22,326.44,1585.64,326.44Z"/><path class="cls-4" d="M1560.76,305.56h-27.67A51.56,51.56,0,0,1,1481.52,254V223a65.41,65.41,0,0,1,65.4-65.4h0a65.41,65.41,0,0,1,65.4,65.4v31A51.55,51.55,0,0,1,1560.76,305.56Z"/><circle class="cls-2" cx="1521.28" cy="34.6" r="21.97"/><circle class="cls-2" cx="1455.74" cy="75.25" r="21.97"/><circle class="cls-4" cx="1463.06" cy="81.84" r="9.52"/><circle class="cls-4" cx="1526.04" cy="41.93" r="9.52"/><path class="cls-3" d="M1597.64,81.48c15.69,13.21,49,56.29,42.56,65.76-6.63,9.71-10.36,18-50.83,13.58-16.09-1.75-38.2-4.14-66.78-10.9-32.26-7.63-61.95-18.34-63.53-47.62s23.7-55.76,57.18-57.48S1573.63,61.26,1597.64,81.48Z"/><path d="M1580.46,112.6a15.64,15.64,0,0,1-15.67-15l-.21-5a10.68,10.68,0,0,1,10.23-11.09l10-.4h.44a10.63,10.63,0,0,1,10.65,10.23l.21,5a15.71,15.71,0,0,1-15.05,16.32Z"/><path d="M1585.29,81.52h0a10.13,10.13,0,0,1,10.15,9.75l.21,5a15.19,15.19,0,0,1-14.57,15.8h-.63a15.14,15.14,0,0,1-15.16-14.57l-.21-5a10.18,10.18,0,0,1,9.75-10.57l10-.41h.42m0-1h-.46l-10,.4a11.17,11.17,0,0,0-10.71,11.61l.21,5a16.18,16.18,0,0,0,16.16,15.53h.67a16.2,16.2,0,0,0,15.53-16.84l-.21-5a11.16,11.16,0,0,0-11.15-10.71Z"/><path d="M1535.61,114.42a15.64,15.64,0,0,1-15.66-15l-.21-5A10.66,10.66,0,0,1,1530,83.26l10-.41h.45a10.63,10.63,0,0,1,10.64,10.23l.21,5a15.71,15.71,0,0,1-15,16.32Z"/><path d="M1540.46,83.34h0a10.13,10.13,0,0,1,10.15,9.75l.21,5a15.19,15.19,0,0,1-14.57,15.8h-.63a15.14,15.14,0,0,1-15.16-14.57l-.21-5A10.19,10.19,0,0,1,1530,83.75l10-.4h.43m0-1H1540l-10,.41a11.16,11.16,0,0,0-10.71,11.6l.21,5a16.18,16.18,0,0,0,16.16,15.53h.67a16.2,16.2,0,0,0,15.53-16.84l-.21-5a11.16,11.16,0,0,0-11.15-10.71Z"/><line class="cls-5" x1="1547.99" y1="98.33" x2="1568.11" y2="97.51"/><path class="cls-5" d="M1455.41,110.7c4.21-22.52,38.69-15.08,64-11.39"/><path class="cls-6" d="M1474.23,172.86C1456,194.94,1485.5,138,1516.5,144c30.65,5.93,100-41,115-43"/><path class="cls-7" d="M1625.2,180.87c20.47,23.4,40.58,54.57,41.5,68.67"/><path class="cls-10" d="M1634.94,282.59c3.76-11.9,20.26-22.45,24-34.34,10.74-34-18.25-70.75-7.51-104.71,5.22-16.5,17.77-42.44,37.72-28.93"/><path class="cls-11" d="M1518.17,72c0-3.94,5.78-7.14,12.9-7.14S1544,68,1544,72"/><path class="cls-11" d="M1571.26,78.18c0-3.14,3.68-5.68,8.22-5.68s8.23,2.54,8.23,5.68"/><path class="cls-4" d="M1560.76,305.56h-27.67A51.56,51.56,0,0,1,1481.52,254V223a65.41,65.41,0,0,1,65.4-65.4h0a65.41,65.41,0,0,1,65.4,65.4v31A51.55,51.55,0,0,1,1560.76,305.56Z"/><path class="cls-2" d="M1599.65,78.49c15.76,12.22,49.13,52.16,42.57,61-6.73,9.08-10.54,16.79-51.34,12.91-16.21-1.54-38.5-3.65-67.29-9.8-32.5-6.93-62.39-16.75-63.82-44s24.2-52,58-53.81S1575.54,59.79,1599.65,78.49Z"/><circle class="cls-2" cx="1521.28" cy="34.6" r="21.97"/><circle class="cls-2" cx="1455.74" cy="75.25" r="21.97"/><circle class="cls-4" cx="1463.06" cy="81.84" r="9.52"/><circle class="cls-4" cx="1526.04" cy="41.93" r="9.52"/><circle cx="1634.97" cy="143.9" r="11.4"/><path d="M1635,133a10.9,10.9,0,1,1-10.9,10.9A10.91,10.91,0,0,1,1635,133m0-1a11.9,11.9,0,1,0,11.9,11.9A11.9,11.9,0,0,0,1635,132Z"/><path d="M1580.46,112.6a15.64,15.64,0,0,1-15.67-15l-.21-5a10.68,10.68,0,0,1,10.23-11.09l10-.4h.44a10.63,10.63,0,0,1,10.65,10.23l.21,5a15.71,15.71,0,0,1-15.05,16.32Z"/><path d="M1585.29,81.52h0a10.13,10.13,0,0,1,10.15,9.75l.21,5a15.19,15.19,0,0,1-14.57,15.8h-.63a15.14,15.14,0,0,1-15.16-14.57l-.21-5a10.18,10.18,0,0,1,9.75-10.57l10-.41h.42m0-1h-.46l-10,.4a11.17,11.17,0,0,0-10.71,11.61l.21,5a16.18,16.18,0,0,0,16.16,15.53h.67a16.2,16.2,0,0,0,15.53-16.84l-.21-5a11.16,11.16,0,0,0-11.15-10.71Z"/><path d="M1535.61,114.42a15.64,15.64,0,0,1-15.66-15l-.21-5A10.66,10.66,0,0,1,1530,83.26l10-.41h.45a10.63,10.63,0,0,1,10.64,10.23l.21,5a15.71,15.71,0,0,1-15,16.32Z"/><path d="M1540.46,83.34h0a10.13,10.13,0,0,1,10.15,9.75l.21,5a15.19,15.19,0,0,1-14.57,15.8h-.63a15.14,15.14,0,0,1-15.16-14.57l-.21-5A10.19,10.19,0,0,1,1530,83.75l10-.4h.43m0-1H1540l-10,.41a11.16,11.16,0,0,0-10.71,11.6l.21,5a16.18,16.18,0,0,0,16.16,15.53h.67a16.2,16.2,0,0,0,15.53-16.84l-.21-5a11.16,11.16,0,0,0-11.15-10.71Z"/><line class="cls-5" x1="1547.99" y1="98.33" x2="1568.11" y2="97.51"/><path class="cls-5" d="M1455.41,110.7c4.21-22.52,38.69-15.08,64-11.39"/><path class="cls-8" d="M1698.49,97.08c0,18.93-11.75,30.29-30.68,30.29s-31.49-14.55-31.49-33.48,12.16-25.11,31.09-25.11C1686.14,68.78,1698.49,78.15,1698.49,97.08Z"/><ellipse class="cls-8" cx="1666.16" cy="67.68" rx="8.97" ry="3.3"/><ellipse class="cls-8" cx="1665.98" cy="62.92" rx="15.38" ry="4.03"/><ellipse cx="1665.8" cy="62.74" rx="9.34" ry="0.92"/><ellipse class="cls-4" cx="1689.05" cy="98.08" rx="2.2" ry="16.11"/><path class="cls-8" d="M1698.49,97.08c0,18.93-11.75,30.29-30.68,30.29s-31.49-14.55-31.49-33.48,12.16-25.11,31.09-25.11C1686.14,68.78,1698.49,78.15,1698.49,97.08Z"/><ellipse class="cls-8" cx="1666.16" cy="67.68" rx="8.97" ry="3.3"/><ellipse class="cls-8" cx="1665.98" cy="62.92" rx="15.38" ry="4.03"/><ellipse cx="1665.8" cy="62.74" rx="9.34" ry="0.92"/><path class="cls-9" d="M1641.65,126.78a2.93,2.93,0,0,1-5.77-1c.28-1.59,3-6,4.8-7.74C1641,120.16,1641.93,125.19,1641.65,126.78Z"/><path class="cls-9" d="M1652.71,134.93a2.93,2.93,0,1,1-5.64,1.59c-.44-1.55.14-6.69.94-9.05C1649.19,129.27,1652.27,133.37,1652.71,134.93Z"/><ellipse class="cls-4" cx="1689.05" cy="98.08" rx="2.2" ry="16.11"/><path class="cls-10" d="M1634.94,282.59c3.76-11.9,20.26-22.45,24-34.34,10.74-34-18.25-70.75-7.51-104.71,5.22-16.5,17.77-42.44,37.72-28.93"/><path class="cls-11" d="M1518.17,72c0-3.94,5.78-7.14,12.9-7.14S1544,68,1544,72"/><path class="cls-12" d="M1581.19,156.91c1-3.25,3.15-6.93,8.27-9.89,5.92-3.43,11-2.6,12.84-2.71"/><path class="cls-12" d="M1591.78,162.5a14.39,14.39,0,0,1,5.48-9.6c4.47-3.79,8.87-3.86,10.42-4.24"/><path class="cls-12" d="M1624.77,120.66c2.1-2.67,5.48-5.29,11.33-6.15,6.77-1,11.17,1.63,12.94,2.22"/><path class="cls-12" d="M1632.55,129.76a14.4,14.4,0,0,1,8.63-6.91c5.56-1.87,9.67-.31,11.25-.09"/><path class="cls-11" d="M1571.26,78.18c0-3.14,3.68-5.68,8.22-5.68s8.23,2.54,8.23,5.68"/><path class="cls-13" d="M1480.18,60.21c-3.3-2.1,4.78-10.08,8.51-18.28"/><path class="cls-13" d="M1480.6,60.25c3.2-4,13.48-4.94,19.81-9.54"/><path class="cls-13" d="M1479.78,60.21c-1-6.16,9-8.37,18.07-15.72"/><path class="cls-8" d="M1316.49,116.08c0,18.93-11.75,30.29-30.68,30.29s-31.49-14.55-31.49-33.48,12.16-25.11,31.09-25.11C1304.14,87.78,1316.49,97.15,1316.49,116.08Z"/><ellipse class="cls-8" cx="1284.16" cy="86.68" rx="8.97" ry="3.3"/><ellipse class="cls-8" cx="1283.98" cy="81.92" rx="15.38" ry="4.03"/><ellipse cx="1283.8" cy="81.74" rx="9.34" ry="0.92"/><ellipse class="cls-4" cx="1307.05" cy="117.08" rx="2.2" ry="16.11"/><ellipse class="cls-8" cx="1284.16" cy="86.68" rx="8.97" ry="3.3"/><ellipse class="cls-8" cx="1283.98" cy="81.92" rx="15.38" ry="4.03"/><ellipse cx="1283.8" cy="81.74" rx="9.34" ry="0.92"/><path class="cls-9" d="M1259.65,145.78a2.93,2.93,0,0,1-5.77-1c.28-1.59,3-6,4.8-7.74C1259,139.16,1259.93,144.19,1259.65,145.78Z"/><path class="cls-9" d="M1270.71,153.93a2.93,2.93,0,1,1-5.64,1.59c-.44-1.55.14-6.69.94-9.05C1267.19,148.27,1270.27,152.37,1270.71,153.93Z"/><ellipse class="cls-4" cx="1307.05" cy="117.08" rx="2.2" ry="16.11"/></svg>