<svg id="Layer_1" data-name="Layer 1" xmlns="http://www.w3.org/2000/svg" width="340" height="365" viewBox="0 0 340 365"><defs><style>.cls-1{fill:#603813;}.cls-2{fill:#999;}.cls-3{fill:gray;}.cls-4,.cls-7{fill:#fff;}.cls-10,.cls-11,.cls-12,.cls-13,.cls-5,.cls-6{fill:none;}.cls-11,.cls-12,.cls-13,.cls-5{stroke:#000;}.cls-10,.cls-11,.cls-12,.cls-5{stroke-miterlimit:10;}.cls-5{stroke-width:12px;}.cls-10,.cls-6,.cls-7{stroke:#999;}.cls-10,.cls-11,.cls-12,.cls-13,.cls-6,.cls-7{stroke-linecap:round;}.cls-13,.cls-6,.cls-7{stroke-linejoin:round;}.cls-6{stroke-width:37px;}.cls-7{stroke-width:31px;}.cls-8{fill:red;}.cls-9{fill:#0067ff;}.cls-10{stroke-width:15px;}.cls-11{stroke-width:8px;}.cls-12{stroke-width:5px;}.cls-13{stroke-width:18px;}</style></defs><title>Mus</title><path class="cls-1" d="M257,332.3h0a25.1,25.1,0,0,0,7.9-34.61v0a11.42,11.42,0,0,0-15.75-3.6L226,308.64a11.44,11.44,0,0,0-3.6,15.76h0A25.13,25.13,0,0,0,257,332.3Z"/><ellipse class="cls-1" cx="271.76" cy="323.42" rx="7.67" ry="11.83" transform="translate(-149.09 286.89) rotate(-45)"/><ellipse class="cls-1" cx="245.08" cy="338.36" rx="7.61" ry="11.74" transform="translate(-172.02 362.43) rotate(-57.39)"/><ellipse class="cls-1" cx="260.76" cy="331.32" rx="8.94" ry="12.61" transform="translate(-160.45 312.56) rotate(-49.25)"/><path class="cls-1" d="M111,331.57h0a25.11,25.11,0,0,1-7.9-34.62v0a11.42,11.42,0,0,1,15.75-3.59L142,307.91a11.43,11.43,0,0,1,3.6,15.75h0A25.13,25.13,0,0,1,111,331.57Z"/><ellipse class="cls-1" cx="96.23" cy="322.69" rx="11.83" ry="7.67" transform="translate(-199.99 162.56) rotate(-45)"/><ellipse class="cls-1" cx="122.91" cy="337.63" rx="11.74" ry="7.61" transform="translate(-162.59 119.48) rotate(-32.61)"/><ellipse class="cls-1" cx="107.23" cy="330.59" rx="12.61" ry="8.94" transform="translate(-189.81 150.16) rotate(-40.75)"/><path class="cls-2" d="M220.78,325.44H143.47a57,57,0,0,1-57-57V212.76a99.33,99.33,0,0,1,99.33-99.33h0A92.17,92.17,0,0,1,278,205.6v62.6A57.24,57.24,0,0,1,220.78,325.44Z"/><path class="cls-1" d="M111,331.57h0a25.11,25.11,0,0,1-7.9-34.62v0a11.42,11.42,0,0,1,15.75-3.59L142,307.91a11.43,11.43,0,0,1,3.6,15.75h0A25.13,25.13,0,0,1,111,331.57Z"/><ellipse class="cls-1" cx="96.23" cy="322.69" rx="11.83" ry="7.67" transform="translate(-199.99 162.56) rotate(-45)"/><ellipse class="cls-1" cx="122.91" cy="337.63" rx="11.74" ry="7.61" transform="translate(-162.59 119.48) rotate(-32.61)"/><ellipse class="cls-1" cx="107.23" cy="330.59" rx="12.61" ry="8.94" transform="translate(-189.81 150.16) rotate(-40.75)"/><path class="cls-1" d="M257,332.3h0a25.1,25.1,0,0,0,7.9-34.61v0a11.42,11.42,0,0,0-15.75-3.6L226,308.64a11.44,11.44,0,0,0-3.6,15.76h0A25.13,25.13,0,0,0,257,332.3Z"/><ellipse class="cls-1" cx="271.76" cy="323.42" rx="7.67" ry="11.83" transform="translate(-149.09 286.89) rotate(-45)"/><ellipse class="cls-1" cx="245.08" cy="338.36" rx="7.61" ry="11.74" transform="translate(-172.02 362.43) rotate(-57.39)"/><ellipse class="cls-1" cx="260.76" cy="331.32" rx="8.94" ry="12.61" transform="translate(-160.45 312.56) rotate(-49.25)"/><path class="cls-3" d="M220.27,325.44h-77a56.86,56.86,0,0,1-56.74-57V212.76c0-54.86,44.3-99.33,99-99.33h0c50.71,0,91.82,41.26,91.82,92.17v62.6A57.12,57.12,0,0,1,220.27,325.44Z"/><path class="cls-2" d="M222.64,325.44H147.85c-30.44,0-55.11-25.15-55.11-56.18V214.31c0-54.1,43-97.95,96.1-97.95h0c49.25,0,89.18,40.69,89.18,90.9V269C278,300.17,253.22,325.44,222.64,325.44Z"/><path class="cls-4" d="M197.76,304.56H170.09A51.56,51.56,0,0,1,118.52,253V222a65.41,65.41,0,0,1,65.4-65.4h0a65.41,65.41,0,0,1,65.4,65.4v31A51.55,51.55,0,0,1,197.76,304.56Z"/><circle class="cls-2" cx="158.28" cy="33.6" r="21.97"/><circle class="cls-2" cx="92.74" cy="74.25" r="21.97"/><circle class="cls-4" cx="100.06" cy="80.84" r="9.52"/><circle class="cls-4" cx="163.04" cy="40.93" r="9.52"/><path class="cls-3" d="M234.64,80.48c15.69,13.21,49,56.29,42.56,65.76-6.63,9.71-10.36,18-50.83,13.58-16.09-1.75-38.2-4.14-66.78-10.9-32.26-7.63-61.95-18.34-63.53-47.62s23.7-55.76,57.18-57.48S210.63,60.26,234.64,80.48Z"/><path d="M217.46,111.6a15.64,15.64,0,0,1-15.67-15l-.21-5a10.68,10.68,0,0,1,10.23-11.09l10-.4h.44a10.63,10.63,0,0,1,10.65,10.23l.21,5a15.71,15.71,0,0,1-15.05,16.32Z"/><path d="M222.29,80.52a10.13,10.13,0,0,1,10.15,9.75l.21,5a15.19,15.19,0,0,1-14.57,15.8h-.63a15.14,15.14,0,0,1-15.16-14.57l-.21-5a10.16,10.16,0,0,1,9.75-10.57l10-.41h.42m0-1h-.46l-10,.4a11.17,11.17,0,0,0-10.71,11.61l.21,5a16.18,16.18,0,0,0,16.16,15.53h.67a16.19,16.19,0,0,0,15.52-16.84l-.2-5a11.16,11.16,0,0,0-11.15-10.71Z"/><path d="M172.61,113.42a15.64,15.64,0,0,1-15.66-15l-.21-5A10.66,10.66,0,0,1,167,82.26l10-.41h.45A10.63,10.63,0,0,1,188.1,92.07l.21,5a15.71,15.71,0,0,1-15.05,16.32Z"/><path d="M177.45,82.34a10.13,10.13,0,0,1,10.15,9.75l.21,5a15.19,15.19,0,0,1-14.57,15.8h-.62a15.14,15.14,0,0,1-15.17-14.57l-.21-5A10.18,10.18,0,0,1,167,82.75l10-.4h.42m0-1H177l-10,.41a11.16,11.16,0,0,0-10.71,11.6l.21,5a16.19,16.19,0,0,0,16.17,15.53h.66a16.2,16.2,0,0,0,15.53-16.84l-.21-5a11.16,11.16,0,0,0-11.15-10.71Z"/><line class="cls-5" x1="184.99" y1="97.33" x2="205.11" y2="96.51"/><path class="cls-5" d="M92.41,109.7c4.21-22.52,38.69-15.08,64-11.39"/><path class="cls-6" d="M111.23,171.86C93,193.94,67.11,203.54,53.56,185.22c-12.43-16.8-3.59-14.73-9.52-44"/><path class="cls-7" d="M262.2,179.87c20.47,23.4,40.58,54.57,41.5,68.67"/><path class="cls-8" d="M68.49,101.08c0,18.93-11.75,30.29-30.68,30.29S6.32,116.82,6.32,97.89,18.48,72.78,37.41,72.78C56.14,72.78,68.49,82.15,68.49,101.08Z"/><ellipse class="cls-8" cx="36.16" cy="71.68" rx="8.97" ry="3.3"/><ellipse class="cls-8" cx="35.98" cy="66.92" rx="15.38" ry="4.03"/><ellipse cx="35.8" cy="66.74" rx="9.34" ry="0.92"/><path class="cls-9" d="M11.65,130.78a2.93,2.93,0,1,1-5.77-1c.28-1.59,3.05-6,4.8-7.74C11,124.16,11.93,129.19,11.65,130.78Z"/><path class="cls-9" d="M22.71,138.93a2.93,2.93,0,1,1-5.64,1.59c-.44-1.55.14-6.69.94-9.05C19.19,133.27,22.27,137.37,22.71,138.93Z"/><ellipse class="cls-4" cx="59.05" cy="102.08" rx="2.2" ry="16.11"/><path class="cls-10" d="M271.94,281.59c3.76-11.9,20.26-22.45,24-34.34,10.74-34-18.25-70.75-7.51-104.71,5.22-16.5,17.77-42.44,37.72-28.93"/><path class="cls-11" d="M155.17,71c0-3.94,5.78-7.14,12.9-7.14S181,67,181,71"/><path class="cls-11" d="M208.26,77.18c0-3.14,3.68-5.68,8.22-5.68s8.23,2.54,8.23,5.68"/><path class="cls-4" d="M197.76,304.56H170.09A51.56,51.56,0,0,1,118.52,253V222a65.41,65.41,0,0,1,65.4-65.4h0a65.41,65.41,0,0,1,65.4,65.4v31A51.55,51.55,0,0,1,197.76,304.56Z"/><path class="cls-2" d="M236.65,77.49c15.76,12.22,49.13,52.16,42.57,61-6.73,9.08-10.54,16.79-51.34,12.91-16.21-1.54-38.5-3.65-67.29-9.8-32.5-6.93-62.39-16.75-63.82-44s24.2-52,58-53.81S212.54,58.79,236.65,77.49Z"/><circle class="cls-2" cx="158.28" cy="33.6" r="21.97"/><circle class="cls-2" cx="92.74" cy="74.25" r="21.97"/><circle class="cls-4" cx="100.06" cy="80.84" r="9.52"/><circle class="cls-4" cx="163.04" cy="40.93" r="9.52"/><circle cx="271.97" cy="142.9" r="11.4"/><path d="M272,132a10.9,10.9,0,1,1-10.9,10.9A10.91,10.91,0,0,1,272,132m0-1a11.9,11.9,0,1,0,11.9,11.9A11.9,11.9,0,0,0,272,131Z"/><path d="M217.46,111.6a15.64,15.64,0,0,1-15.67-15l-.21-5a10.68,10.68,0,0,1,10.23-11.09l10-.4h.44a10.63,10.63,0,0,1,10.65,10.23l.21,5a15.71,15.71,0,0,1-15.05,16.32Z"/><path d="M222.29,80.52a10.13,10.13,0,0,1,10.15,9.75l.21,5a15.19,15.19,0,0,1-14.57,15.8h-.63a15.14,15.14,0,0,1-15.16-14.57l-.21-5a10.16,10.16,0,0,1,9.75-10.57l10-.41h.42m0-1h-.46l-10,.4a11.17,11.17,0,0,0-10.71,11.61l.21,5a16.18,16.18,0,0,0,16.16,15.53h.67a16.19,16.19,0,0,0,15.52-16.84l-.2-5a11.16,11.16,0,0,0-11.15-10.71Z"/><path d="M172.61,113.42a15.64,15.64,0,0,1-15.66-15l-.21-5A10.66,10.66,0,0,1,167,82.26l10-.41h.45A10.63,10.63,0,0,1,188.1,92.07l.21,5a15.71,15.71,0,0,1-15.05,16.32Z"/><path d="M177.45,82.34a10.13,10.13,0,0,1,10.15,9.75l.21,5a15.19,15.19,0,0,1-14.57,15.8h-.62a15.14,15.14,0,0,1-15.17-14.57l-.21-5A10.18,10.18,0,0,1,167,82.75l10-.4h.42m0-1H177l-10,.41a11.16,11.16,0,0,0-10.71,11.6l.21,5a16.19,16.19,0,0,0,16.17,15.53h.66a16.2,16.2,0,0,0,15.53-16.84l-.21-5a11.16,11.16,0,0,0-11.15-10.71Z"/><line class="cls-5" x1="184.99" y1="97.33" x2="205.11" y2="96.51"/><path class="cls-5" d="M92.41,109.7c4.21-22.52,38.69-15.08,64-11.39"/><path class="cls-8" d="M68.49,101.08c0,18.93-11.75,30.29-30.68,30.29S6.32,116.82,6.32,97.89,18.48,72.78,37.41,72.78C56.14,72.78,68.49,82.15,68.49,101.08Z"/><ellipse class="cls-8" cx="36.16" cy="71.68" rx="8.97" ry="3.3"/><ellipse class="cls-8" cx="35.98" cy="66.92" rx="15.38" ry="4.03"/><ellipse cx="35.8" cy="66.74" rx="9.34" ry="0.92"/><path class="cls-9" d="M11.65,130.78a2.93,2.93,0,1,1-5.77-1c.28-1.59,3.05-6,4.8-7.74C11,124.16,11.93,129.19,11.65,130.78Z"/><path class="cls-9" d="M22.71,138.93a2.93,2.93,0,1,1-5.64,1.59c-.44-1.55.14-6.69.94-9.05C19.19,133.27,22.27,137.37,22.71,138.93Z"/><ellipse class="cls-4" cx="59.05" cy="102.08" rx="2.2" ry="16.11"/><path class="cls-10" d="M271.94,281.59c3.76-11.9,20.26-22.45,24-34.34,10.74-34-18.25-70.75-7.51-104.71,5.22-16.5,17.77-42.44,37.72-28.93"/><path class="cls-11" d="M155.17,71c0-3.94,5.78-7.14,12.9-7.14S181,67,181,71"/><path class="cls-12" d="M218.19,155.91c1-3.25,3.15-6.93,8.27-9.89,5.92-3.43,11-2.6,12.84-2.71"/><path class="cls-12" d="M228.78,161.5a14.39,14.39,0,0,1,5.48-9.6c4.47-3.79,8.87-3.86,10.42-4.24"/><path class="cls-12" d="M261.77,119.66c2.1-2.67,5.48-5.29,11.33-6.15,6.77-1,11.17,1.63,12.94,2.22"/><path class="cls-12" d="M269.55,128.76a14.4,14.4,0,0,1,8.63-6.91c5.56-1.87,9.67-.31,11.25-.09"/><path class="cls-11" d="M208.26,77.18c0-3.14,3.68-5.68,8.22-5.68s8.23,2.54,8.23,5.68"/><path class="cls-13" d="M117.18,59.21c-3.3-2.1,4.78-10.08,8.51-18.28"/><path class="cls-13" d="M117.6,59.25c3.2-4,13.48-4.94,19.81-9.54"/><path class="cls-13" d="M116.78,59.21c-1-6.16,9-8.37,18.07-15.72"/></svg>
