<svg id="Layer_1" data-name="Layer 1" xmlns="http://www.w3.org/2000/svg" width="380" height="380" viewBox="0 0 380 380"><defs><style>.cls-1,.cls-3{fill:#ff0;}.cls-2{fill:#fcee21;}.cls-3{stroke:#000;stroke-miterlimit:10;}</style></defs><title>Ost</title><path class="cls-1" d="M45.46,200.53c-.38,6.63-.76,14.2-1.15,22.14.51,0,1-.07,1.53-.07a16.39,16.39,0,0,1,0,32.78,17.27,17.27,0,0,1-3.07-.29c-.34,7.08-.69,13.83-1,19.81,30,.52,60,.07,90-.75a26.83,26.83,0,0,1-.2-3.13,25.34,25.34,0,0,1,50.67,0c0,.52,0,1-.05,1.53,49.31-1.69,98.62-3.46,147.94-2.61l8.19-99.87Z"/><circle class="cls-2" cx="109.91" cy="219.62" r="14.9"/><circle class="cls-2" cx="209.74" cy="250.16" r="8.2"/><circle class="cls-2" cx="293.93" cy="214.4" r="24.59"/><ellipse class="cls-3" cx="237.31" cy="142.8" rx="21.61" ry="10.35"/><ellipse class="cls-3" cx="150.33" cy="161.13" rx="12.11" ry="4.84"/><path class="cls-2" d="M201.22,184.7c.65,6.34-8.28,12.45-19.94,13.65s-21.65-3-22.3-9.32"/><path class="cls-2" d="M312.67,156.12a16.09,16.09,0,0,1-10.91,4.26,16.58,16.58,0,0,1-16.4-16.76,17.42,17.42,0,0,1,.16-2.3l-66.84-36.44-17.81,10c4.7,2.09,7.76,5.51,7.76,9.37,0,6.38-8.34,11.55-18.63,11.55-6.89,0-12.9-2.32-16.12-5.77L45.46,202.11l292.8-32Z"/><ellipse class="cls-1" cx="235.45" cy="156.66" rx="20.12" ry="13.41"/><ellipse class="cls-1" cx="247.37" cy="153.31" rx="0.75" ry="2.61"/><ellipse class="cls-1" cx="138.22" cy="171.56" rx="13.78" ry="5.96"/></svg>
