<svg id="Layer_1" data-name="Layer 1" xmlns="http://www.w3.org/2000/svg" width="750" height="210" viewBox="0 0 750 210"><defs><style>.cls-1{fill:red;}.cls-2{fill:lime;}.cls-3,.cls-5{fill:#ff0;}.cls-4{fill:#fcee21;}.cls-10,.cls-13,.cls-5,.cls-9{stroke:#000;stroke-miterlimit:10;}.cls-6,.cls-8{fill:#f7931e;}.cls-6{stroke:#fbb03b;stroke-linejoin:round;stroke-width:10px;}.cls-10,.cls-6{stroke-linecap:round;}.cls-7{fill:#fbb03b;}.cls-10,.cls-13{fill:none;stroke-width:5px;}.cls-11{fill:#fff;}.cls-12{fill:#ff7bac;}</style></defs><title>Ostemeter 6</title><rect class="cls-1" x="162.52" y="107.77" width="466" height="32"/><rect class="cls-2" x="46.52" y="107.77" width="145" height="32"/><path class="cls-3" d="M218.22,121.3c.24,4.09.47,8.76.71,13.66-.31,0-.62,0-.94,0a10.12,10.12,0,1,0,0,20.23,10.62,10.62,0,0,0,1.89-.18c.21,4.37.43,8.54.64,12.23-18.51.31-37,0-55.53-.46a15.63,15.63,0,1,0-31.14-1.94c0,.32,0,.63,0,.95-30.44-1.05-60.87-2.14-91.3-1.61Q40,133.32,37.52,102.5Z"/><circle class="cls-4" cx="178.45" cy="133.08" r="9.2"/><circle class="cls-4" cx="116.83" cy="151.93" r="5.06"/><circle class="cls-4" cx="64.88" cy="129.86" r="15.17"/><ellipse class="cls-5" cx="99.82" cy="85.67" rx="13.33" ry="6.39"/><ellipse class="cls-5" cx="153.5" cy="96.98" rx="7.47" ry="2.99"/><path class="cls-4" d="M122.09,111.53c-.4,3.91,5.11,7.69,12.31,8.42s13.36-1.83,13.77-5.75"/><path class="cls-4" d="M53.31,93.89a9.93,9.93,0,0,0,6.74,2.63A10.23,10.23,0,0,0,70.17,86.18a11,11,0,0,0-.1-1.42l41.25-22.49,11,6.17c-2.9,1.29-4.79,3.4-4.79,5.78,0,3.94,5.15,7.13,11.5,7.13,4.25,0,8-1.43,9.95-3.56l79.25,44.48L37.52,102.5Z"/><ellipse class="cls-3" cx="100.97" cy="94.22" rx="12.41" ry="8.28"/><ellipse class="cls-3" cx="93.61" cy="92.16" rx="0.46" ry="1.61"/><ellipse class="cls-3" cx="160.98" cy="103.42" rx="8.51" ry="3.68"/><path class="cls-6" d="M593.63,158.43c-3.9-4.83-3.15-21.9,4.08-44.28C605.88,88.82,616.18,71.46,620,67a9,9,0,0,1,5.13-3,8.84,8.84,0,0,1,5.08.6,75.85,75.85,0,0,1,22.09,5.78,111.09,111.09,0,0,1,12.22,6.46s6,3.52,11.94,7.81c8,5.79,21.12,17.32,36,33.66a80.7,80.7,0,0,1-18.76,21.66c-2.55,2-13.71,10.74-35.93,16.46C632.87,162.81,610.15,161.35,593.63,158.43Z"/><path class="cls-7" d="M648.73,67.42a80.79,80.79,0,0,1,20.43-15.7A85.42,85.42,0,0,1,693.62,43a3.31,3.31,0,0,1,4.78,3.18,108.12,108.12,0,0,1,1.82,25.19A102.89,102.89,0,0,1,695.13,99c-6.38-5.27-13.52-10.73-21.45-16.18C665,76.85,656.57,71.75,648.73,67.42Z"/><path class="cls-8" d="M652.39,67.82a64,64,0,0,1,16.07-12.34,66.93,66.93,0,0,1,19.23-6.84,2.54,2.54,0,0,1,2.6.17,2.49,2.49,0,0,1,1.16,2.33A85.08,85.08,0,0,1,692.88,71a80.53,80.53,0,0,1-4,21.71c-5-4.14-10.63-8.44-16.87-12.72C665.16,75.24,658.56,71.23,652.39,67.82Z"/><ellipse class="cls-9" cx="622.81" cy="110.48" rx="5.03" ry="7.43" transform="translate(1.4 228.6) rotate(-20.82)"/><ellipse class="cls-9" cx="643.48" cy="103.98" rx="5.24" ry="7.43" transform="translate(5.06 235.52) rotate(-20.82)"/><path class="cls-10" d="M682.59,124.57c-2.18-2.41-5.58-4.7-11.23-5.15-6.53-.52-10.57,2.28-12.22,3"/><path class="cls-10" d="M679.22,128.36a13.78,13.78,0,0,0-9.57-4.53c-5.59-.51-9.08,1.84-10.5,2.4"/><path class="cls-10" d="M669.62,128.22c-5.6-.44-9.06,2-10.48,2.53"/><path class="cls-10" d="M679.24,132.63a13.81,13.81,0,0,0-9.62-4.41"/><path class="cls-10" d="M618.47,128.25c-3.23-.39-7.3.11-11.86,3.47-5.27,3.89-6.49,8.65-7.3,10.24"/><path class="cls-10" d="M618.41,133.32a13.77,13.77,0,0,0-10.19,2.85c-4.57,3.28-5.66,7.35-6.37,8.7"/><path class="cls-10" d="M611.07,139.51c-4.52,3.33-5.56,7.42-6.26,8.78"/><path class="cls-10" d="M621.22,136.53a13.79,13.79,0,0,0-10.15,3"/><path class="cls-10" d="M628.21,117.68c3.41.65,7.78.42,12.88-2.83"/><path class="cls-10" d="M625.49,101.62c-2.81-2-6.86-3.68-12.86-2.91"/><path class="cls-7" d="M595.83,114.94a80.71,80.71,0,0,1-18.35-18.09,85.31,85.31,0,0,1-12-23,3.24,3.24,0,0,1-.24-3.31A3.17,3.17,0,0,1,568,68.65a107.82,107.82,0,0,1,24.7-5.26,103.21,103.21,0,0,1,28,1.25c-4.35,7-8.78,14.87-13.09,23.48C602.94,97.56,599.05,106.58,595.83,114.94Z"/><path class="cls-8" d="M597.73,108.53a61.48,61.48,0,0,1-14-13.81,65.1,65.1,0,0,1-9.14-17.59,2.49,2.49,0,0,1-.19-2.53,2.44,2.44,0,0,1,2.1-1.42,81.61,81.61,0,0,1,18.86-4,78.3,78.3,0,0,1,21.42,1c-3.32,5.38-6.71,11.36-10,17.93C603.16,95.26,600.19,102.14,597.73,108.53Z"/><path class="cls-11" d="M650.29,125.3c-10.33-3.18-18.64,1.08-23.51,3.42h0c-2.24-2.38-3.45-4.91-.6-6.07,5-2,11.33-4,18.32-2.22,3.69,1.13,6.14,4.45,5.79,4.87Z"/><path class="cls-11" d="M625.23,124.53h0c-1.42.57-.78,2.06.68,3.46a13.46,13.46,0,0,1,1.67,2c1,1.48,1.95,2.13,3,1.45h0a2.48,2.48,0,0,0,.66-3.37c-.37-.59-.8-1.2-1.28-1.85C628.94,124.81,626.62,124,625.23,124.53Z"/><path class="cls-11" d="M646.24,121.91h0c-2.1-.67-3.61.48-3.47,1.63.05.53.1,1,.14,1.41.11.92,1.41,1.23,3,1.14h0c1.62-.12,3.21-.25,3.4-.64.08-.21.16-.44.24-.71C649.78,124.26,648.31,122.6,646.24,121.91Z"/><path class="cls-12" d="M634.82,138.66c-.65-2.07-2.36-6,3.55-9.22,6.12-3.7,13.9,2,13.68,3"/><path class="cls-13" d="M654.61,131.41c-.81.91-7.61,2-13.41,5.26-6.31,3.21-8.53,4.48-12.34-1.12-2.28-3-6.74-7.39-4.62-10.57,1.5-2.44,6.41-5.12,11.61-5.14,5-.15,10.33,2.37,13.63,4.84C654,128.39,654.92,130.83,654.61,131.41Z"/><path class="cls-10" d="M644,90.07c-3.25,1.21-6.86,3.68-9.53,9.11"/></svg>