<svg id="Layer_1" data-name="Layer 1" xmlns="http://www.w3.org/2000/svg" width="610" height="320" viewBox="0 0 610 320"><defs><style>.cls-1{fill:#00ab00;}.cls-2{fill:lime;}.cls-3{opacity:0.4;}.cls-4{fill:red;}.cls-5{fill:#fff;}.cls-6{fill:#0067ff;}.cls-7{fill:#f7931e;}.cls-8{fill:#fbb03b;}</style></defs><title>Play knap</title><rect class="cls-1" x="39.44" y="46.22" width="529.89" height="252.03" rx="41.23"/><path class="cls-1" d="M281.66,94.75l73.53,72.44a5.67,5.67,0,0,1,.06,8l-72.44,73.53a5.66,5.66,0,0,1-9.7-3.93L272,98.83A5.66,5.66,0,0,1,281.66,94.75Z"/><path class="cls-1" d="M242.91,159.35c14.22,43.79-4.45,78.9-48.24,93.12s-83.76-10-98-53.8,9.27-67.21,53.06-81.43C193.08,103.17,228.7,115.56,242.91,159.35Z"/><ellipse class="cls-1" cx="146.04" cy="115.63" rx="21.82" ry="8.02" transform="translate(-28.57 50.75) rotate(-17.99)"/><ellipse class="cls-1" cx="142.05" cy="104.76" rx="37.4" ry="9.8" transform="translate(-25.41 48.98) rotate(-17.99)"/><ellipse class="cls-1" cx="141.49" cy="104.47" rx="22.71" ry="2.23" transform="translate(-25.35 48.79) rotate(-17.99)"/><ellipse class="cls-1" cx="221.81" cy="168.75" rx="5.34" ry="39.19" transform="translate(-41.27 76.74) rotate(-17.99)"/><path class="cls-1" d="M242.91,159.35c14.22,43.79-4.45,78.9-48.24,93.12s-83.76-10-98-53.8,9.27-67.21,53.06-81.43C193.08,103.17,228.7,115.56,242.91,159.35Z"/><ellipse class="cls-1" cx="146.04" cy="115.63" rx="21.82" ry="8.02" transform="translate(-28.57 50.75) rotate(-17.99)"/><ellipse class="cls-1" cx="142.05" cy="104.76" rx="37.4" ry="9.8" transform="translate(-25.41 48.98) rotate(-17.99)"/><ellipse class="cls-1" cx="141.49" cy="104.47" rx="22.71" ry="2.23" transform="translate(-25.35 48.79) rotate(-17.99)"/><ellipse class="cls-1" cx="221.81" cy="168.75" rx="5.34" ry="39.19" transform="translate(-41.27 76.74) rotate(-17.99)"/><path class="cls-1" d="M83.51,269.23c-3.5,3.71-8.44,4.73-11,2.28s-1.86-7.44,1.64-11.15,17-11.71,23.7-14.3C94.4,251.77,87,265.52,83.51,269.23Z"/><path class="cls-1" d="M63.85,234.11c-4.09,3-9.13,3.2-11.26.34s-.54-7.65,3.55-10.7,18.75-8.6,25.82-10C77.6,218.8,67.94,231.07,63.85,234.11Z"/><path class="cls-1" d="M60.29,188.69c-4.09,3.05-9.13,3.2-11.26.34s-.55-7.65,3.54-10.7,18.76-8.6,25.82-10C74,173.38,64.38,185.65,60.29,188.69Z"/><rect class="cls-2" x="45.67" y="33.75" width="529.89" height="252.03" rx="41.23"/><path class="cls-3" d="M281.76,90.3l73.53,72.44a5.67,5.67,0,0,1,.06,8l-72.44,73.53a5.67,5.67,0,0,1-9.7-3.93l-1.09-146A5.66,5.66,0,0,1,281.76,90.3Z"/><path class="cls-4" d="M249.15,146.89c14.21,43.79-4.46,78.9-48.25,93.11s-83.76-10-98-53.8S112.19,119,156,104.77C199.31,90.71,234.93,103.1,249.15,146.89Z"/><ellipse class="cls-4" cx="152.28" cy="103.17" rx="21.82" ry="8.02" transform="translate(-24.41 52.06) rotate(-17.99)"/><ellipse class="cls-4" cx="148.28" cy="92.29" rx="37.4" ry="9.8" transform="translate(-21.25 50.3) rotate(-17.99)"/><ellipse cx="147.72" cy="92.01" rx="22.71" ry="2.23" transform="translate(-21.19 50.11) rotate(-17.99)"/><ellipse class="cls-5" cx="228.04" cy="156.28" rx="5.34" ry="39.19" transform="translate(-37.11 78.05) rotate(-17.99)"/><path class="cls-4" d="M249.15,146.89c14.21,43.79-4.46,78.9-48.25,93.11s-83.76-10-98-53.8S112.19,119,156,104.77C199.31,90.71,234.93,103.1,249.15,146.89Z"/><ellipse class="cls-4" cx="152.28" cy="103.17" rx="21.82" ry="8.02" transform="translate(-24.41 52.06) rotate(-17.99)"/><ellipse class="cls-4" cx="148.28" cy="92.29" rx="37.4" ry="9.8" transform="translate(-21.25 50.3) rotate(-17.99)"/><ellipse cx="147.72" cy="92.01" rx="22.71" ry="2.23" transform="translate(-21.19 50.11) rotate(-17.99)"/><ellipse class="cls-5" cx="228.04" cy="156.28" rx="5.34" ry="39.19" transform="translate(-37.11 78.05) rotate(-17.99)"/><path class="cls-6" d="M89.74,256.76c-3.5,3.71-8.44,4.73-11,2.28s-1.86-7.44,1.64-11.14,17-11.72,23.7-14.31C100.64,239.3,93.24,253.05,89.74,256.76Z"/><path class="cls-6" d="M70.09,221.64c-4.09,3.05-9.14,3.2-11.27.34s-.54-7.65,3.55-10.69,18.75-8.6,25.82-10C83.84,206.33,74.18,218.6,70.09,221.64Z"/><path class="cls-6" d="M66.52,176.23c-4.09,3-9.13,3.19-11.26.33s-.54-7.65,3.55-10.69,18.75-8.6,25.82-10C80.27,160.91,70.61,173.18,66.52,176.23Z"/><path class="cls-5" d="M287.89,82.28l73.53,72.44a5.66,5.66,0,0,1,.06,8L289,236.26a5.66,5.66,0,0,1-9.69-3.93l-1.09-146A5.66,5.66,0,0,1,287.89,82.28Z"/><path class="cls-7" d="M477.81,235.12c5.94-20-.59-34.28-8.68-60.91-9.85-37.44-26.5-58.74-70.65-59.12-16.63-7,5.64-42.62,7.32-42.63s46,6.55,46.78,10.07c45.65,29.18,47.42,46.83,57.56,80.22,8.27,31.08,12.8,54.92,15.56,77.08-11.39-2.66-21-3.76-34.32-4.13C476.78,235.29,490.14,232.7,477.81,235.12Z"/><path class="cls-8" d="M481.13,235.69c5.94-20-.18-40-8.26-66.62-9.86-37.44-26.5-58.74-70.66-59.12-16.63-7,5.64-42.62,7.32-42.63s46,6.54,46.79,10.07c45.65,29.17,47.42,46.82,57.55,80.22,8.27,31.08,11.29,61.33,14,83.49a185.5,185.5,0,0,0-37.08-4.84C476.25,235.85,495.53,236.41,481.13,235.69Z"/><path class="cls-7" d="M482.84,212.32c2.87-2.78,12.75-12.26,16.34-17.73s1.93-5.12,3.07-8.41a1.42,1.42,0,0,0,.13-1.62,1.33,1.33,0,0,0-1.57-.29,72.42,72.42,0,0,0-14,2.76c-6.45,1.92-3.91.29-7.93,2.41a96.14,96.14,0,0,0,2.16,12C482.11,205.68,481,209.06,482.84,212.32Z"/><path class="cls-7" d="M504.15,127.4c-3.59,1.7-11.2,10.52-16.33,14.52s-3.46,4.23-5.58,7a1.43,1.43,0,0,0-.63,1.49,1.34,1.34,0,0,0,1.39.79,71.89,71.89,0,0,0,14.18,2c6.72.29,11.06,1.56,15.55.86-1.61-3.09-2.9-8.73-4.26-12.52A122,122,0,0,1,504.15,127.4Z"/><path class="cls-7" d="M436.67,71.89c-1.53,3.86-1.13,8.11-2.29,14.76s.2,5.57.42,9.11a1.39,1.39,0,0,0,.5,1.53,1.31,1.31,0,0,0,1.53-.44,78.17,78.17,0,0,0,11.63-9c5.1-4.72,7.5-5.09,10.32-8.88a50.06,50.06,0,0,0-11-5.68C443.39,71.72,440,72.71,436.67,71.89Z"/><path class="cls-7" d="M457.64,134c1.51-2.08,3.8-7.92,5.46-11.78s.66-3.44,1-5.65a.91.91,0,0,0-.1-1,.84.84,0,0,0-1,0,47.07,47.07,0,0,0-8.55,3.33c-3.85,1.94-4.27,1.91-6.58,3.7,1.85,1.23,2.69,3.43,4.6,5.53A49.43,49.43,0,0,1,457.64,134Z"/><path class="cls-7" d="M412.59,65.6a72.68,72.68,0,0,0-24,2.06,79.1,79.1,0,0,0-22.46,9.72A3.12,3.12,0,0,0,364,79.69a3.17,3.17,0,0,0,.81,3.1,102.14,102.14,0,0,0,14.26,19.29,94.12,94.12,0,0,0,20.59,16.53c1.21-8,2.83-16.54,5-25.64C407.05,83,409.78,73.84,412.59,65.6Z"/></svg>