<svg id="Layer_1" data-name="Layer 1" xmlns="http://www.w3.org/2000/svg" width="390" height="370" viewBox="0 0 390 370"><defs><style>.cls-1{fill:#fff;}</style></defs><title>Settings</title><circle cx="197.77" cy="172.12" r="97"/><circle class="cls-1" cx="198.27" cy="172.62" r="45.5"/><path d="M227.45,84.34l-63.26,1Q169.61,64.75,175,44.12l41.08-.68Q221.77,63.89,227.45,84.34Z"/><path d="M159.26,85l-44,45.43Q104.53,112,93.77,93.61l28.57-29.49Z"/><path d="M111.38,136l-.59,63.23L69.84,187.33l.38-41.06Z"/><path d="M111.35,210.56l45.14,44.28-37,21.26L90.21,247.35Z"/><path d="M164.66,260.62l63.23-.69q-5.52,20.6-11,41.19l-41.06.44Q170.21,281.1,164.66,260.62Z"/><path d="M236.76,260.47l43.72-45.68,21.72,36.69-28.39,29.67Z"/><path d="M286.18,207.62l-.6-63.27,41.19,11.12.39,41.08Z"/><path d="M287.12,135.91l-43.33-46.1L281.6,70.06,309.74,100Z"/></svg>
