<svg id="Layer_1" data-name="Layer 1" xmlns="http://www.w3.org/2000/svg" width="1015" height="590" viewBox="0 0 1015 590"><defs><style>.cls-1{fill:#d9e021;stroke-width:13px;}.cls-1,.cls-5,.cls-7,.cls-9{stroke:#000;}.cls-1,.cls-5,.cls-7,.cls-8,.cls-9{stroke-miterlimit:10;}.cls-2{opacity:0.8;}.cls-3,.cls-5{fill:#ff0;}.cls-4{fill:#fcee21;}.cls-6{fill:#e9df00;}.cls-7,.cls-8,.cls-9{fill:none;}.cls-7{stroke-width:12px;}.cls-8{stroke:red;stroke-width:11px;}.cls-9{stroke-linecap:round;stroke-width:8px;}.cls-10{opacity:0.62;}</style></defs><title>Settingsmenu</title><rect class="cls-1" x="37.5" y="33.35" width="956.5" height="538.31" rx="137.07"/><g class="cls-2"><path class="cls-3" d="M874.93,311.39c.93,16.14,1.87,34.59,2.8,53.91-1.22-.11-2.46-.18-3.71-.18a39.91,39.91,0,1,0,0,79.82,40.75,40.75,0,0,0,7.46-.7c.84,17.25,1.68,33.68,2.52,48.24-73,1.26-146,.16-219.08-1.82A61.67,61.67,0,1,0,542.05,483c0,1.25.05,2.49.12,3.72C422.1,482.63,302,478.34,182,480.41L162,237.23Z"/><circle class="cls-4" cx="718.01" cy="357.87" r="36.28"/><circle class="cls-4" cx="474.93" cy="432.24" r="19.95"/><circle class="cls-4" cx="269.94" cy="345.17" r="59.86"/><ellipse class="cls-5" cx="407.81" cy="170.83" rx="52.61" ry="25.21"/><ellipse class="cls-5" cx="619.6" cy="215.46" rx="29.48" ry="11.79"/><path class="cls-4" d="M495.68,272.85c-1.59,15.44,20.16,30.33,48.56,33.24s52.72-7.24,54.3-22.69"/><path class="cls-4" d="M224.3,203.26a39.26,39.26,0,0,0,26.59,10.39c22,0,39.91-18.28,39.91-40.82a41.62,41.62,0,0,0-.39-5.61L453.16,78.5l43.37,24.34c-11.43,5.11-18.88,13.42-18.88,22.83,0,15.53,20.3,28.11,45.35,28.11,16.78,0,31.41-5.65,39.26-14l312.67,175.5L162,237.23Z"/><ellipse class="cls-3" cx="412.34" cy="204.58" rx="48.98" ry="32.65"/><ellipse class="cls-3" cx="383.32" cy="196.41" rx="1.81" ry="6.35"/><ellipse class="cls-3" cx="649.08" cy="240.86" rx="33.56" ry="14.51"/></g><circle class="cls-6" cx="766.25" cy="451.25" r="88.75"/><circle class="cls-3" cx="776.3" cy="453.72" r="78.7"/><rect x="728.08" y="433.86" width="31.26" height="40.95"/><polygon points="755.16 437.12 777.73 413.39 777.73 493.2 755.16 474.35 755.16 437.12"/><path class="cls-7" d="M782.85,431.77c6.16,0,11.16,9.67,11.16,21.59S789,475,782.85,475"/><path class="cls-7" d="M794.48,423.39c8.81,0,15.95,13.81,15.95,30.83s-7.14,30.83-15.95,30.83"/><path class="cls-7" d="M808.91,414.78c11.31,0,20.47,17.73,20.47,39.59S820.22,494,808.91,494"/><line class="cls-8" x1="814.41" y1="403.39" x2="745.96" y2="499.71"/><circle class="cls-6" cx="280" cy="451.5" r="89.5"/><circle class="cls-3" cx="290.14" cy="453.99" r="79.36"/><rect x="254.32" y="405.26" width="71.02" height="18.28" transform="translate(-55.06 44.56) rotate(-8.03)"/><rect x="260.64" y="427.71" width="5.34" height="67.69" transform="translate(-61.9 41.32) rotate(-8.03)"/><ellipse cx="255.43" cy="495.1" rx="15.35" ry="12.11" transform="translate(-66.67 40.54) rotate(-8.03)"/><rect x="324.6" y="418.61" width="6.42" height="67.69" transform="matrix(0.99, -0.14, 0.14, 0.99, -60, 50.24)"/><ellipse cx="321.9" cy="485.73" rx="13.71" ry="12.11" transform="translate(-64.71 49.74) rotate(-8.03)"/><line class="cls-9" x1="156.43" y1="91" x2="103.71" y2="139"/><line class="cls-9" x1="158" y1="138" x2="102.64" y2="92.23"/><path class="cls-10" d="M291.31,192.3a42.14,42.14,0,0,1-3.55,17.9,35.55,35.55,0,0,1-9.71,12.73,41.58,41.58,0,0,1-14.42,7.62,59.81,59.81,0,0,1-17.74,2.54,37,37,0,0,1-8-1c-2.92-.65-5.87-1.45-8.86-2.43s-5.86-2-8.62-3.13-5.22-2.18-7.36-3.18l3.28-30.78a52.59,52.59,0,0,0,14.09,5.79,61.08,61.08,0,0,0,15.2,2c.95,0,2.09,0,3.44-.11a16.59,16.59,0,0,0,3.84-.67,8.41,8.41,0,0,0,3.1-1.68,4.06,4.06,0,0,0,1.27-3.22,3.5,3.5,0,0,0-.89-2.42,6.58,6.58,0,0,0-2.32-1.65,14.94,14.94,0,0,0-3.21-1q-1.8-.33-3.51-.48T244.1,189h-2.39a29.48,29.48,0,0,1-11.7-2.25,26.63,26.63,0,0,1-9-6.23,28.42,28.42,0,0,1-5.86-9.49A33.07,33.07,0,0,1,213,159.13a34.37,34.37,0,0,1,3.55-15.8,36.87,36.87,0,0,1,9.48-11.88,43,43,0,0,1,13.64-7.5,48.92,48.92,0,0,1,15.91-2.62q3.66,0,7.55.26a75.12,75.12,0,0,1,7.73.94,73.18,73.18,0,0,1,7.51,1.71,44.19,44.19,0,0,1,6.94,2.62l-2.84,30.33a91.41,91.41,0,0,0-10.64-2.88A53.45,53.45,0,0,0,261,153.16l-2.5,0c-1,0-2.1.1-3.22.23a31.5,31.5,0,0,0-3.39.56,14,14,0,0,0-3.07,1,5.92,5.92,0,0,0-2.17,1.68,3.88,3.88,0,0,0,.49,5.12,8.06,8.06,0,0,0,3,1.56,20.56,20.56,0,0,0,4,.79c1.47.15,2.93.24,4.37.26s2.79,0,4,0a22.79,22.79,0,0,1,3.06.11,30.63,30.63,0,0,1,10.76,2.54,24.9,24.9,0,0,1,8.1,5.75,24.4,24.4,0,0,1,5.08,8.56A32.64,32.64,0,0,1,291.31,192.3Z"/><path class="cls-10" d="M366.76,124.32q-.43,7-.82,13.89t-1,13.9l-31.67,1.64-.75,9.42h22.26l-1.64,23.16-22.41.74L330,198h31.67c-.29,5.48-.61,10.92-.93,16.32s-.61,10.83-.86,16.25l-64.4,1.5,2.39-107.73Z"/><path class="cls-10" d="M448.27,125.22l-.75,31.67-22.26.9-5.68,70.82-31.52,1.64.15-70.82-22.27,1.2.9-35.26Z"/><path class="cls-10" d="M532.91,125.22l-.74,31.67-22.27.9-5.68,70.82-31.52,1.64.15-70.82-22.27,1.2.9-35.26Z"/><path class="cls-10" d="M577.36,126.86l-8.22,101.75-31.52,1.64V129Z"/><path class="cls-10" d="M684.12,124.92l-5.38,101.3-39.15,3.59-20.91-54.24-3.29,55.28H581.77l2.69-105.93,37.35-1.8,25.85,53.79,1.2-50.8Z"/><path class="cls-10" d="M780.34,216.81a34.9,34.9,0,0,1-8.67,7.69,57.39,57.39,0,0,1-11,5.46,71.33,71.33,0,0,1-12.1,3.25,69,69,0,0,1-11.81,1.08,50.3,50.3,0,0,1-19.94-3.89A47.5,47.5,0,0,1,701,219.68a49.37,49.37,0,0,1-10.35-16.1A52.79,52.79,0,0,1,687,183.64a68.54,68.54,0,0,1,1.86-15.95A67.76,67.76,0,0,1,694.17,153a61.3,61.3,0,0,1,8.48-12.7,54.68,54.68,0,0,1,11.35-10,53.62,53.62,0,0,1,13.9-6.5A54.51,54.51,0,0,1,744,121.48c2.14,0,4.44.09,6.88.26s4.86.48,7.28.9a51.65,51.65,0,0,1,7.06,1.75,33,33,0,0,1,6.28,2.77l-2.1,28.54a37.58,37.58,0,0,0-8.63-2.13,68.25,68.25,0,0,0-8.7-.56,33.38,33.38,0,0,0-11.17,1.83,26.82,26.82,0,0,0-9,5.26,25.08,25.08,0,0,0-6.09,8.37,28.2,28.2,0,0,0-1.19,18.64,19.63,19.63,0,0,0,3.17,6.43,16.33,16.33,0,0,0,5.31,4.51,15.18,15.18,0,0,0,7.36,1.72,24.31,24.31,0,0,0,5.86-.74,12.88,12.88,0,0,0,5.19-2.54l.3-5.83-17.93-.3.9-22.41q11.13-.37,22.26-.64t22.41-.71Z"/><path class="cls-10" d="M862.52,192.3A42.29,42.29,0,0,1,859,210.2a35.66,35.66,0,0,1-9.71,12.73,41.58,41.58,0,0,1-14.42,7.62,59.81,59.81,0,0,1-17.74,2.54,37,37,0,0,1-8-1c-2.92-.65-5.87-1.45-8.86-2.43s-5.86-2-8.63-3.13-5.21-2.18-7.35-3.18l3.28-30.78a52.59,52.59,0,0,0,14.09,5.79,61.08,61.08,0,0,0,15.2,2c.94,0,2.09,0,3.43-.11a16.58,16.58,0,0,0,3.85-.67,8.49,8.49,0,0,0,3.1-1.68,4.06,4.06,0,0,0,1.27-3.22,3.55,3.55,0,0,0-.89-2.42,6.58,6.58,0,0,0-2.32-1.65,14.94,14.94,0,0,0-3.21-1q-1.8-.33-3.51-.48c-1.15-.1-2.22-.15-3.22-.15h-2.39a29.47,29.47,0,0,1-11.69-2.25,26.63,26.63,0,0,1-9-6.23,28.42,28.42,0,0,1-5.86-9.49,33.07,33.07,0,0,1-2.09-11.92,34.49,34.49,0,0,1,3.54-15.8,37,37,0,0,1,9.49-11.88A43,43,0,0,1,810.9,124a48.92,48.92,0,0,1,15.91-2.62q3.66,0,7.54.26a75,75,0,0,1,7.74.94,73,73,0,0,1,7.5,1.71,44.31,44.31,0,0,1,6.95,2.62l-2.84,30.33a91.41,91.41,0,0,0-10.64-2.88,53.45,53.45,0,0,0-10.87-1.15l-2.5,0c-1,0-2.1.1-3.22.23a32.09,32.09,0,0,0-3.4.56,14.09,14.09,0,0,0-3.06,1,5.84,5.84,0,0,0-2.17,1.68,3.88,3.88,0,0,0,.49,5.12,8.06,8.06,0,0,0,3,1.56,20.56,20.56,0,0,0,4,.79c1.47.15,2.93.24,4.37.26s2.79,0,4,0a22.79,22.79,0,0,1,3.06.11,30.63,30.63,0,0,1,10.76,2.54,25,25,0,0,1,8.1,5.75,24.4,24.4,0,0,1,5.08,8.56A32.64,32.64,0,0,1,862.52,192.3Z"/></svg>
