<svg id="Layer_1" data-name="Layer 1" xmlns="http://www.w3.org/2000/svg" width="380" height="380" viewBox="0 0 380 380"><defs><style>.cls-1{fill:#e9df00;}.cls-2{fill:#ff0;}.cls-3{fill:none;stroke:#000;stroke-miterlimit:10;stroke-width:26px;}</style></defs><title>Spil igen</title><circle class="cls-1" cx="190" cy="190" r="146.5"/><circle class="cls-2" cx="206.59" cy="194.07" r="129.91"/><path d="M277.5,240a113.34,113.34,0,0,1-29.94,20.14,119.49,119.49,0,0,1-34.94,10,4.55,4.55,0,0,1-4.61-.58,4.49,4.49,0,0,1-1.8-4.29,151.43,151.43,0,0,1-.32-35.36,144.31,144.31,0,0,1,9.53-38.14c8.46,7.93,18,16.19,28.57,24.5C255.63,225.37,266.92,233.22,277.5,240Z"/><path class="cls-3" d="M127,240.89c-4-3.61-21.81-20.56-24.21-46.91-3.14-34.62,21-78.54,66-83.93a75.48,75.48,0,0,1,83.93,66c3.76,31.39-15.11,55.14-17.4,57.84"/></svg>