<svg id="Layer_1" data-name="Layer 1" xmlns="http://www.w3.org/2000/svg" width="300" height="160" viewBox="0 0 300 160"><title>timer</title><path d="M100.82,68.48a45,45,0,0,1-1.1,9.91,47.05,47.05,0,0,1-3.2,9.46,43.92,43.92,0,0,1-5.13,8.44,35.36,35.36,0,0,1-6.93,6.79,32.55,32.55,0,0,1-8.59,4.54,30.18,30.18,0,0,1-10.05,1.64,30.71,30.71,0,0,1-10.14-1.64,32,32,0,0,1-8.58-4.54,36.25,36.25,0,0,1-6.94-6.79A42.55,42.55,0,0,1,35,87.85a46.09,46.09,0,0,1-3.2-9.49,45.08,45.08,0,0,1-1.11-9.88,45.57,45.57,0,0,1,1.11-9.92A46.06,46.06,0,0,1,35,49.05a43.35,43.35,0,0,1,5.15-8.47,35.83,35.83,0,0,1,6.94-6.82,31.91,31.91,0,0,1,8.61-4.54,30.71,30.71,0,0,1,10.11-1.64,30.18,30.18,0,0,1,10.05,1.64,32.55,32.55,0,0,1,8.59,4.54,35,35,0,0,1,6.93,6.82,44.77,44.77,0,0,1,5.13,8.47,46.67,46.67,0,0,1,3.2,9.51A45.55,45.55,0,0,1,100.82,68.48Zm-23.9,1.7a25.25,25.25,0,0,0-.68-5.55,22.67,22.67,0,0,0-2.09-5.73,14.75,14.75,0,0,0-3.63-4.47,8.65,8.65,0,0,0-10.59,0,15,15,0,0,0-3.65,4.47,22,22,0,0,0-2.13,5.73,25.86,25.86,0,0,0-.68,5.55,26,26,0,0,0,.68,5.55,21.94,21.94,0,0,0,2.13,5.72,15,15,0,0,0,3.65,4.47,8.65,8.65,0,0,0,10.59,0,14.75,14.75,0,0,0,3.63-4.47,22.6,22.6,0,0,0,2.09-5.72A25.39,25.39,0,0,0,76.92,70.18Z"/><path d="M128.75,61.11a11.28,11.28,0,0,1-1,4.65,12.7,12.7,0,0,1-2.58,3.76,12,12,0,0,1-3.77,2.55,11.25,11.25,0,0,1-4.59.94,11.39,11.39,0,0,1-4.64-.94,12,12,0,0,1-3.77-2.55,12.26,12.26,0,0,1-2.55-3.76,11.6,11.6,0,0,1-.93-4.65,11.83,11.83,0,0,1,.93-4.64,12.07,12.07,0,0,1,2.55-3.82,12.39,12.39,0,0,1,3.77-2.58,11.24,11.24,0,0,1,4.64-1,11.11,11.11,0,0,1,4.59,1,12.26,12.26,0,0,1,6.35,6.4A11.51,11.51,0,0,1,128.75,61.11Zm0,36.25a11.28,11.28,0,0,1-1,4.65,12.7,12.7,0,0,1-2.58,3.76,12,12,0,0,1-3.77,2.55,11.25,11.25,0,0,1-4.59.94,11.39,11.39,0,0,1-4.64-.94,12,12,0,0,1-3.77-2.55,12.26,12.26,0,0,1-2.55-3.76,11.6,11.6,0,0,1-.93-4.65,11.83,11.83,0,0,1,.93-4.64,12.07,12.07,0,0,1,2.55-3.82,12.39,12.39,0,0,1,3.77-2.58,11.24,11.24,0,0,1,4.64-1,11.11,11.11,0,0,1,4.59,1,12.26,12.26,0,0,1,6.35,6.4A11.51,11.51,0,0,1,128.75,97.36Z"/><path d="M190.49,80.48a32.56,32.56,0,0,1-2.41,13.06,25,25,0,0,1-6.71,9.18,28.18,28.18,0,0,1-10.28,5.43A45.74,45.74,0,0,1,158,109.94a36.22,36.22,0,0,1-6.62-.63,53.58,53.58,0,0,1-6.74-1.69,56,56,0,0,1-6.49-2.55,54.07,54.07,0,0,1-5.86-3.18l2.15-22.76a41.66,41.66,0,0,0,4.82,2.8,52.43,52.43,0,0,0,5.52,2.38A43.13,43.13,0,0,0,150.53,86a27.25,27.25,0,0,0,5.63.62,21.63,21.63,0,0,0,3.26-.25,10,10,0,0,0,3-.94,5.93,5.93,0,0,0,2.24-1.92,5.53,5.53,0,0,0,.87-3.23,3.14,3.14,0,0,0-1.13-2.32,10.42,10.42,0,0,0-2.72-1.85,17.35,17.35,0,0,0-3.28-1.18,11.79,11.79,0,0,0-2.83-.43c-.53,0-1.17,0-1.9.09s-1.48.14-2.24.25a15.34,15.34,0,0,0-2.18.48,4.56,4.56,0,0,0-1.61.77l.34-16.2c.64.07,1.24.13,1.81.17s1.17.05,1.81.05a28.33,28.33,0,0,0,4.31-.36,15.83,15.83,0,0,0,4.3-1.31,9.25,9.25,0,0,0,3.31-2.57,6.53,6.53,0,0,0,1.33-4.25,4.4,4.4,0,0,0-1-3,6.78,6.78,0,0,0-2.53-1.79,13.25,13.25,0,0,0-3.25-.85,25.12,25.12,0,0,0-3.17-.22,26.94,26.94,0,0,0-9,1.58A23.3,23.3,0,0,0,138,51.94l-4.76-20.62a37.45,37.45,0,0,1,11.87-6.48,41.53,41.53,0,0,1,13.39-2.24,38.87,38.87,0,0,1,11.81,1.78,30.07,30.07,0,0,1,9.94,5.27,25.47,25.47,0,0,1,6.85,8.58A26,26,0,0,1,189.69,50a14.43,14.43,0,0,1-.56,3.91,21.15,21.15,0,0,1-1.53,3.85,20.29,20.29,0,0,1-2.27,3.49,18.84,18.84,0,0,1-2.77,2.8A11,11,0,0,1,186.47,67a15.24,15.24,0,0,1,2.43,4,19.48,19.48,0,0,1,1.25,4.67A36.49,36.49,0,0,1,190.49,80.48Z"/><path d="M264.23,68.48a45.6,45.6,0,0,1-1.1,9.91,47.69,47.69,0,0,1-3.2,9.46,43.92,43.92,0,0,1-5.13,8.44,35.13,35.13,0,0,1-6.94,6.79,32.34,32.34,0,0,1-8.58,4.54,30.18,30.18,0,0,1-10.05,1.64,30.63,30.63,0,0,1-10.14-1.64,31.88,31.88,0,0,1-8.58-4.54,36.25,36.25,0,0,1-6.94-6.79,42.55,42.55,0,0,1-5.15-8.44,46.09,46.09,0,0,1-3.2-9.49,45.08,45.08,0,0,1-1.11-9.88,45.57,45.57,0,0,1,1.11-9.92,46.06,46.06,0,0,1,3.2-9.51,43.35,43.35,0,0,1,5.15-8.47,35.83,35.83,0,0,1,6.94-6.82,31.76,31.76,0,0,1,8.61-4.54,30.71,30.71,0,0,1,10.11-1.64,30.18,30.18,0,0,1,10.05,1.64,32.34,32.34,0,0,1,8.58,4.54,34.74,34.74,0,0,1,6.94,6.82,44.77,44.77,0,0,1,5.13,8.47,47.28,47.28,0,0,1,3.2,9.51A46.18,46.18,0,0,1,264.23,68.48Zm-23.9,1.7a25.86,25.86,0,0,0-.68-5.55,22.31,22.31,0,0,0-2.1-5.73,14.57,14.57,0,0,0-3.62-4.47,8.65,8.65,0,0,0-10.59,0,15.14,15.14,0,0,0-3.66,4.47,22,22,0,0,0-2.12,5.73,25.86,25.86,0,0,0-.68,5.55,26,26,0,0,0,.68,5.55,21.92,21.92,0,0,0,2.12,5.72,15.14,15.14,0,0,0,3.66,4.47,8.65,8.65,0,0,0,10.59,0,14.57,14.57,0,0,0,3.62-4.47,22.24,22.24,0,0,0,2.1-5.72A26,26,0,0,0,240.33,70.18Z"/></svg>
