<svg id="Layer_1" data-name="Layer 1" xmlns="http://www.w3.org/2000/svg" width="1400" height="800" viewBox="0 0 1400 800"><defs><style>.cls-1{fill:#ed1c24;}.cls-2{fill:#c1272d;}.cls-3{opacity:0.78;}.cls-4{fill:#fcee21;stroke-width:13px;}.cls-10,.cls-11,.cls-12,.cls-13,.cls-4,.cls-9{stroke:#000;stroke-miterlimit:10;}.cls-5{opacity:0.62;}.cls-6,.cls-8{fill:#f7931e;}.cls-6{stroke:#fbb03b;stroke-linejoin:round;}.cls-10,.cls-11,.cls-13,.cls-6,.cls-9{stroke-linecap:round;}.cls-12,.cls-6,.cls-9{stroke-width:10px;}.cls-7{fill:#fbb03b;}.cls-10,.cls-11,.cls-12,.cls-13,.cls-9{fill:none;}.cls-10{stroke-width:11px;}.cls-11{stroke-width:14px;}.cls-13{stroke-width:8px;}.cls-14{fill:red;}.cls-15{fill:#fff;}.cls-16{fill:blue;}</style></defs><title>Win skærm</title><path class="cls-1" d="M1211,482H190V358.47a98.37,98.37,0,0,1,98.37-98.37h824.26A98.37,98.37,0,0,1,1211,358.47Z"/><path class="cls-1" d="M1178.49,643.71H221.55A32.54,32.54,0,0,1,189,611.18V482H1211V611.18A32.53,32.53,0,0,1,1178.49,643.71Z"/><path class="cls-2" d="M189,482H700V430.67a35,35,0,0,0-35-35H242.72A53.69,53.69,0,0,0,189,449.36Z"/><path class="cls-2" d="M1211,482H700V430.67a35,35,0,0,1,35-35h422.31A53.69,53.69,0,0,1,1211,449.36Z"/><rect class="cls-2" x="163.02" y="391.65" width="72" height="253.06"/><ellipse class="cls-2" cx="169.52" cy="386.13" rx="66.5" ry="66.78"/><rect class="cls-2" x="1153.02" y="391.65" width="72" height="253.06"/><ellipse class="cls-2" cx="1218.52" cy="386.13" rx="66.5" ry="66.78"/><g class="cls-3"><rect class="cls-4" x="43.74" y="29.11" width="1312.53" height="741.79" rx="137.07"/></g><path class="cls-5" d="M291.69,120.66l-2.92,31-58.55,4.6q.42-24.36.94-48.45t1.29-48.46H268.6Q267,74.65,265.54,89.91t-2.08,30.75c2.18.1,4.33.14,6.46.14h6.47q3.9,0,7.65-.07C286.54,120.69,289.09,120.66,291.69,120.66Z"/><path class="cls-5" d="M360.8,59.78q-.42,6.56-.76,13t-.91,13l-29.48,1.54L329,96.08h20.72l-1.53,21.65-20.86.7-.7,10.19h29.48q-.4,7.68-.87,15.26t-.79,15.19l-59.94,1.39,2.22-100.68Z"/><path class="cls-5" d="M448.2,62.57l-25.45,97.19-34.48,2L357,63.55l33-3.08,13.35,57.26,12.93-57.26Z"/><path class="cls-5" d="M516.28,59.78q-.42,6.56-.77,13t-.9,13l-29.48,1.54-.7,8.79h20.72l-1.53,21.65-20.86.7-.69,10.19h29.48q-.42,7.68-.87,15.26t-.8,15.19l-59.94,1.39,2.23-100.68Z"/><path class="cls-5" d="M579.76,120.66l-2.92,31-58.55,4.6q.42-24.36.94-48.45t1.29-48.46h36.15q-1.59,15.28-3.06,30.55t-2.08,30.75c2.18.1,4.33.14,6.47.14h6.46q3.9,0,7.65-.07C574.61,120.69,577.16,120.66,579.76,120.66Z"/><path class="cls-5" d="M679.75,62.29l-3.9,29.47a23.85,23.85,0,0,0-4-.77,39,39,0,0,0-4-.21A34.71,34.71,0,0,0,658,92.14a24.51,24.51,0,0,0-8.24,4.15,20.38,20.38,0,0,0-5.7,7,21.56,21.56,0,0,0-2.12,9.84,15.7,15.7,0,0,0,1.15,6.29,11.55,11.55,0,0,0,3.23,4.39,13.48,13.48,0,0,0,4.94,2.59,22,22,0,0,0,6.26.84,27.42,27.42,0,0,0,5.35-.56,44.5,44.5,0,0,0,5.49-1.47,51.45,51.45,0,0,0,5.29-2.09c1.71-.79,3.29-1.61,4.72-2.45l-2.78,32.82A43.13,43.13,0,0,1,669.7,156q-3.16,1.08-6.5,1.88a60.19,60.19,0,0,1-6.68,1.23,51.26,51.26,0,0,1-6.4.42,41.48,41.48,0,0,1-29.75-12.29,42.06,42.06,0,0,1-8.87-13.51,43.28,43.28,0,0,1-3.23-16.8,73.1,73.1,0,0,1,3.4-22.52,55,55,0,0,1,10-18.53,47,47,0,0,1,16.37-12.57,52.17,52.17,0,0,1,22.49-4.61,65.55,65.55,0,0,1,9.84.77A32.38,32.38,0,0,1,679.75,62.29Z"/><path class="cls-5" d="M769.23,111.17a50.48,50.48,0,0,1-1.46,12.25,48,48,0,0,1-4.2,11.07,46.19,46.19,0,0,1-6.68,9.46,42.62,42.62,0,0,1-31.74,13.86,43.24,43.24,0,0,1-11.93-1.61,45.32,45.32,0,0,1-10.6-4.5,42.57,42.57,0,0,1-8.93-7,43.52,43.52,0,0,1-6.82-9.08,47,47,0,0,1-4.38-10.72A45.14,45.14,0,0,1,680.93,113a49.09,49.09,0,0,1,5.66-22.9,47.92,47.92,0,0,1,6.64-9.5A44.38,44.38,0,0,1,702,73.11a42.21,42.21,0,0,1,10.46-4.89,40.09,40.09,0,0,1,11.89-1.74,51.75,51.75,0,0,1,18.4,3.14A39,39,0,0,1,766,92.7,50.45,50.45,0,0,1,769.23,111.17ZM738.36,113a19.74,19.74,0,0,0-.87-5.83,15.83,15.83,0,0,0-2.54-5,13,13,0,0,0-4.13-3.57,11.65,11.65,0,0,0-5.67-1.36,13.79,13.79,0,0,0-5.84,1.19,13.25,13.25,0,0,0-4.42,3.25,14.42,14.42,0,0,0-2.81,4.81,17.4,17.4,0,0,0-1,5.83,21.25,21.25,0,0,0,.84,5.87,17.52,17.52,0,0,0,2.5,5.31,13.32,13.32,0,0,0,4.14,3.84,11.07,11.07,0,0,0,5.73,1.46,13.09,13.09,0,0,0,5.88-1.29,13.25,13.25,0,0,0,4.42-3.49,16.14,16.14,0,0,0,2.78-5.06A18.31,18.31,0,0,0,738.36,113Z"/><path class="cls-5" d="M881.6,58.66l-6.4,102.5-31.71,1.4.28-54-14.32,43.57H817.21l-11-39-.14,45.25-32.12,1,1.39-96.5,35.74-1.4,14.19,46.23,18.91-49Z"/><path class="cls-5" d="M967.68,93.29a33.33,33.33,0,0,1-2,12,29.49,29.49,0,0,1-5.53,9.15,33.17,33.17,0,0,1-8.24,6.63,51,51,0,0,1-10.11,4.44A67.45,67.45,0,0,1,930.62,128a88.47,88.47,0,0,1-11.34.87v32.54h-32.4q0-16,.07-31.84t.21-32q.14-8.52.07-17t.35-17.17a127.51,127.51,0,0,1,17.8-4,123.54,123.54,0,0,1,18.35-1.33,66.68,66.68,0,0,1,10.71.87,52,52,0,0,1,10.26,2.76,46.06,46.06,0,0,1,9.1,4.71,30.87,30.87,0,0,1,12.1,15.64A33.42,33.42,0,0,1,967.68,93.29ZM936.8,95.67a9.19,9.19,0,0,0-2.74-7.09A10.06,10.06,0,0,0,926.93,86a19.89,19.89,0,0,0-3,.24c-1,.17-2,.37-3,.6l-.83,20.39a13.52,13.52,0,0,0,1.87.14h1.88a14.11,14.11,0,0,0,4.83-.84,12.87,12.87,0,0,0,4.14-2.41,12.24,12.24,0,0,0,2.89-3.7A10.53,10.53,0,0,0,936.8,95.67Z"/><path class="cls-5" d="M1032.62,120.66l-2.92,31-58.55,4.6q.42-24.36.94-48.45t1.29-48.46h36.15q-1.59,15.28-3.06,30.55t-2.08,30.75c2.18.1,4.33.14,6.47.14h6.46q3.9,0,7.65-.07C1027.47,120.69,1030,120.66,1032.62,120.66Z"/><path class="cls-5" d="M1113.48,104a88.59,88.59,0,0,1-.83,12.15q-11.89.78-23.64,2.48l-23.5,3.39a17.3,17.3,0,0,0,5.66,8,14.6,14.6,0,0,0,9.22,3,20.19,20.19,0,0,0,6.08-1.05,50.13,50.13,0,0,0,6.57-2.61q3.27-1.58,6.26-3.39t5.15-3.28l-3.34,31.7a31.21,31.21,0,0,1-5.88,3.56,39.57,39.57,0,0,1-6.57,2.37,49.42,49.42,0,0,1-6.88,1.33,56.86,56.86,0,0,1-6.82.42,39.82,39.82,0,0,1-12.58-1.89,36.9,36.9,0,0,1-10.33-5.27,39.07,39.07,0,0,1-8.1-8,46.93,46.93,0,0,1-5.77-10.06,57.64,57.64,0,0,1-3.47-11.52,64,64,0,0,1-1.19-12.29,72.24,72.24,0,0,1,1.19-13,64.37,64.37,0,0,1,3.58-12.49,52.68,52.68,0,0,1,6-11.14,43.74,43.74,0,0,1,8.52-9,38.27,38.27,0,0,1,11-6,40.88,40.88,0,0,1,13.6-2.16,35.49,35.49,0,0,1,11.3,1.71,31.25,31.25,0,0,1,9.1,4.75,32.48,32.48,0,0,1,7,7.22,41.88,41.88,0,0,1,4.86,9.18,55.12,55.12,0,0,1,2.86,10.55A68.11,68.11,0,0,1,1113.48,104Zm-27.81-3.63a20,20,0,0,0-.42-4,12.8,12.8,0,0,0-1.35-3.74,8.37,8.37,0,0,0-2.47-2.75,6.39,6.39,0,0,0-3.82-1.09,8.3,8.3,0,0,0-4.91,1.5,14.73,14.73,0,0,0-3.65,3.77,23.07,23.07,0,0,0-2.5,4.93,36.71,36.71,0,0,0-1.46,4.89l20.58-2Z"/><path class="cls-5" d="M1191.64,62l-.7,29.61-20.72.83-2.5,64.8-29.34,1.54L1135.73,94,1115,95.11l.84-33Z"/><path class="cls-5" d="M1271.81,104a88.61,88.61,0,0,1-.84,12.15q-11.88.78-23.64,2.48t-23.5,3.39a17.39,17.39,0,0,0,5.67,8,14.55,14.55,0,0,0,9.21,3,20.3,20.3,0,0,0,6.09-1.05,50.13,50.13,0,0,0,6.57-2.61c2.17-1.05,4.26-2.18,6.25-3.39s3.71-2.3,5.15-3.28l-3.34,31.7a31.13,31.13,0,0,1-5.87,3.56,39.57,39.57,0,0,1-6.57,2.37,49.56,49.56,0,0,1-6.89,1.33,56.82,56.82,0,0,1-6.81.42,39.84,39.84,0,0,1-12.59-1.89,36.7,36.7,0,0,1-10.32-5.27,38.59,38.59,0,0,1-8.1-8,46.93,46.93,0,0,1-5.77-10.06,58.32,58.32,0,0,1-3.48-11.52,64,64,0,0,1-1.18-12.29,72.23,72.23,0,0,1,1.18-13,65.08,65.08,0,0,1,3.58-12.49,53.17,53.17,0,0,1,6.05-11.14,43.21,43.21,0,0,1,8.52-9,38.14,38.14,0,0,1,11-6,40.78,40.78,0,0,1,13.59-2.16,35.44,35.44,0,0,1,11.3,1.71,31.3,31.3,0,0,1,9.11,4.75,32.66,32.66,0,0,1,7,7.22,42.34,42.34,0,0,1,4.87,9.18,55.85,55.85,0,0,1,2.85,10.55A67,67,0,0,1,1271.81,104ZM1244,100.41a20,20,0,0,0-.42-4,12.81,12.81,0,0,0-1.36-3.74,8.26,8.26,0,0,0-2.47-2.75,6.39,6.39,0,0,0-3.82-1.09,8.27,8.27,0,0,0-4.9,1.5,14.57,14.57,0,0,0-3.65,3.77,22.62,22.62,0,0,0-2.5,4.93,36.86,36.86,0,0,0-1.47,4.89l20.59-2Z"/><path class="cls-6" d="M546.69,677.94C534.84,661,541.09,604.4,570,531.55c32.66-82.42,70.6-137.89,84.31-152a29.44,29.44,0,0,1,17.65-8.85,29.11,29.11,0,0,1,16.69,3.13A250.71,250.71,0,0,1,760.52,398c15.62,8.12,29,17.29,39,24.18,0,0,19,13,37.82,28.63,25.37,21,66.14,62.28,111.81,119.91a268.31,268.31,0,0,1-66.93,67.9c-8.88,6.22-47.77,32.66-122.61,46.78C675.7,701.2,600.75,691.31,546.69,677.94Z"/><path class="cls-7" d="M749.24,387.43a268.59,268.59,0,0,1,71.14-47.68,282.84,282.84,0,0,1,82.93-23.51,11,11,0,0,1,15.13,11.65,361.15,361.15,0,0,1,.48,84.18A344.24,344.24,0,0,1,896,502.79c-20-19-42.42-38.71-67.5-58.58C801,422.39,774.27,403.59,749.24,387.43Z"/><path class="cls-8" d="M761.3,389.58a210.89,210.89,0,0,1,55.94-37.49,221.94,221.94,0,0,1,65.2-18.48,8.65,8.65,0,0,1,11.9,9.15,284.1,284.1,0,0,1,.37,66.19,270.75,270.75,0,0,1-18,71.34c-15.7-14.91-33.36-30.44-53.08-46.07C802,417.07,781,402.29,761.3,389.58Z"/><path class="cls-9" d="M848.8,585c-6.7-8.49-17.45-16.86-36-19.61-21.52-3.19-35.52,5.23-41.14,7.09"/><path class="cls-9" d="M836.81,596.88c-5.65-7.35-14.78-14.63-30.69-17.18-18.41-3-30.49,4.11-35.33,5.64"/><path class="cls-9" d="M805,594.29c-18.45-2.73-30.44,4.49-35.26,6.09"/><path class="cls-9" d="M835.93,611.09c-5.74-7.28-15-14.44-30.9-16.8"/><path class="cls-10" d="M635.6,583c-10.61-2-24.18-1.24-40,8.93-18.34,11.77-23.41,27.34-26.44,32.44"/><path class="cls-10" d="M634.3,599.9c-9.07-1.83-20.71-1.32-34.4,7.23-15.83,9.89-20.34,23.18-23,27.53"/><path class="cls-10" d="M608.61,618.87C592.9,629,588.56,642.3,586,646.68"/><path class="cls-10" d="M642.91,611.2c-9.09-1.71-20.73-1.05-34.3,7.67"/><path class="cls-11" d="M729,469c-11.44,1.43-25,6.66-37.8,22.19"/><path class="cls-11" d="M668.39,494.62c-10-5.75-24-9.73-43.49-5"/><path class="cls-7" d="M563.56,533.78a268.91,268.91,0,0,1-56.79-64.23,285.25,285.25,0,0,1-34.55-79.26,10.84,10.84,0,0,1-.09-11.06,10.61,10.61,0,0,1,9.5-5.59,356.65,356.65,0,0,1,83-12A340.43,340.43,0,0,1,657.23,372c-16,22.46-32.36,47.51-48.53,75.17C591,477.56,576.06,506.67,563.56,533.78Z"/><path class="cls-8" d="M571.26,512.88a205.45,205.45,0,0,1-43.36-49.05,217.69,217.69,0,0,1-26.38-60.53,8.24,8.24,0,0,1-.07-8.44,8.1,8.1,0,0,1,7.25-4.27,272.11,272.11,0,0,1,63.36-9.17,260,260,0,0,1,70.74,7.92c-12.19,17.16-24.71,36.28-37.06,57.41C592.18,470,580.81,492.18,571.26,512.88Z"/><path class="cls-12" d="M733.44,558.11c-22.93,15-53.67,20.14-68.75,14.77"/><path class="cls-12" d="M739.45,600.72c-13.09,24.11-27.55-2.63-36.76-28.48"/><path class="cls-12" d="M683.08,618.52c23,14.78,26.31-19.55,17.59-45.58"/><line class="cls-13" x1="678.7" y1="512.19" x2="635.81" y2="565.97"/><line class="cls-13" x1="687.37" y1="556.73" x2="627.65" y2="521.58"/><line class="cls-13" x1="750.15" y1="494.33" x2="707.25" y2="548.11"/><line class="cls-13" x1="758.82" y1="538.86" x2="699.09" y2="503.72"/><path class="cls-14" d="M618.13,515.42c-5,17.28,3,26.49-5.61,38.42-7.64,10.64-16.75,7.24-23.65,17.94-8.32,12.91.93,24-5.16,34.33-8.28,14-38.86,16.45-59.41,8-39.59-16.3-62.69-81.66-43.68-133.27,18.2-49.42,75.87-88.55,119.62-73.2,29.43,10.32,53.85,45.75,47.25,68.52C642.73,492.56,624.61,492.82,618.13,515.42Z"/><ellipse class="cls-14" cx="600.96" cy="405.66" rx="7.91" ry="26" transform="translate(12.79 829.65) rotate(-69.81)"/><ellipse class="cls-14" cx="605.83" cy="390.96" rx="12.44" ry="38.5" transform="translate(29.78 824.6) rotate(-69.81)"/><ellipse cx="606.4" cy="392.3" rx="4.5" ry="20.5" transform="translate(28.89 826.02) rotate(-69.81)"/><ellipse class="cls-15" cx="517.14" cy="491.59" rx="68.5" ry="10" transform="translate(-122.74 807.26) rotate(-69.81)"/><path class="cls-16" d="M407.19,460.39a18,18,0,0,1-5.67-35.55c9.82-1.57,80.79,5.34,71,6.9C467.56,432.53,417,458.82,407.19,460.39Z"/><path class="cls-16" d="M958.82,381.12a18,18,0,0,1-34.43,10.51c-2.9-9.51-5.82-80.76-2.92-71.25C922.93,325.16,955.92,371.62,958.82,381.12Z"/><path class="cls-16" d="M396.92,529.05a18,18,0,1,1-8.35-35c9.67-2.31,81-.8,71.29,1.5C455,496.7,406.59,526.75,396.92,529.05Z"/><path class="cls-16" d="M413.09,605.9a18,18,0,1,1-17.53-31.45c8.68-4.84,77.71-22.72,69-17.88C460.22,559,421.77,601.05,413.09,605.9Z"/><path class="cls-5" d="M523.7,207.63a26.11,26.11,0,0,1-1.6,9.49,23.15,23.15,0,0,1-4.39,7.23,26.28,26.28,0,0,1-6.54,5.24,40.9,40.9,0,0,1-8,3.5,54,54,0,0,1-8.86,2,73.21,73.21,0,0,1-9,.69v25.71H459.59q0-12.63.05-25.16t.17-25.27q.1-6.74.05-13.46t.28-13.58a103.67,103.67,0,0,1,14.12-3.14,99,99,0,0,1,14.57-1.05,53.05,53.05,0,0,1,8.5.69,41.24,41.24,0,0,1,8.13,2.18,35.74,35.74,0,0,1,7.23,3.72,24.86,24.86,0,0,1,5.77,5.33,24.47,24.47,0,0,1,3.83,7A26.23,26.23,0,0,1,523.7,207.63Zm-24.5,1.87a7.27,7.27,0,0,0-2.18-5.6,8,8,0,0,0-5.65-2,16.61,16.61,0,0,0-2.4.19c-.83.13-1.61.29-2.35.47L486,218.66a9.6,9.6,0,0,0,1.49.11h1.49a11.3,11.3,0,0,0,3.83-.66,10.16,10.16,0,0,0,3.29-1.9,9.61,9.61,0,0,0,2.29-2.93A8.21,8.21,0,0,0,499.2,209.5Z"/><path class="cls-5" d="M594.93,221.75a40.17,40.17,0,0,1-1.16,9.69,37.8,37.8,0,0,1-3.33,8.74,36.55,36.55,0,0,1-5.3,7.48,33.91,33.91,0,0,1-25.19,11,34.47,34.47,0,0,1-9.46-1.27,35.7,35.7,0,0,1-8.42-3.56,33.82,33.82,0,0,1-7.09-5.51,34.73,34.73,0,0,1-5.4-7.18,37,37,0,0,1-3.48-8.47,35.35,35.35,0,0,1-1.24-9.43,38.08,38.08,0,0,1,1.16-9.41,37.68,37.68,0,0,1,3.34-8.69,37,37,0,0,1,5.27-7.5,34.54,34.54,0,0,1,6.92-5.91,33.44,33.44,0,0,1,8.3-3.86,31.84,31.84,0,0,1,9.44-1.38,41.21,41.21,0,0,1,14.59,2.48,30.91,30.91,0,0,1,18.49,18.24A39.65,39.65,0,0,1,594.93,221.75Zm-24.5,1.44a15.56,15.56,0,0,0-.69-4.61,12.7,12.7,0,0,0-2-4,10.38,10.38,0,0,0-3.28-2.82,9.3,9.3,0,0,0-4.5-1.07,11,11,0,0,0-4.64.94,10.74,10.74,0,0,0-3.5,2.56,11.33,11.33,0,0,0-2.23,3.81,13.57,13.57,0,0,0-.78,4.61,16.83,16.83,0,0,0,.67,4.63,13.71,13.71,0,0,0,2,4.19,10.49,10.49,0,0,0,3.29,3,8.77,8.77,0,0,0,4.55,1.16,10.29,10.29,0,0,0,8.16-3.78,12.46,12.46,0,0,0,2.21-4A14.28,14.28,0,0,0,570.43,223.19Z"/><path class="cls-5" d="M628.59,183l-6.07,75.15-23.28,1.21V184.57Z"/><path class="cls-5" d="M707.44,181.59l-4,74.81-28.91,2.65L659.1,219l-2.43,40.83H631.84l2-78.24,27.59-1.33L680.51,220l.88-37.52Z"/><path class="cls-5" d="M770.22,181.81l-.55,23.39-16.44.66L749,258.17l-23.29,1.21.11-52.3-16.44.88.66-26Z"/><path class="cls-5" d="M829.76,231.35a31.28,31.28,0,0,1-2.62,13.22A26.42,26.42,0,0,1,820,254a30.85,30.85,0,0,1-10.65,5.62,44.43,44.43,0,0,1-13.11,1.88,27.4,27.4,0,0,1-5.93-.72q-3.22-.7-6.54-1.79c-2.2-.72-4.33-1.49-6.37-2.32s-3.85-1.61-5.43-2.34l2.42-22.73a39,39,0,0,0,10.4,4.27A44.93,44.93,0,0,0,796,237.31c.7,0,1.55,0,2.54-.08a11.49,11.49,0,0,0,2.84-.5,6,6,0,0,0,2.29-1.24,3,3,0,0,0,.94-2.37,2.59,2.59,0,0,0-.66-1.79,5,5,0,0,0-1.71-1.22,10.4,10.4,0,0,0-2.38-.71,24,24,0,0,0-2.59-.36c-.85-.08-1.63-.11-2.37-.11h-1.77a21.7,21.7,0,0,1-8.63-1.66,19.53,19.53,0,0,1-6.68-4.61,20.82,20.82,0,0,1-4.33-7,24.55,24.55,0,0,1-1.54-8.8,25.37,25.37,0,0,1,2.62-11.67,27.15,27.15,0,0,1,7-8.78,31.8,31.8,0,0,1,10.07-5.54,36.23,36.23,0,0,1,11.75-1.93c1.81,0,3.66.06,5.58.19a55.24,55.24,0,0,1,5.71.69,52.49,52.49,0,0,1,5.54,1.27,32.45,32.45,0,0,1,5.14,1.93l-2.1,22.4a68.4,68.4,0,0,0-7.86-2.12,39.41,39.41,0,0,0-8-.86l-1.85,0c-.75,0-1.55.07-2.37.17a24.74,24.74,0,0,0-2.51.41,10.33,10.33,0,0,0-2.26.74,4.42,4.42,0,0,0-1.61,1.25,2.85,2.85,0,0,0,.36,3.78,6,6,0,0,0,2.21,1.15,15.14,15.14,0,0,0,3,.58c1.08.11,2.16.18,3.23.2s2.06,0,3,0a16.6,16.6,0,0,1,2.26.08,22.31,22.31,0,0,1,7.94,1.88,18.36,18.36,0,0,1,6,4.24,18,18,0,0,1,3.75,6.32A24,24,0,0,1,829.76,231.35Z"/><path class="cls-5" d="M856,214a11,11,0,0,1-.93,4.52,12.39,12.39,0,0,1-2.51,3.67,11.92,11.92,0,0,1-3.67,2.49,11.23,11.23,0,0,1-4.47.91,11.38,11.38,0,0,1-4.53-.91,11.8,11.8,0,0,1-3.67-2.49,11.94,11.94,0,0,1-2.48-3.67,11.13,11.13,0,0,1-.91-4.52,11.49,11.49,0,0,1,.91-4.53,11.82,11.82,0,0,1,2.48-3.72,12.21,12.21,0,0,1,3.67-2.51,10.91,10.91,0,0,1,4.53-.94,10.76,10.76,0,0,1,4.47.94,11.91,11.91,0,0,1,6.18,6.23A11.34,11.34,0,0,1,856,214Zm0,35.31a11.06,11.06,0,0,1-.93,4.53,12.52,12.52,0,0,1-2.51,3.67,12.07,12.07,0,0,1-3.67,2.48,11.06,11.06,0,0,1-4.47.91,11.21,11.21,0,0,1-4.53-.91,11.94,11.94,0,0,1-3.67-2.48,12.07,12.07,0,0,1-2.48-3.67,11.21,11.21,0,0,1-.91-4.53,11.41,11.41,0,0,1,.91-4.52,11.76,11.76,0,0,1,2.48-3.73,12.21,12.21,0,0,1,3.67-2.51,11.07,11.07,0,0,1,4.53-.94,10.92,10.92,0,0,1,4.47.94,12.33,12.33,0,0,1,3.67,2.51,12.18,12.18,0,0,1,2.51,3.73A11.25,11.25,0,0,1,856,249.34Z"/></svg>